<?xml version="1.0" encoding="utf-8" ?><svg fill="#ffffff" xmlns="http://www.w3.org/2000/svg" xmlns:xlink="http://www.w3.org/1999/xlink" width="832" height="1280" viewBox="0 0 832 1280"><path fill="#ffffff" d="M414.777 343.316C417.043 343.977 418.21 345.204 419.214 347.308C430.261 370.47 441.156 394.298 452.165 417.428C523.663 569.394 594.289 721.769 664.04 874.545L715.498 985.262C723.634 1002.69 732.19 1019.97 739.97 1037.53C743.723 1045.99 737.022 1055.69 731.145 1061.32C717.052 1074.8 694.513 1084.42 676.234 1090.15C595.608 1115.47 504.333 1123.3 420.219 1123.74C337.575 1123.74 190.806 1116.55 119.44 1075.27C108.981 1069.22 95.8462 1060.39 92.6846 1048.04C91.3083 1042.67 91.7743 1038.08 93.7873 1032.96C98.6031 1020.72 104.986 1008.77 110.572 996.839L141.613 929.824L246.772 700.364L353.861 468.283C367.191 439.657 380.871 411.196 394.899 382.905C400.228 372.092 408.748 353.266 414.777 343.316ZM106.386 1014.74C110.886 1012.14 112.947 1011.09 118.06 1010.26C113.911 1014.23 108.562 1017.23 103.584 1020.08C100.395 1026.52 96.0319 1033.81 95.663 1041.15C95.3429 1047.51 98.2075 1053.28 102.375 1057.92C138.791 1098.51 275.024 1114.07 328.424 1117.35C431.991 1123.71 567.126 1120.06 666.122 1089.54C686.883 1083.14 710.234 1075.26 726.704 1060.5C731.26 1056.41 736.243 1051.1 736.589 1044.67C735.038 1044.27 734.476 1044.08 732.997 1043.46L732.563 1042.15L733.1 1041.16L736.781 1040.33C736.609 1038.99 731.628 1027.1 730.8 1026.22C726.815 1022 719.657 1018.73 715.609 1013.48L715.167 1012.9C719.864 1014.51 721.827 1015.68 726.043 1018.1C724.736 1012.93 719.672 1002.34 717.234 997.063L701.745 963.836L646.779 845.304L498.586 524.676L444.397 409.326C436.12 391.816 426.084 368.453 417.237 351.984C417.038 351.524 416.655 350.104 415.925 350.163C415.438 350.652 415.582 351.964 415.575 352.629C415.557 353.495 415.525 354.36 415.48 355.225L414.944 355.557L413.208 355.005C411.296 356.549 396.306 388.372 394.157 392.798C312.22 565.088 232.001 738.188 153.512 912.075C138.238 945.499 120.603 981.243 106.386 1014.74Z"/><path d="M437.336 730.83C439.416 730.476 439.593 730.373 441.594 730.847C441.832 731.409 442.096 754.388 442.174 756.568C473.333 735.312 458.548 776.969 464.718 783.36C466.527 783.725 467.533 783.718 468.861 784.885L468.472 785.846C467.081 786.357 456.184 786.046 453.531 786.016L453.208 784.952L453.838 783.911L456.84 783.366C458.599 780.878 457.607 763.693 457.503 759.617C454.348 751.658 446.966 756.39 442.139 759.496C441.961 765.085 440.649 779.756 443.6 783.422C445.386 783.921 445.582 784.033 446.989 785.242L446.664 785.964C444.113 786.256 432.449 786.721 431.158 784.914C432.527 783.435 434.189 783.366 436.251 782.913C436.568 776.859 437.079 740.452 436.155 736.209C434.523 734.058 434.22 734.451 430.974 733.749L430.633 732.514C432.171 731.321 435.245 731.149 437.336 730.83Z"/><path fill="#ffffff" d="M413.691 960.717C416.339 960.74 418.694 960.758 421.329 961.046C422.784 961.205 422.789 963.064 422.578 963.174C415.799 966.712 416.961 960.597 416.283 969.523C416.15 976.793 412.052 969.237 413.588 965.578C414.24 964.025 408.969 962.85 413.691 960.717Z"/><path fill="#ffffff" d="M414.553 1031.47C417.281 1033.22 416.247 1037.48 416.325 1040.78C419.351 1040.87 425.384 1039.76 425.423 1043.37C421.318 1043.8 418.039 1043.75 413.956 1043.72C413.823 1038.87 413.505 1036.22 414.553 1031.47Z"/><path fill="#ffffff" d="M385.895 961.375C390.843 961.154 395.81 961 400.756 961.288C402.32 961.379 402.079 962.519 401.775 963.655C397.149 964.373 392.57 964.614 387.897 964.145C386.647 964.02 386.212 962.278 385.895 961.375Z"/><path fill="#ffffff" d="M491.402 1040.94C494.765 1040.76 507.752 1038.48 506.163 1043.65C503.115 1043.68 488.4 1045.62 491.402 1040.94Z"/><path fill="#ffffff" d="M464.276 1040.88C465.389 1040.8 466.502 1040.73 467.616 1040.67C472.171 1040.45 478.929 1038.62 478.61 1043.79C473.984 1043.81 469.042 1043.96 464.474 1043.53C463.278 1043.42 464.044 1041.39 464.276 1040.88Z"/><path fill="#ffffff" d="M518.774 1040.99C521.311 1040.84 536.948 1038.48 533.036 1043.71C530.934 1043.7 514.936 1045.09 518.774 1040.99Z"/><path fill="#ffffff" d="M414.51 364.211C417.098 366.328 416.103 379.234 414.872 382.096C411.874 380.637 412.819 366.941 414.51 364.211Z"/><path fill="#ffffff" d="M545.05 1040.96C548.986 1040.83 560.7 1038.61 560.561 1043.4L559.957 1043.46C557.365 1043.7 544.428 1045.01 544.96 1041.62L545.05 1040.96Z"/><path fill="#ffffff" d="M413.772 392.148C415.364 392.944 416.178 393.303 416.171 395.28C416.154 400.098 416.158 404.371 415.461 409.163C415.302 409.113 413.485 408.629 413.468 408.404C413.092 403.496 412.909 396.985 413.772 392.148Z"/><path fill="#ffffff" d="M434.462 961.523C435.801 961.429 437.142 961.363 438.483 961.326C440.057 961.293 449.157 960.959 450.433 962.002C450.734 962.248 450.579 963.458 450.548 963.897C447.763 963.99 433.795 965.599 434.358 962.207L434.462 961.523Z"/><path fill="#ffffff" d="M414.428 419.142C417.178 421.348 416.067 433.989 414.955 437.207C411.885 435.393 412.932 421.921 414.428 419.142Z"/><path fill="#ffffff" d="M523.275 965.136L530.702 965.719C534.597 966.025 538.462 965.158 538.141 969.024C533.221 968.674 528.074 968.7 523.24 967.937C521.967 967.736 522.969 965.665 523.275 965.136Z"/><path fill="#ffffff" d="M655.512 1040.96C658.747 1040.79 665.315 1040.34 668.625 1040.96C669.406 1041.1 670.599 1043.1 668.191 1043.6C663.985 1043.59 659.552 1043.76 655.383 1043.56C653.97 1043.5 653.076 1041.87 655.512 1040.96Z"/><path fill="#ffffff" d="M666.432 990.632C669.805 990.713 680.601 993.573 682.169 996.905C680.522 997.458 678.794 997.818 677.326 996.771C675.022 995.128 667.603 994.254 666.856 991.936L666.432 990.632Z"/><path fill="#ffffff" d="M413.837 475.126C414.194 475.256 415.628 475.677 415.638 476.036C415.758 480.479 416.447 489.523 414.86 493.241C411.872 491.461 413.195 478.486 413.837 475.126Z"/><path fill="#ffffff" d="M237.164 975.221C239.028 975.189 238.789 976.616 238.202 977.137C236.202 978.913 228.221 979.772 225.645 980.218C217.512 977.358 236.516 975.306 237.164 975.221Z"/><path fill="#ffffff" d="M209.794 980.07C216.492 979.381 210.463 984.359 206.916 983.867C206.9 983.864 200.727 985.27 200.198 985.388C199.019 985.641 198.056 985.943 197.575 984.584C198.533 982.625 199.246 982.797 201.235 982.272L209.794 980.07Z"/><path fill="#ffffff" d="M336.151 963.403C337.913 963.289 346.324 962.225 346.891 964.034C346.984 964.336 346.943 964.663 346.779 964.933C346.245 965.824 343.074 965.878 341.965 966.024C340.574 966.111 332.983 966.725 332.564 966.381C329.271 963.677 335.396 963.506 335.626 963.476L336.151 963.403Z"/><path fill="#ffffff" d="M413.906 642.739C415.164 643.276 416.069 643.683 416.007 645.293C415.816 650.171 416.012 655.304 415.467 660.134C414.58 659.916 413.399 659.546 413.386 658.464C413.327 653.7 412.764 647.237 413.906 642.739Z"/><path fill="#ffffff" d="M579.892 1040.98C589.948 1040.35 592.486 1043.75 581.162 1043.69C572.061 1043.66 566.959 1041.48 579.892 1040.98Z"/><path fill="#ffffff" d="M580.734 971.997C585.093 971.875 589.262 973.075 593.546 973.713C596.076 974.09 596.537 974.109 597.434 976.431C595.088 976.628 581.986 975.426 581.187 973.237L580.734 971.997Z"/><path fill="#ffffff" d="M606.82 1040.89C608.404 1040.83 614.195 1040.44 614.774 1041.15C617.691 1044.69 609.875 1043.68 609.623 1043.68C607.554 1043.66 600.446 1044.27 599.412 1042.38L599.579 1042C601.019 1040.96 604.866 1041.02 606.82 1040.89Z"/><path fill="#ffffff" d="M442.866 1040.98C445.341 1040.8 450.75 1039.68 452.134 1042.05C451.434 1044.54 446.149 1043.67 443.922 1043.65C435.586 1043.54 431.562 1041.73 442.866 1040.98Z"/><path fill="#ffffff" d="M609.507 977.009C613.462 976.621 623.666 977.986 625.984 981.45C623.262 981.809 610.677 980.304 609.943 978.245L609.507 977.009Z"/><path fill="#ffffff" d="M413.778 503.267C414.182 503.42 415.558 503.834 415.603 504.175C416.151 508.342 415.948 516.977 415.399 520.72C415.005 520.449 413.841 519.772 413.721 519.416C412.675 516.305 413.348 506.369 413.778 503.267Z"/><path fill="#ffffff" d="M414.556 697.943C416.966 700 416.054 712.44 414.799 715.373C412.416 712.133 412.544 701.112 414.556 697.943Z"/><path fill="#ffffff" d="M414.573 447.332C416.686 449.644 416.397 462.616 414.593 465.324C412.293 462.426 413.075 450.644 414.573 447.332Z"/><path fill="#ffffff" d="M313.938 965.271C314.919 965.142 320.33 964.484 319.054 966.826C318.296 968.218 311.277 968.336 309.607 968.479C307.571 968.767 305.016 969.356 304.42 967.084C305.919 965.453 311.452 965.527 313.938 965.271Z"/><path fill="#ffffff" d="M714.762 1040.91C717.568 1040.91 721.379 1040.32 723.314 1042.48L723.076 1043.22C721.801 1043.92 719.359 1043.75 717.88 1043.77C716.788 1043.74 702.993 1044.28 709.469 1041.12C709.678 1041.02 714.118 1040.93 714.762 1040.91Z"/><path fill="#ffffff" d="M260.007 971.469C261.124 971.328 265.074 970.709 265.605 971.854C265.437 973.91 259.026 974.361 257.38 974.688C255.332 975.02 250.901 976.634 250.254 974.425C251.855 972.035 257.18 971.854 260.007 971.469Z"/><path fill="#ffffff" d="M638.125 983.209C640.699 983.089 653.688 984.736 653.592 988.017L653.596 988.681C650.562 988.437 638.908 986.393 638.125 983.209Z"/><path fill="#ffffff" fill-opacity="0.98823529" d="M552.026 968.285C555.003 968.22 564.293 968.941 567.347 970.194C567.774 970.369 567.83 971.956 567.881 972.459C563.446 972.216 558.917 971.236 554.501 970.65C552.278 970.356 552.115 970.329 552.026 968.285Z"/><path fill="#ffffff" d="M414.409 726.669C417.52 728.77 416.618 739.958 415.085 742.754C412.219 740.353 413.328 729.946 414.409 726.669Z"/><path fill="#ffffff" d="M182.885 986.338C183.655 986.28 187.404 986.08 186.13 987.754C184.987 989.256 177.239 990.706 175.16 991.275C173.691 991.712 171.446 991.785 172.254 989.936C172.93 988.389 181.244 986.729 182.885 986.338Z"/><path fill="#ffffff" d="M626.359 1041.46C627.21 1041.36 628.063 1041.28 628.917 1041.2C630.629 1041.08 640.428 1040.43 642.303 1041.47C642.542 1041.6 642.451 1042.96 642.442 1043.32C639.23 1043.67 631.148 1043.81 627.647 1043.36C626.934 1043.26 626.555 1042.14 626.359 1041.46Z"/><path fill="#ffffff" d="M413.97 939.178C416.844 940.984 416.267 952.044 415.541 955.083C415.042 955.007 413.629 954.837 413.536 954.104C413.014 949.995 412.707 943.018 413.97 939.178Z"/><path fill="#ffffff" d="M692.737 1001.31C696.1 1001.19 707.892 1005.17 707.082 1009.07C704.768 1008.89 693.343 1003.77 692.737 1001.31Z"/><path fill="#ffffff" d="M290.191 967.789C292.31 967.738 292.227 969.303 291.628 969.693C289.703 970.946 280.478 971.423 278.484 971.625C276.626 971.545 276.389 970.185 277.051 969.796C279.27 968.49 287.79 968.038 290.191 967.789Z"/><path fill="#ffffff" d="M414.499 614.757C416.895 616.681 416.004 629.376 414.788 632.38C412.596 629.048 412.53 618.05 414.499 614.757Z"/><path fill="#ffffff" d="M361.804 962.104C365.51 961.901 370.481 961.461 374.104 961.91C375.56 962.091 375.757 963.789 373.293 964.461C369.08 964.479 364.863 964.493 360.652 964.49C360.191 964.49 359.195 963.949 359.527 963.323C359.94 962.543 361.053 962.35 361.804 962.104Z"/><path fill="#ffffff" d="M158.316 993.216C160.512 992.675 160.761 994.271 160.346 994.87C159.573 995.983 150.847 998.737 149.605 999.226C148.4 999.385 146.51 999.221 147.36 997.746C148.568 995.649 156.314 993.737 158.316 993.216Z"/><path fill="#ffffff" d="M414.205 530.861C417.042 532.879 416.078 546.133 414.744 548.9C412.438 545.669 413.163 534.462 414.205 530.861Z"/><path fill="#ffffff" d="M413.96 828.332C417.223 829.723 415.926 842.842 415.364 846.132C412.256 843.75 413.234 832.041 413.96 828.332Z"/><path fill="#ffffff" d="M464.174 962.041C468.869 961.939 474.824 962.097 479.46 962.853C479.877 962.921 479.781 964.608 479.777 964.86C475.512 965.07 468.847 964.822 464.526 964.021C463.97 963.918 464.142 962.47 464.174 962.041Z"/><path fill="#ffffff" d="M692.44 1040.92C694.104 1040.89 696.746 1040.47 696.588 1042.88C694.967 1044.01 687.939 1043.49 685.572 1043.49C684.327 1043.52 683.147 1043.68 681.96 1043.2C681.242 1042.91 681.384 1041.56 681.603 1041.5C684.664 1040.72 689.215 1040.96 692.44 1040.92Z"/><path fill="#ffffff" d="M413.985 912.052C417.15 913.4 415.826 925.423 415.407 928.857C415.119 928.681 413.783 927.979 413.714 927.623C412.829 923.078 413.095 916.586 413.985 912.052Z"/><path fill="#ffffff" d="M414.615 586.708C416.786 588.562 416.261 601.641 414.737 604.353C412.734 600.892 412.983 590.456 414.615 586.708Z"/><path fill="#ffffff" d="M414.57 884.186C416.815 886.061 416.071 899.152 414.749 901.911C412.572 898.249 412.981 887.994 414.57 884.186Z"/><path fill="#ffffff" d="M135.218 1001.14C142.503 1002.16 126.121 1007.84 125.398 1008.16C118.35 1006.6 134.323 1001.49 135.218 1001.14Z"/><path fill="#ffffff" fill-opacity="0.98431373" d="M493.157 963.367C495.873 963.347 508.129 963.145 509.006 965.403L509.443 966.533C506.152 966.445 493.396 967.022 493.157 963.367Z"/><path fill="#ffffff" d="M413.753 752.006C417.072 753.049 415.891 753.792 415.997 757.188C416.101 760.519 416.092 764.008 415.948 767.334C415.658 767.328 414.262 767.362 414.164 767.104C412.98 763.983 413.308 754.949 413.753 752.006Z"/><path fill="#ffffff" d="M414.425 670.391C416.813 672.481 416.316 685.217 414.731 688.061C412.676 684.447 413.132 674.344 414.425 670.391Z"/><path fill="#ffffff" d="M413.797 776.973C417.804 778.56 416.158 788.512 415.433 792.076C412.122 791.032 413.441 780.102 413.797 776.973Z"/><path fill="#ffffff" d="M413.964 802.074C416.951 803.302 415.731 805.316 415.862 808.242C416.027 811.943 415.93 815.544 415.568 819.229C415.28 819.115 414.064 818.677 414.027 818.506C413.352 815.309 413.783 804.756 413.964 802.074Z"/><path fill="#ffffff" d="M414.049 558.994C416.962 560.116 416.072 571.736 415.902 574.842C415.613 574.918 414.015 575.495 413.957 574.878C413.51 570.074 413.62 563.768 414.049 558.994Z"/><path fill="#ffffff" d="M414.584 856.123C416.731 859.465 416.172 869.004 415.164 872.838C412.676 870.957 413.582 859.108 414.584 856.123Z"/><path d="M414.618 982.309C417.112 984.233 416.216 994.235 415.457 996.98C412.676 995.186 413.802 985.025 414.618 982.309Z"/><path fill="#ffffff" fill-opacity="0.090196081" d="M591.294 1041.08C589.985 1041.07 586.138 1041.05 588.108 1038.95C591.993 1034.82 594.261 1037.51 597.23 1040C594.1 1039.55 593.121 1038.39 591.294 1041.08Z"/><path d="M414.471 1007.17C416.662 1008.81 415.882 1018.37 415.384 1021.08C413.394 1020.12 414.362 1009.63 414.471 1007.17Z"/><path fill="#ffffff" fill-opacity="0.45490196" d="M591.294 1041.08C593.121 1038.39 594.1 1039.55 597.23 1040C597.747 1040.27 597.894 1040.34 598.394 1040.63C598.211 1043.64 593.668 1041.69 591.294 1041.08Z"/><path fill="#ffffff" fill-opacity="0.24705882" d="M563.249 1040.19C567.037 1039.51 568.466 1039.19 571.445 1041.7C569.003 1041.93 566.694 1042.38 564.564 1041.04L563.249 1040.19Z"/><path fill="#ffffff" fill-opacity="0.4509804" d="M485.236 1039.79L487.519 1040.01C490.692 1040.29 492.429 1043.44 484.048 1041.68C484.149 1040.62 484.486 1040.48 485.236 1039.79Z"/><path fill="#ffffff" fill-opacity="0.20784314" d="M454.511 1040.22C455.26 1040.14 456.01 1040.07 456.76 1040.01C459.439 1039.8 460.99 1039.83 462.864 1041.46C459.684 1041.87 457.493 1041.37 454.511 1040.22Z"/><path fill="#ffffff" fill-opacity="0.16862746" d="M484.048 1041.68C482.769 1041.52 481.516 1041.18 480.04 1040.97L479.707 1040.29L479.581 1040.85L479.226 1040.48L479.145 1040.55L479.089 1040.39C479.641 1039.49 484.197 1039.82 485.236 1039.79C484.486 1040.48 484.149 1040.62 484.048 1041.68Z"/><path fill="#ffffff" fill-opacity="0.3019608" d="M537.707 1040.84C540.406 1040.5 542.686 1039.45 543.75 1042.19C541.06 1042.71 540.267 1042.13 537.707 1040.84Z"/><path fill="#ffffff" fill-opacity="0.30980393" d="M513.598 1042.7C507.043 1039.14 511.782 1040.13 515.527 1040.96C515.203 1042.26 514.768 1042.14 513.598 1042.7Z"/><path fill="#ffffff" fill-opacity="0.047058824" d="M350.291 962.897C351.424 962.676 351.713 962.468 352.515 963.331C351.191 963.944 350.843 964.344 350.291 962.897Z"/><path fill="#ffffff" fill-opacity="0.094117649" d="M515.527 1040.96C515.997 1041.19 516.524 1041.35 516.677 1041.9C516.444 1042.9 514.265 1042.65 513.598 1042.7C514.768 1042.14 515.203 1042.26 515.527 1040.96Z"/><path fill="#ffffff" fill-opacity="0.011764706" d="M415.48 355.225C415.525 354.36 415.557 353.495 415.575 352.629C415.582 351.964 415.438 350.652 415.925 350.163C416.655 350.104 417.038 351.524 417.237 351.984C416.666 353.072 416.08 354.152 415.48 355.225Z"/><path d="M422.544 162.835C423.223 163.832 423.185 187.226 423.249 189.982C444.805 171.3 458.33 204.136 439.886 220.247C431.079 224.574 426.155 223.093 417.202 220.304C416.225 209.184 417.464 193.636 417.033 182.072C416.89 178.204 417.464 170.975 416.56 167.512C414.996 167.441 413.121 167.485 411.69 166.95L411.505 165.41C413.331 163.343 419.566 163.147 422.544 162.835ZM423.208 192.989C423.191 196.994 423.421 202.359 423.156 206.229C422.421 216.962 422.413 222.096 435.749 219.725C445.645 212.951 447.726 189.112 430.35 189.374C427.338 190.605 426.011 191.341 423.208 192.989Z"/><path d="M296.845 163.336C298.446 163.001 298.379 162.955 299.939 163.345C300.639 166.135 300.366 186.143 300.353 190.196C303.786 187.232 306.376 185.398 311.03 184.77C314.17 184.342 317.347 185.216 319.827 187.188C329.556 194.841 326.66 209.259 319.773 217.914C312.334 224.721 303.023 223.709 294.394 219.885C294.41 213.659 295.037 171.82 293.847 168.798C291.341 166.326 292.393 167.908 288.783 166.517L288.963 164.778C290.29 164.241 295.149 163.598 296.845 163.336ZM300.186 193.032C300.263 197.771 300.764 203.998 300.399 208.616C299.595 218.778 300.569 221.227 312.072 219.816C315.645 217.727 318.903 214.076 319.483 210.005C321.247 197.638 320.114 189.09 306.39 190.11C304.196 191.064 302.32 191.978 300.186 193.032Z"/><path d="M666.256 163.331C667.975 163.041 668.366 162.838 669.946 163.386C670.529 167.216 670.196 184.636 670.37 189.91C678.944 184.019 683.297 182.902 692.439 188.513C698.673 199.348 697.62 209.762 689.154 218.995C681.315 225.587 673.378 223.183 664.632 220.606C664.874 212.99 666.095 172.591 664.03 168.913C663.015 167.104 661.237 166.678 659.319 166.199L658.872 166.091L658.903 164.891C661.037 163.85 663.838 163.668 666.256 163.331ZM670.369 192.367C670.361 198.046 670.692 204.281 670.502 209.845C670.196 218.79 671.424 220.844 681.326 220.606C694.473 214.214 694.154 190.893 680.2 189.531C675.596 190.392 674.661 190.73 670.369 192.367Z"/><path d="M95.623 201.542C95.6507 197.883 96.5531 191.078 92.8059 188.769C90.461 187.205 86.2188 187.102 84.0601 189.032C81.0364 191.736 83.863 193.878 78.7351 194.316C76.3668 195.29 75.9049 191.549 76.637 190.396C79.9309 185.21 91.8755 183.163 96.59 186.225C102.547 190.094 101.174 195.762 101.4 201.537C101.626 207.327 100.638 211.885 101.412 217.491C101.556 218.515 103.341 219.146 104.114 219.522C104.88 220.027 105.058 220.33 105.683 221.036C96.7614 226.969 96.4622 218.813 95.2487 218.19C94.6728 218.263 89.0604 222.237 85.9003 222.921C76.6463 224.926 72.1785 214.817 76.4306 207.877C78.524 204.46 90.7219 202.741 95.623 201.542ZM83.1137 218.777C88.9594 219.166 91.0851 217.671 95.5247 214.029C95.6157 212.309 96.6377 204.466 94.7416 204.492C86.6304 206.325 75.9928 208.057 83.1137 218.777Z"/><path d="M266.185 185.078C287.787 183.658 277.531 203.404 280.808 217.504C281.611 220.959 284.659 217.987 286.03 217.641C289.202 216.84 284.775 222.232 282.827 222.422C276.391 225.848 274.083 217.091 274.171 217.122C274.049 217.18 271.183 219.539 270.659 219.864C265.415 223.115 263.807 223.605 257.901 222.148C255.889 220.198 254.241 218.562 253.765 215.949C250.977 202 268.031 206.214 274.407 200.563C276.155 199.014 274.678 189.099 270.755 187.946C265.71 186.463 262.595 188.498 260.822 193.398C260.758 193.574 256.196 194.092 256.038 194.079C255.664 193.789 255.004 190.4 255.643 189.746C257.903 187.429 263.17 185.884 266.185 185.078ZM262.051 218.625C268.192 219.284 269.37 217.676 274.405 213.978C274.792 210.629 275.09 207.208 274.276 203.906C266.834 205.978 255.344 208.848 262.051 218.625Z"/><path d="M600.338 201.528C600.406 198.29 600.697 194.785 599.896 191.606C599.111 188.494 593.644 186.885 590.89 187.743C588.484 188.493 587.595 191.062 586.727 193.102C586.354 193.981 581.08 194.658 581.383 192.52C581.566 191.998 580.692 190.643 581.151 190.193C586.698 184.757 602.558 181.316 605.699 190.93C606.369 192.982 605.734 199.81 605.693 202.462C605.613 207.595 605.57 213.28 606.15 218.428C606.196 218.866 608.568 219.027 608.879 219.061C609.669 220.16 609.68 220.357 610.183 221.596C607.609 222.724 606.82 223.475 603.828 222.9C599.573 222.082 601.066 219.199 600.102 217.682C599.712 217.509 599.094 218.212 598.701 218.537C596.544 220.321 592.79 222.26 590.08 222.933C587.842 223.469 585.482 223.1 583.514 221.906C579.067 219.18 577.89 212.794 580.739 208.742C583.906 204.237 594.829 203.058 600.338 201.528ZM588.075 218.783C593.898 218.829 595.245 217.729 600.086 214.477C600.269 212.392 601.656 205.229 599.399 204.517C591.474 206.26 581.175 208.21 588.075 218.783Z"/><path d="M224.474 168.868C224.998 168.81 225.523 168.757 226.048 168.708C230.043 168.34 235.114 168.517 237.974 171.522C252.153 186.418 229.17 207.194 220.641 216.753C226.294 217.106 232.218 217.14 237.89 216.968C241.543 216.856 242.042 215.06 245.338 213.733L245.983 214.169L243.73 222.038L231.754 222.074L211.529 222.256C217.052 214.849 225.158 209.152 230.575 200.72C235.885 192.456 240.144 181.677 231.351 173.876C227.87 170.787 220.712 176.797 217.237 177.832C216.4 176.682 215.99 176.293 215.669 174.884C217.244 172.262 221.762 170.208 224.474 168.868Z"/><path d="M567.867 161.106L568.501 161.607C568.475 162.515 559.993 174.082 558.606 179.198C554.398 194.717 554.715 214.11 560.827 229.065C563.371 235.289 567.227 237.901 569.016 241.879L568.319 242.33L566.463 241.488C542.054 220.557 544.165 181.83 567.867 161.106Z"/><defs><linearGradient id="gradient_0" gradientUnits="userSpaceOnUse" x1="702.42822" y1="200.91188" x2="725.24066" y2="203.61507"><stop offset="0" stop-color="#ffffff" stop-opacity="0.96862745"/><stop offset="1" stop-color="#ffffff"/></linearGradient></defs><path fill="url(#gradient_0)" d="M706.455 161.205C710.466 162.006 716.367 169.401 718.293 172.93C731.342 196.848 729.009 221.213 709.963 240.873C708.186 242.31 708.973 242.084 706.921 242.162C706.968 240.286 709.811 237.801 711.123 235.976C713.05 233.268 714.624 230.325 715.807 227.219C721.9 211.299 721.035 188.601 714.507 172.87C712.939 169.091 708.051 165.252 706.455 161.205Z"/><path d="M616.571 672.052C618.882 672.051 627.511 672.147 628.797 674.982C629.016 675.465 628.26 681.86 628.014 682.29C627.793 682.37 625.511 682.884 625.373 682.829C624.64 681.809 625.521 676.81 623.226 675.648C612.934 670.056 605.816 684.025 616.555 686.47C630.124 689.56 636.895 702.885 619.96 708.126C613.085 708.405 612.288 708.121 605.629 706.69C605.618 705.674 604.666 695.697 608.305 697.977C609.769 698.895 608.975 703.157 611.297 704.437C614.45 706.173 621.656 706.945 623.761 703.128C627.421 694.429 617.507 693.237 611.599 690.179C606.035 687.299 604.526 683.47 607.447 677.451C609.04 674.17 613.123 672.817 616.571 672.052Z"/><path d="M368.802 179.766C370.482 179.721 370.48 179.732 372.118 180.141C374.229 183.427 373.19 194.384 373.097 198.857C378.469 199.068 385.773 197.977 390.746 200.443L390.979 201.362C386.719 203.761 378.017 203.213 372.995 203.195C372.505 208.39 372.971 216.858 372.912 222.569C371.388 222.54 371.041 222.621 369.627 221.952C367.902 218.551 368.767 208.235 368.604 203.16C364.411 203.21 352.876 203.914 349.83 201.074L350.204 200.549C354.394 198.221 363.809 198.773 368.743 198.82L368.802 179.766Z"/><path d="M634.275 179.655C635.534 179.733 636.231 179.901 637.44 180.158C639.429 183.282 638.455 194.005 638.487 198.739C642.663 198.859 653.805 197.873 656.591 200.987C653.889 203.503 642.176 203.086 638.345 203.103C638.117 209.141 638.322 216.245 638.352 222.362C636.78 222.491 636.734 222.429 635.255 222.127C633.285 218.88 634.282 207.799 634.332 203.182C630.978 203.228 617.638 203.996 616.071 200.826C619.678 198.268 629.789 198.831 634.347 198.84L634.275 179.655Z"/><path d="M771.047 1029.52C773.74 1029.16 772.869 1034.95 772.802 1036.78C775.469 1033.55 779.738 1027.59 785.96 1030.32C786.652 1030.62 785.072 1035.99 784.355 1036.66C784.078 1036.69 781.242 1035.71 780.115 1035.61C777.342 1035.35 774.58 1037.84 772.579 1039.46C772.522 1046.8 772.378 1054.84 772.579 1062.12C776.3 1062.94 778.129 1063.58 781.661 1064.8C778.652 1064.92 766.45 1065.1 762.754 1064.89C762.6 1064.88 762.509 1064.26 762.47 1063.97C762.289 1062.59 766.599 1062.94 766.713 1062.23C767.609 1056.64 767.185 1038.02 767.032 1033.41C762.684 1033.68 762.904 1033.68 758.524 1032.56C762.964 1031.22 766.437 1030.33 771.047 1029.52Z"/><path d="M111.67 180.569C116.291 175.91 121.512 171.471 124.945 165.903C126.281 163.738 127.411 160.566 127.271 158.131C127.002 153.457 125.075 150.125 120.019 151.456C117.335 152.164 116.956 154.222 115.386 154.723C111.755 150.018 122.376 147.191 125.987 148.571C128.01 149.329 129.633 150.884 130.476 152.872C135.017 163.304 119.748 173.733 118.499 177.086L118.58 176.985C122.577 177.005 126.577 176.947 130.568 177.061C131.049 178.186 131.318 178.669 131.922 179.747C126.545 180.493 117.361 180.486 111.67 180.569Z"/><path d="M463.811 150.082C467.749 150.005 471.896 150.188 473.569 154.559C475.506 159.619 469.234 162.126 468.291 164.014L468.36 164.204C470.108 165.213 473.393 165.366 474.686 167.923C477.516 173.834 475.616 180.804 469.902 184.168C467.482 185.592 460.021 187.888 458.29 184.793C458.484 182.806 462.901 184.396 464.091 184.566C470.906 182.357 473.105 179.302 471.843 172.194C470.388 164.005 462.503 168.496 461.422 168.072C461.23 166.697 478.129 156.853 465.371 152.588C462.038 151.474 459.693 157.144 458.04 154.757C458.284 152.011 461.584 151.046 463.811 150.082Z"/><path d="M150.872 185.607C153.942 185.552 182.033 185.368 182.929 185.793C183.244 186.403 183.111 189.142 183.117 190.001C179.51 189.967 152.266 189.888 151.067 189.298C150.757 188.84 150.895 186.339 150.872 185.607Z"/><path d="M490.777 185.573C497.28 185.527 515.048 185.499 522.404 185.794C523.111 185.823 523.046 189.068 523.07 190.023C516.14 189.924 499.386 190.07 491.747 189.497C491.03 189.443 490.875 186.502 490.777 185.573Z"/><path d="M150.73 202.552C154.345 202.65 182.081 202.375 182.914 202.701C183.309 203.277 183.183 205.817 183.195 206.576C173.079 206.784 162.937 206.353 152.825 206.825C149.843 206.964 150.783 205.26 150.73 202.552Z"/><path d="M490.677 202.498C497.664 202.644 515.237 202.469 522.781 203.252C522.949 203.27 522.959 204.136 522.95 204.362L522.848 206.464C512.414 206.775 501.862 206.798 491.44 206.672C490.829 206.665 490.712 202.836 490.677 202.498Z"/><path d="M737.948 177.295C742.529 171.892 754.533 162.089 746.788 154.576C743.036 150.937 738.948 156.668 738.532 156.8C735.883 156.023 739.268 151.82 742.007 151.451C744.311 151.141 745.688 149.991 748.455 151.544C760.087 158.07 744.462 173.269 740.382 177.653C739.072 177.798 739.042 177.91 737.948 177.295Z"/><defs><linearGradient id="gradient_1" gradientUnits="userSpaceOnUse" x1="745.1687" y1="175.42178" x2="745.07227" y2="178.95369"><stop offset="0" stop-color="#ffffff" stop-opacity="0.88627452"/><stop offset="1" stop-color="#ffffff"/></linearGradient></defs><path fill="url(#gradient_1)" d="M740.382 177.653C743.777 177.231 747.944 177.33 751.39 177.35C752.417 177.187 752.605 175.905 753.168 175.3C755.932 172.331 753.844 180.07 752.854 180.089C750.626 180.132 737.224 180.513 735.893 179.924C735.41 178.924 737.304 177.731 737.948 177.295C739.042 177.91 739.072 177.798 740.382 177.653Z"/><path d="M130.568 177.061L130.783 176.695C134.391 169.78 132.543 177.836 131.922 179.747C131.318 178.669 131.049 178.186 130.568 177.061Z"/><path d="M608.879 219.061C612.889 217.574 613.12 218.887 610.183 221.596C609.68 220.357 609.669 220.16 608.879 219.061Z"/><path d="M104.114 219.522C107.964 216.215 107.886 219.089 105.683 221.036C105.058 220.33 104.88 220.027 104.114 219.522Z"/></svg>