<?xml version="1.0" encoding="utf-8" ?><svg xmlns="http://www.w3.org/2000/svg" xmlns:xlink="http://www.w3.org/1999/xlink" width="1024" height="1024" viewBox="0 0 1024 1024"><path d="M391.813 317.61C401.489 260.58 412.864 203.654 435.343 150.051C442.53 132.915 450.481 116.348 461.224 101.129C472.049 85.7943 487.478 68.3393 507.021 65.1338C518.126 63.3122 528.48 67.9444 537.262 74.4016C593.782 115.959 622.327 250.952 632.548 317.246C693.095 294.204 774.182 269.213 839.425 271.78C857.237 272.48 879.647 277.793 891.797 291.772C899.787 300.965 901.387 311.059 900.179 322.998C897.617 348.319 881.398 373.143 866.283 393.059C862.297 398.311 856.449 406.28 851.635 410.341C854.826 418.278 858.051 423.335 853.66 433.052C851.45 437.984 847.263 441.757 842.128 443.441C836.541 445.288 830.447 444.82 825.209 442.14C824.062 441.556 822.73 440.727 821.625 440.049C815.591 450.019 753.152 503.905 741.603 510.733C754.177 520.805 767.187 530.258 779.545 540.629C817.481 572.466 868.049 622.782 889.589 667.311C897.247 683.141 903.886 703.124 897.656 720.546C893.887 731.084 885.251 738.08 875.357 742.667C823.702 766.611 707.569 732.121 656.132 713.039C650.509 723.017 639.508 727.021 628.717 723.591C625.526 737.738 623.5 752.152 620.454 766.34C609.289 818.356 591.533 882.845 559.952 926.049C549.564 940.26 534.673 956.094 516.311 958.757C505.081 960.386 494.378 955.45 485.591 948.881C430.555 907.74 401.98 771.64 392.196 705.462C375.056 712.124 357.717 718.262 340.202 723.865C328.709 727.434 315.668 730.653 304.498 734.596C304.314 736.944 304.15 739.594 303.492 741.841C301.912 747.068 298.327 751.458 293.521 754.05C282.407 760.168 269.457 755.134 263.871 744.041C236.24 751.207 205.045 754.913 176.582 751.217C159.581 749.01 140.879 743.297 130.035 729.074C123.524 720.533 121.867 710.184 123.416 699.746C133.007 635.118 231.244 548.592 282.141 510.932C273.691 504.211 264.888 497.953 256.486 491.15C215.062 457.605 163.636 410.503 137.698 363.397C128.588 346.852 118.894 324.928 124.577 305.823C127.731 295.222 134.927 287.018 144.64 281.866C192.066 256.708 299.803 287.282 349.328 302.95C363.624 307.473 377.518 313.131 391.813 317.61ZM380.062 477.661L378.443 478.107C378.471 466.553 379.271 457.915 379.662 446.808C361.804 458.219 344.845 468.08 327.262 480.471C318.473 486.645 309.767 492.938 301.149 499.348C296.959 502.463 289.688 508.249 285.472 510.863C294.831 516.969 306.224 526.038 315.982 532.836C336.663 547.35 357.853 561.125 379.512 574.135C378.849 561.636 378.285 549.298 378.281 536.779C378.28 532.813 377.663 524.473 378.054 520.786C379.008 516.573 378.356 509.506 378.758 504.739C378.929 509.19 378.241 516.864 379.281 520.811C379.866 523.411 379.819 536.304 380.065 539.607C380.963 551.647 381.288 563.941 382.238 575.971C424.58 601.625 467.894 625.642 512.083 647.966C527.395 641.225 548.173 629.723 562.809 621.628C589.602 607.047 615.951 591.663 641.818 575.496C642.926 552.529 643.384 528.537 643.965 505.499C644.265 493.562 643.029 479.951 642.82 467.848C642.695 460.572 642.589 452.808 642.144 445.581C601.976 420.057 554.365 396.105 512.404 373.021C466.735 396.869 426.502 418.327 382.189 445.173C381.164 456.246 381.525 466.119 380.062 477.661ZM394.229 318.713C400.748 320.932 408.054 324.391 414.694 326.955C448.054 339.837 480.015 355.131 512.126 370.778L515.676 369.176C542.02 355.804 568.853 343.42 596.12 332.048C606.695 327.562 620.163 322.659 630.137 318.115C621.247 252.267 591.607 118.713 536.585 77.106C527.498 70.2349 518.427 66.5635 506.965 67.6319C439.178 80.36 402.165 259.626 394.229 318.713ZM641.873 441.963C640.799 430.133 640.407 415.728 639.577 403.538C637.99 380.682 635.706 357.88 632.73 335.163C632.394 332.691 631.28 322.686 630.079 321.087C605.304 330.148 578.934 341.856 554.881 352.8C544.757 357.407 524.292 366.654 515.239 372.09C520.587 374.574 526.37 377.671 531.579 380.537C544.03 387.389 557.622 393.75 569.736 401.055C585.84 409.76 601.808 418.713 617.635 427.913C625.283 432.323 634.302 438.02 641.873 441.963ZM510.359 372.16C494.626 365.651 475.411 356.028 459.706 348.81C437.98 339.006 415.948 329.895 393.642 321.491C392.624 332.118 390.678 344.283 389.408 355.194C387.406 372.947 385.651 390.727 384.141 408.528C383.111 419.783 383.838 430.61 382.608 442.093C407.788 427.239 431.009 413.357 456.909 399.46C468.727 393.085 480.609 386.829 492.553 380.693C497.158 378.349 505.749 373.796 510.359 372.16ZM632.928 320.016C637.846 350.388 640.29 382.059 642.74 412.736C643.551 422.891 643.463 433.985 644.447 443.738C669.355 459.057 693.693 475.286 717.409 492.394C725.248 498.052 732.208 503.933 739.754 509.463C759.317 494.481 778.273 478.721 796.574 462.221C800.997 458.205 804.936 454.711 809.181 450.502C811.632 448.071 818.117 441.199 820.573 439.346C813.605 431.371 811.776 419.42 818.333 410.633C821.592 406.296 826.473 403.467 831.857 402.796C840.504 401.675 844.746 404.721 850.849 409.557C853.906 404.312 861.544 396.018 865.22 391.002C964.382 255.707 818.517 263.298 728.538 288.922C696.235 298.121 663.399 306.945 632.928 320.016ZM548.286 665.467C570.854 676.275 593.82 686.232 617.135 695.317C619.669 688.079 626.11 684.632 632.991 682.442C636.34 653.735 639.42 625.323 640.282 596.4C640.457 590.53 640.637 585.14 641.304 579.291L640.688 578.992C599.571 603.841 558.39 628.275 515.196 649.535C523.391 652.754 539.362 661.288 548.286 665.467ZM382.185 578.718C383.895 610.607 385.846 642.175 390.208 673.851C391.286 681.679 392.546 694.66 394.275 701.874C407.194 697.039 420.644 691.266 433.358 685.808C446.852 680.015 462.222 673.553 475.316 666.844C486.743 661.32 498.06 655.571 509.261 649.603C465.968 627.69 423.575 604.043 382.185 578.718ZM631.767 685.734C621.875 688.432 616.005 698.596 618.611 708.512C621.217 718.428 631.326 724.393 641.266 721.88C651.338 719.333 657.399 709.061 654.759 699.013C652.118 688.965 641.79 683 631.767 685.734ZM836.746 442.284C847.001 441.242 854.456 432.065 853.377 421.814C852.297 411.563 843.094 404.141 832.847 405.257C822.652 406.368 815.276 415.515 816.35 425.713C817.424 435.912 826.544 443.321 836.746 442.284ZM643.555 577.281C642.818 609.077 639.72 651.289 635.24 682.6C641.587 682.594 647.439 684.411 652.027 688.974C656.025 692.942 658.179 698.402 657.968 704.03C657.906 705.885 657.37 709.148 656.893 710.9C695.973 724.429 753.399 742.122 794.462 746.14C821.288 748.837 863.587 751.971 885.42 733.909C892.56 728.017 897.033 719.504 897.834 710.281C902.953 656.485 813.918 572.864 775.997 541.034C768.07 534.474 760.067 528.007 751.989 521.634C748.906 519.177 742.908 514.682 740.247 512.083C712.73 533.741 673.539 559.362 643.555 577.281ZM279.078 717.611C269.179 719.9 262.935 729.692 265.034 739.633C267.134 749.574 276.805 756.004 286.783 754.095C293.41 752.827 298.835 748.078 300.97 741.677C303.104 735.277 301.614 728.222 297.073 723.231C292.533 718.24 285.651 716.091 279.078 717.611ZM644.537 447.134C646.966 477.877 645.856 511.161 645.587 542.043C645.499 552.258 643.794 564.848 643.982 574.201C662.243 564.235 683.257 549.55 700.658 537.835C711.894 529.916 727.933 519.17 738.283 510.792C715.085 494.104 692.317 477.146 668.147 461.827C662.309 458.127 650.179 449.656 644.537 447.134ZM615.832 697.717C609.601 695.783 598.598 690.817 592.241 688.135C570.823 679.047 549.677 669.33 528.832 658.997C527.226 658.202 513.449 650.967 512.839 651.097C498.869 657.466 485.184 664.879 471.238 671.414C446 683.233 420.41 694.285 394.502 704.555C404.365 770.796 431.64 905.899 487.363 947.166C493.819 951.946 501.156 955.436 509.172 956.493C570.223 957.703 606.736 817.774 616.941 772.006C619.162 761.593 621.209 751.145 623.081 740.664C624.004 735.657 625.346 727.218 626.725 722.609C616.52 715.992 614.525 709.381 615.832 697.717ZM283.838 512.384C255.726 534.305 230.501 555.498 204.924 580.702C165.334 619.716 62.9322 735.185 179.931 749.363C202.356 752.081 223.911 749.054 246.115 745.436C251.212 744.459 258.229 743.304 263.156 742.074C261.884 735.433 261.911 729.129 266.028 723.312C269.374 718.608 274.53 715.512 280.255 714.769C285.919 714.01 291.649 715.571 296.145 719.098C300.689 722.676 302.598 726.728 304.522 731.982C314.161 728.904 324.3 726.382 334.045 723.396C353.545 717.399 372.773 710.554 391.676 702.879C389.4 682.896 386.163 663.518 384.291 643.282C382.958 628.064 381.781 612.834 380.761 597.592C380.335 590.927 380.219 583.735 379.607 577.169C356.037 563.164 333.061 548.18 310.741 532.257C308.136 530.424 284.242 512.51 283.838 512.384ZM186.188 274.697C168.116 276.07 146.525 278.734 133.985 293.429C126.659 302.014 124.795 312.221 125.695 323.242C130.149 377.795 213.497 451.841 253.508 485.435C263.428 493.765 273.907 501.575 284.205 509.436C293.667 502.113 302.32 495.409 312.083 488.426C332.328 473.928 358.604 456.457 379.981 443.591C380.704 438.836 380.639 433.61 380.94 428.754L382.703 398.257C383.252 388.644 384.555 377.519 385.629 367.809C387.28 352.872 388.923 335.506 391.728 320.769C334.584 299.626 247.208 272.142 186.188 274.697Z"/><path d="M493.548 456.927C505.914 443.502 520.337 444.617 531.271 458.921C534.711 457.607 540.524 458.121 543.949 459.297C549.29 461.161 553.615 465.163 555.888 470.343C558.235 475.635 558.097 480.991 556.03 486.315C566.22 492.893 571.22 497.814 569.309 510.978C568.687 510.362 568.071 509.739 567.463 509.109C567.8 497.926 563.603 494.425 555.191 488.747C550.532 494.305 549.608 494.876 543.039 498.36L543.321 499.155C544.916 503.777 540.6 509.999 542.994 510.308C551.326 511.381 555.551 514.768 560.9 520.694C561.294 521.425 561.485 521.701 561.762 522.468C564.668 527.117 564.9 534.599 563.719 539.656C560.949 551.518 548.787 559.765 536.785 557.029C535.957 556.84 535.443 556.388 534.797 555.909C534.35 562.039 528.223 568.801 522.899 571.396C517.168 574.168 510.561 574.511 504.574 572.348C498.186 570.001 494.06 565.563 491.267 559.498C473.091 559.621 461.679 549.399 466.702 530.573C462.485 527.818 459.511 525.006 457.145 520.486C452.005 510.662 455.72 496.801 465.805 491.764C465.076 490.393 464.42 488.985 463.837 487.546C455.931 467.661 475.64 448.482 493.548 456.927ZM540.979 497.472C539.675 486.636 530.144 478.698 519.25 479.374C508.357 480.051 499.881 489.107 499.928 500.022C499.974 510.937 508.526 519.921 519.425 520.505C525.501 520.83 531.41 518.453 535.568 514.01C539.726 509.567 541.707 503.514 540.979 497.472ZM514.254 571.151C521.63 570.525 528.102 565.983 531.199 559.259C534.296 552.534 533.541 544.664 529.221 538.651C524.902 532.638 517.685 529.41 510.324 530.198C499.114 531.398 490.959 541.396 492.036 552.618C493.113 563.84 503.021 572.105 514.254 571.151ZM489.894 498.509C492.636 498.043 493.857 497.642 496.213 496.233L497.291 495.6C500.406 486.165 501.066 486.924 506.856 480.111C504.675 465.534 497.141 456.486 481.416 458.086C475.281 459.41 471.218 462.081 467.713 467.392C465.507 470.735 463.451 477.006 464.295 481.048C465.618 487.356 469.454 492.853 474.918 496.271C480.256 499.676 483.813 499.434 489.894 498.509ZM466.926 493.408L465.498 494.562C457.125 501.433 454.564 512.942 460.955 522.281C461.54 523.136 466.026 528.836 465.987 524.849L465.981 523.924C464.492 513.095 467.965 505.906 477.512 500.733C470.953 497.081 471.84 496.855 466.926 493.408ZM517.874 528.778L519.001 528.632C530.019 531.66 538.198 543.348 535.142 554.737C539.045 554.427 541.586 555.679 546.24 554.454C563.744 549.849 567.885 526.728 553 516.576C549.401 514.122 545.088 513.421 540.82 512.383C533.022 521.551 531.255 520.01 521.118 523.315C520.541 523.183 519.892 523.056 519.339 522.885L518.938 522.822C513.744 521.945 511.443 521.183 506.779 518.499L505.053 517.867C501.831 513.237 499.628 509.451 496.95 504.517C487.813 500.045 476.638 499.996 470.945 509.504C457.513 531.94 492.213 549.542 503.386 525.193L505.255 526.488C505.066 527.045 504.216 528.742 504.251 529.095C504.493 529.373 513.473 526.682 517.874 528.778ZM536.599 460.705C525.871 462.218 522.362 466.377 519.172 476.454C530.439 477.526 536.659 481.094 541.679 491.131C541.931 491.876 542.823 494.887 543.285 495.262C543.845 495.346 544.544 494.754 544.996 494.534C559.712 487.372 557.807 466.759 542.462 461.758C540.29 461.05 538.823 460.944 536.599 460.705ZM510.724 450.198L508.497 450.502C502.756 451.31 500.001 454.277 496.512 458.189C506.349 464.898 507.829 468.064 508.446 479.663C510.361 478.733 510.849 478.554 512.854 477.96C514.078 477.529 516.07 477.334 516.867 476.994C516.882 476.961 517.183 474.448 517.377 473.724C519.368 466.296 522.489 463.816 528.668 459.856C525.174 455.434 520.823 451.124 514.753 450.485C513.413 450.351 512.069 450.255 510.724 450.198ZM468.85 531.785L468.621 532.693C464.738 547.76 475.95 557.098 490.264 557.163C490.632 556.795 490.173 555.072 490.117 554.604C489.488 547.181 489.363 545.514 492.962 538.857L492.902 538.648C493.598 539.022 478.435 540.166 476.207 537.109C477.286 538.59 468.368 531.437 468.85 531.785ZM494.615 500.756C499.638 503.227 496.944 498.549 496.243 498.782C495.207 498.92 493.481 499.032 492.592 499.207L493.004 499.178L492.226 499.376C492.262 500.048 493.889 500.32 494.615 500.756Z"/><path d="M505.053 517.867L506.779 518.499C506.334 521.129 505.646 523.891 505.255 526.488L503.386 525.193C503.763 524.173 504.308 522.549 504.483 521.498L505.053 517.867Z"/><path d="M519.339 522.885C519.892 523.056 520.541 523.183 521.118 523.315C520.436 525.129 520.017 527.083 519.001 528.632L517.874 528.778C517.621 526.21 518.328 525.303 519.339 522.885Z"/><path d="M567.463 509.109C568.071 509.739 568.687 510.362 569.309 510.978C568.673 515.026 565.47 520.627 561.762 522.468C561.485 521.701 561.294 521.425 560.9 520.694C565.744 515.318 565.227 515.788 567.463 509.109Z"/><path d="M378.443 478.107L380.062 477.661C380.199 486.605 379.757 495.57 379.552 504.5C379.427 509.959 379.613 515.315 379.281 520.811C378.241 516.864 378.929 509.19 378.758 504.739C378.356 509.506 379.008 516.573 378.054 520.786C377.426 508.874 377.891 490.102 378.443 478.107Z"/><path d="M846.3 939.606C848.22 939.784 851.574 939.959 853.028 941.508C853.309 941.807 853.823 942.625 854.283 942.324C854.461 941.913 853.819 940.681 854.283 940.611C855.123 940.486 856.648 940.328 857.422 940.711C857.696 941.18 857.537 956.97 857.469 959.016C857.405 960.595 857.401 962.176 857.458 963.755C857.474 964.254 857.815 965.856 857.003 965.935C854.043 966.221 854.305 965.883 854.414 963.125C854.378 960.473 854.312 958.266 854.159 955.63C849.826 958.131 847.912 958.645 843.109 955.763L842.248 955.262C838.329 948.681 838.369 942.629 846.3 939.606ZM850.882 954.841L851.525 954.406C856.953 950.915 854.472 942.711 847.127 942.451L846.36 942.919C842.818 944.99 842.127 948.559 844.219 952.179C845.605 954.576 848.427 954.623 850.882 954.841Z"/><path d="M809.682 939.592C811.226 939.803 814.156 940.903 815.285 940.657C816.157 940.467 819.973 939.646 819.829 941.27C819.135 949.099 819.931 957.123 819.383 964.901C819.353 965.324 817.091 965.553 816.832 965.061C816.168 963.974 816.442 961.114 816.427 959.875C816.406 959.112 816.588 956.708 815.828 956.249C816.382 956.216 812.668 957.125 812.757 957.103C808.479 958.303 803.02 955.935 802.15 951.213C800.94 944.648 803.665 941.054 809.682 939.592ZM811.751 954.481C814.834 954.05 817.027 951.262 816.721 948.164C816.415 945.066 813.719 942.762 810.611 942.942C808.485 943.065 806.597 944.342 805.693 946.27C804.789 948.198 805.013 950.466 806.277 952.179C807.541 953.893 809.642 954.776 811.751 954.481Z"/><path d="M113.467 935.394C113.586 935.811 113.874 938.336 113.404 938.381C109.088 938.791 104.452 938.516 100.06 938.585C100.076 940.621 100.071 942.515 100.131 944.559C101.723 944.575 111.536 944.46 112.205 944.721C112.325 944.892 112.463 947.252 112.176 947.293C108.616 947.794 103.666 947.521 100.046 947.598C100.123 949.514 100.209 951.657 100.24 953.561L109.625 953.542C110.478 953.54 114.354 953.483 114.368 953.656C114.49 955.219 115.116 957.126 112.519 956.941C107.133 956.558 101.79 956.781 96.5691 956.83C96.4065 949.994 96.4851 942.468 96.5454 935.599C101.906 935.405 108.141 935.192 113.467 935.394Z"/><path d="M253.617 951.076C253.567 947.598 254.545 940.76 247.189 943.7C242.995 945.376 245.203 953.099 244.34 956.565C244.18 956.672 240.809 957.438 240.891 955.784C241.247 948.655 240.719 941.34 241.175 934.23C241.207 933.735 243.96 933.63 244.268 934.209C244.967 935.867 244.292 938.643 244.55 940.499C244.687 941.487 244.313 941.342 244.77 942.266L244.766 942.268C246.165 941.509 246.457 940.315 249.499 940.19C251.679 940.101 254.035 940.591 255.737 942.019C257.544 944.976 257.253 945.976 257.116 949.999C257.091 950.717 258.448 960.298 253.776 956.255C253.407 955.937 253.582 951.853 253.617 951.076Z"/><path d="M729.078 935.241C730.134 935.219 731.191 935.21 732.248 935.213C732.578 935.215 735.157 935.111 735.375 935.303C735.596 935.621 735.743 938.303 735.373 938.335C731.458 938.673 726.991 938.499 723.061 938.536C723.106 940.538 723.116 942.541 723.09 944.543L732.009 944.557C735.45 944.553 735.686 947.882 730.125 947.923C727.834 947.976 725.543 947.996 723.252 947.983C723.218 950.756 723.327 953.961 722.927 956.68C722.823 957.384 719.618 956.92 719.597 956.804C719.17 954.386 719.548 951.335 719.487 948.75C719.384 944.377 719.398 939.954 719.454 935.579C722.744 935.4 725.795 935.331 729.078 935.241Z"/><path d="M300.978 932.932C308.243 933.208 305.792 936.324 308.362 941.064C310.081 944.234 310.724 941.532 309.614 945.211C309.576 945.335 311.81 953.923 312.301 954.72C315.32 957.281 314.999 951.486 316.255 950.608C316.749 950.663 317.506 950.788 317.519 951.492C317.568 954.148 317.014 957.202 314.003 957.897C308.929 959.067 307.93 952.008 307.292 948.569C307.256 948.153 307.306 947.29 306.908 946.968C306.511 946.648 306.129 947.419 305.984 947.685C304.826 949.794 303.77 951.957 303.171 954.302C303.141 954.495 302.56 956.651 302.342 956.813C301.869 957.164 299.49 957.484 299.701 956.295C300.598 951.222 302.938 947.406 305.972 943.407C305.322 941.225 304.668 938.406 303.624 936.431C302.984 935.222 301.542 935.96 300.814 936.54C299.752 937.05 300.389 940.433 299.984 940.462C294.893 940.823 299.108 934.519 300.978 932.932Z"/><path d="M162.33 934.214C167.421 935.009 165.388 935.552 165.632 942.583C168.842 940.498 173.523 938.608 176.815 942.164C179.563 945.133 178.284 952.208 178.491 956.012C178.537 956.854 175.233 956.883 175.266 955.892C175.056 953.023 175.311 950.125 175.252 947.201C174.311 944.058 172.339 942.198 168.736 943.317C163.489 944.946 166.442 952.569 165.615 956.22C165.527 956.611 162.117 957.54 162.117 955.771L162.33 934.214Z"/><path d="M786.326 933.397C787.642 934.714 787.042 944.729 787.003 947.204C789.162 945.139 791.562 943.242 793.595 941.121C794.538 940.136 798.051 940.117 798.445 940.752C798.078 941.857 793.357 945.263 792.597 946.299C794.638 949.734 796.359 952.308 798.623 955.604C799.759 958.508 794.583 957.103 794.235 954.516C794.138 953.797 790.936 949.619 790.174 948.588L789.703 949.086C786.017 952.905 786.72 954.789 784.82 959.566C782.6 952.53 784.108 946.522 783.577 939.249C783.51 938.331 783.412 934.872 783.643 934.117C784.054 933.808 785.728 933.546 786.326 933.397Z"/><path d="M267.735 939.56C274.533 940.038 281.04 946.001 273.742 945.552C272.321 945.465 272.872 943.038 269.742 942.632C264.279 941.922 262.247 949.656 265.095 952.955C266.077 954.085 267.5 954.735 268.998 954.737C270.103 954.738 270.952 954.43 271.691 953.659C272.39 952.842 273.07 951.557 274.236 951.344C274.734 951.147 277.342 950.967 276.817 952.183C275.604 956.219 268.666 958.772 264.995 956.633C256.263 951.545 259.255 942.449 267.735 939.56Z"/><path d="M188.462 933.54C189.954 933.485 197.041 932.624 195.415 936.015C194.726 937.45 189.725 935.212 188.989 938.245C188.693 939.464 188.057 939.973 189.689 940.219C190.783 940.384 194.091 939.936 194.266 941.172C194.821 944.584 191.556 943.315 189.081 943.527C189.026 946.15 189.013 948.774 189.042 951.397C189.028 952.597 189.312 955.079 188.689 956.202C188.4 956.723 186.171 956.886 186.088 956.69C184.828 953.687 185.981 949.314 185.528 946.004C185.444 945.389 185.783 944.307 185.251 943.735C184.702 943.185 183.662 943.56 183.001 943.38C182.666 943.349 181.814 943.037 181.707 942.668C180.782 939.469 183.463 940.945 185.188 940.417C185.394 940.354 185.48 939.716 185.461 939.524C185.247 937.325 186.109 935.552 187.754 934.164L188.462 933.54Z"/><path d="M893.48 929.743C893.372 931.008 892.2 934.01 891.618 935.284C889.044 940.925 887.11 946.751 884.734 952.472C883.898 954.486 882.805 956.749 882.089 958.765C880.819 962.342 881.632 961.813 877.816 962.206C877.568 960.289 878.735 958.709 879.542 956.715C883.09 947.95 886.383 939.042 890.237 930.413C890.494 929.838 892.538 929.859 892.971 929.807L893.48 929.743Z"/><path d="M292.236 930C292.86 929.994 295.406 929.801 295.853 930.084C295.756 929.604 283.903 958.879 282.818 961.789C282.144 961.796 280.364 961.929 279.956 961.233C280.188 958.293 290.318 934.245 292.236 930Z"/><path d="M913.953 930.517C914.442 930.517 916.618 930.442 916.997 930.575C928.372 934.581 914.459 941.803 912.366 943.437C913.486 943.441 922.095 943.081 921.45 944.748C920.708 945.319 913.938 945.152 912.376 945.186C903.729 945.207 917.514 937.292 917.925 936.885C921.661 933.186 914.805 931.283 912.688 933.813C912.074 934.548 910.903 936.15 909.675 935.734C908.785 933.611 912.383 931.246 913.953 930.517Z"/><path d="M898.452 956.921C898.396 956.917 896.991 956.86 896.745 956.701C896.602 956.168 896.461 940.811 896.945 940.508C899.071 939.179 901.123 940.228 900.194 943.301C900.081 943.675 904.933 939.544 906.212 939.874C906.623 940.286 906.781 943.669 905.824 944.535C904.182 943.855 904.435 942.53 902.285 944.168C900.642 945.42 900.137 945.909 899.983 947.952C897.96 948.561 898.155 955.409 898.375 955.974L898.547 956.04C898.716 956.393 898.595 956.481 898.452 956.921Z"/><path d="M127.997 942.017C130.117 942 146.537 941.743 147.382 942.108C147.735 942.652 147.592 944.611 147.608 945.233C141.379 944.919 134.607 945.502 128.497 944.731C128.09 944.68 128.007 942.161 127.997 942.017Z"/><path d="M225.833 945.114C220.8 945.02 215.681 945.095 210.749 945.023C209.077 944.998 206.828 945.571 206.918 944.03C206.912 944.129 206.945 942.696 207.188 942.576C212.937 941.873 219.629 942.348 225.557 942.101C225.767 942.092 226.101 942.226 226.106 942.228C226.396 942.687 226.564 944.35 226.667 944.901L225.833 945.114Z"/><path d="M749.57 942.213C753.591 941.979 763.133 941.753 767.545 942.334C768.257 942.427 768.74 944.319 768.935 944.957C762.846 945.01 755.79 945.231 749.795 944.705C749.55 944.684 749.559 943.32 749.563 943.129L749.57 942.213Z"/><path d="M225.286 949.483L226.197 949.546C226.148 950.123 226.161 951.877 225.795 952.37C224.224 952.973 209.717 952.198 207.351 952.36C207.142 952.375 206.117 949.781 208.222 949.736C213.901 949.612 219.605 949.67 225.286 949.483Z"/><path d="M140.838 949.741C142.596 949.545 144.925 949.705 146.693 950.007C147.481 950.141 146.996 952.335 146.833 952.349C142.834 952.676 138.475 952.464 134.409 952.487C132.562 952.502 130.599 952.638 128.781 952.403C127.959 952.297 128.235 950.303 128.429 950.265C132.2 949.523 136.866 949.929 140.838 949.741Z"/><path d="M748.995 950.13C754.955 949.837 761.626 949.78 767.578 950.222C767.828 950.24 768.028 951.893 768.09 952.127C766.335 952.624 764.293 952.487 762.44 952.475C758.418 952.447 754.324 952.617 750.31 952.42C749.947 952.402 749.052 950.25 748.995 950.13Z"/><path d="M863.628 962.92C865.017 962.091 872.843 957.006 871.29 954.498C868.005 949.191 862.029 959.164 861.999 954.337C861.978 951.056 876.197 950.329 872.928 957.693C872.618 958.391 865.767 963.194 864.388 964.226C864.135 963.791 863.881 963.355 863.628 962.92Z"/><path d="M831.784 948.387C832.593 952.362 831.774 959.574 831.824 963.853C831.827 964.11 830.463 964.217 830.336 963.92C829.82 962.712 830.142 960.208 830.158 958.875C830.207 949.554 830.919 952.853 823.509 952.883C826.753 951.257 828.83 950.506 831.784 948.387Z"/><path d="M863.628 962.92C863.881 963.355 864.135 963.791 864.388 964.226C866.538 964.278 868.713 964.551 870.998 964.472C872.082 964.093 874.202 965.346 872.666 966.314C872.709 966.287 862.426 965.995 862.158 965.838C861.668 965.005 863.182 963.475 863.628 962.92Z"/><path d="M898.452 956.921C898.595 956.481 898.716 956.393 898.547 956.04L898.375 955.974C898.155 955.409 897.96 948.561 899.983 947.952C900.011 949.032 900.195 955.971 899.936 956.623C899.535 956.899 898.916 956.875 898.452 956.921Z"/><path fill="#FEFEFE" fill-opacity="0.23137255" d="M225.833 945.114L226.667 944.901L226.466 947C226.349 947.851 226.24 948.688 226.197 949.546L225.286 949.483C223.456 947.042 225.662 946.745 225.833 945.114Z"/></svg>