<?xml version="1.0" encoding="utf-8" ?><svg xmlns="http://www.w3.org/2000/svg" xmlns:xlink="http://www.w3.org/1999/xlink" width="1024" height="1024" viewBox="0 0 1024 1024"><defs><filter id="kw"><feColorMatrix type="matrix" values="-1 0 0 0 1  0 -1 0 0 1  0 0 -1 0 1  -0.3333 -0.3333 -0.3334 1 0"/></filter></defs><g filter="url(#kw)"><path d="M499.66 132.282C501.66 134.235 509.916 158.34 511.451 162.586L503.47 162.508C503.395 172.372 503.401 182.236 503.486 192.101C587.284 194.07 667.322 227.284 727.892 285.226C793.481 348.263 834.563 435.63 836.299 526.998L866.717 526.852C865.761 523.689 865.354 520.531 864.837 517.269C872.442 519.762 889.661 526.155 896.707 529.618C890.676 532.825 873.579 539.685 866.628 542.604L866.793 533.834C856.791 533.679 846.465 533.759 836.443 533.727C835.793 598.747 820.085 656.585 784.955 711.512C772.399 731.388 758.334 750.568 741.563 767.145C676.298 831.657 595.348 867.64 503.364 867.51C503.103 877.901 503.016 890.166 503.371 900.47L511.21 900.557C508.42 909.994 504.694 920.163 501.464 929.532C500.91 931.333 500.756 932.111 499.755 933.749C498.194 932.619 489.511 904.736 488.041 900.45L496.655 900.391C496.824 889.439 496.901 878.486 496.887 867.533C413.053 867.377 333.319 832.687 272.547 775.609C215.575 722.1 178.685 650.664 168.038 573.233C166.264 559.916 165.9 546.952 165.478 533.556C156.274 533.505 147.07 533.549 137.867 533.688C137.888 536.821 138.221 539.964 138.486 543.09C128.123 538.536 117.689 534.144 107.188 529.917C115.838 525.78 129.202 520.634 138.212 517.064L137.708 526.967L165.436 526.963C165.761 448.306 199.929 364.711 253.085 306.969C319.724 234.58 398.219 196.268 496.646 192.201C496.817 182.603 496.627 172.389 496.607 162.745L488.594 162.855C492.541 152.855 495.61 142.408 499.66 132.282Z"/><path fill="white" d="M503.507 533.809C532.233 533.181 562.649 533.903 591.554 533.834L830.545 533.557C830.307 620.801 795.622 704.42 734.037 766.217C672.793 827.238 589.871 861.515 503.415 861.548L503.377 643.595C502.955 640.871 503.003 642.864 503.435 639.969L503.507 533.809Z"/><path fill="#231A18" d="M503.435 639.969C504.635 639.99 509.223 639.784 509.682 640.523C512.442 644.977 504.331 643.582 503.377 643.595C502.955 640.871 503.003 642.864 503.435 639.969Z"/><path d="M788.239 633.624C791.913 635.15 789.381 636.671 790.004 636.976C793.757 638.812 795.596 642.42 792.911 646.938C791.587 649.166 788.315 649.339 785.948 649.894C785.279 650.051 785.22 652.548 783.731 654.072C779.99 651.375 785.185 650.466 782.259 649.506C777.763 648.03 777.047 642.702 779.91 639.446C784.915 633.755 785.291 640.607 788.239 633.624Z"/><path fill="white" d="M785.24 638.816C787.135 640.39 784.137 646.184 782.884 647.62C780.169 643.745 781.174 641.198 785.24 638.816Z"/><path fill="white" d="M788.983 639.356C791.536 641.434 792.121 643.712 790.158 646.563L789.656 647.312C789.422 647.273 786.967 647.019 786.936 646.686C786.755 644.761 788.321 641.03 788.983 639.356Z"/><path d="M750.727 637.094C754.306 637.247 757.605 638.012 758.211 641.895C759.077 647.45 756.135 648.593 752.133 649.41C742.441 648.961 741.533 638.904 750.727 637.094Z"/><path fill="white" d="M751.239 640.175C752.829 640.05 754.25 641.162 754.51 642.736C754.771 644.309 753.784 645.82 752.239 646.214C751.115 646.5 749.925 646.129 749.163 645.254C748.401 644.379 748.198 643.149 748.637 642.075C749.076 641.001 750.082 640.266 751.239 640.175Z"/><path d="M762.801 637.145C764.762 637.092 769.301 636.254 769.783 638.697C768.206 641.385 765.137 638.14 763.168 640.581C763.632 641.535 765.042 641.953 766.003 641.928C771.577 641.777 772.37 647.71 766.782 649.192L765.82 649.461C764.568 649.425 758.051 649.486 759.768 646.53C760.686 644.95 767.157 648.101 766.421 645.492C766.124 644.443 760.064 644.328 759.6 642.004C758.946 638.73 760.114 637.973 762.801 637.145Z"/><path d="M736.359 637.036C739.555 637.072 747.987 638.643 740.929 641.48C740.644 641.424 740.374 641.305 740.14 641.131C738.186 639.713 735.906 640.262 735.718 642.218C735.063 649.044 740.478 645.206 741.482 644.869C742.3 645.457 745.378 646.977 743.495 647.981C741.144 649.219 738.63 649.962 736.005 648.991C729.656 646.643 730.553 639.583 736.359 637.036Z"/><path d="M708.497 633.833C708.817 633.858 711.184 633.872 711.222 634.065C711.724 636.611 711.467 640.706 711.466 643.312C706.936 643.413 702.406 643.451 697.875 643.425C693.537 643.345 695.058 639.698 697.214 639.683L708.097 639.633C708.282 637.684 708.385 635.786 708.497 633.833Z"/><path d="M519.57 639.898C523.065 639.897 531.535 639.642 535.173 640.116C535.518 640.161 535.62 642.54 535.675 643.005L535.737 643.502C533.282 643.565 523.134 643.917 520.216 643.339C519.891 643.275 519.734 640.983 519.651 640.421L519.57 639.898Z"/><path d="M569.522 639.952C574.345 639.94 580.431 639.711 585.256 640.132C585.608 640.163 585.503 643.176 585.505 643.367C581.11 643.391 574.184 643.809 569.84 642.992C569.496 642.927 569.535 640.234 569.522 639.952Z"/><path d="M670.019 639.937C673.401 639.899 677.011 639.764 680.377 639.879C684.275 640.011 685.361 638.773 685.355 642.41L685.373 643.421C681.969 643.419 678.49 643.546 675.097 643.451C669.853 643.306 670.236 644.534 670.019 639.937Z"/><path d="M594.19 639.939C599.318 640.012 604.707 639.801 609.767 640.194C610.077 640.218 610.313 643.141 610.328 643.251C605.355 643.324 599.726 643.585 594.822 643.131C594.48 643.099 594.233 640.226 594.19 639.939Z"/><path d="M708.098 610.232C708.442 610.289 711.12 610.541 711.159 610.932C711.632 615.711 711.437 621.484 711.328 626.35C710.753 626.257 708.53 626.06 708.447 625.656C707.847 622.754 708.067 612.807 708.098 610.232Z"/><path d="M619.575 640.025C621.889 640.034 632.376 639.678 635.117 640.361C635.484 640.452 635.341 642.513 635.316 643.124C631.599 643.207 627.805 643.361 624.088 643.299C619.325 643.22 619.774 644.194 619.575 640.025Z"/><path d="M544.595 640.038C549.176 639.98 555.139 639.712 559.742 640.166C560.018 640.193 560.183 642.888 560.195 643.015C555.625 643.416 549.786 643.605 545.207 643.187C544.856 643.155 544.634 640.316 544.595 640.038Z"/><path d="M644.509 640.031C649.256 639.952 655.457 639.761 660.212 640.204C660.464 640.227 660.56 643.12 660.568 643.238C656.064 643.21 649.876 643.567 645.364 643.002C645.008 642.957 644.607 640.443 644.509 640.031Z"/><path d="M708.052 540.249C708.412 540.297 711.133 540.512 711.166 540.795C711.655 545.032 711.382 551.536 711.249 555.732C711.087 555.711 708.33 555.504 708.298 555.25C707.717 550.631 708.063 544.959 708.052 540.249Z"/><path d="M710.693 586.846C712.15 588.854 711.125 599.283 711.248 602.15C711.257 602.371 709.99 602.769 709.88 602.805L709.046 603.102C707.257 600.736 708.305 591.043 708.238 587.839C708.231 587.497 709.487 587.18 709.728 587.117L710.693 586.846Z"/><path d="M708.119 563.147C708.129 563.15 709.174 563.437 709.188 563.434C709.29 563.417 710.701 563.745 710.783 563.92C711.787 566.06 711.186 577.051 711.173 579.382C711.02 579.358 708.32 579.072 708.298 578.821C707.871 573.913 707.965 568.106 708.119 563.147Z"/><path fill="white" d="M171.437 533.653L496.555 533.7L496.807 860.396C496.756 860.584 496.337 861.174 496.21 861.368C487.065 862.556 463.11 859.453 453.506 858.061C384.536 848.059 320.728 815.778 271.811 766.14C209.345 703.494 171.357 623.025 171.437 533.653Z"/><path d="M478.115 549.078C491.838 550.066 489.598 567.597 480.807 569.658L479.877 569.891C467.136 569.128 468.353 551.859 477.188 549.364L478.115 549.078Z"/><path fill="white" d="M477.909 552.802C484.536 554.084 483.747 562.146 480.481 565.432L479.86 566.094C474.161 564.459 474.402 556.934 477.365 553.475L477.909 552.802Z"/><path fill="white" d="M486.384 198.711C489.194 198.445 493.7 198.504 496.646 198.46C497.612 266.677 497.053 336.203 497.027 404.493L496.874 483.054C496.868 496.865 497.367 513.564 496.762 527.123L182.75 527.12L171.57 527.138C170.468 451.341 204.195 372.364 253.069 315.218C264.367 302.253 276.626 290.157 289.74 279.032C335.284 239.141 391.022 212.7 450.728 202.663C462.687 200.664 474.311 199.65 486.384 198.711Z"/><path fill="white" d="M708.241 299.595L710.07 299.411C713.893 296.688 709.325 283.664 711.52 279.963C713.216 279.996 715.011 281.854 716.377 283.072C764.291 326.191 799.303 381.757 817.521 443.588C826.71 474.293 829.014 495.098 830.922 527.177L711.428 527.235L711.441 523.74C711.463 521.559 711.709 519.414 709.648 518.119C707.381 519.991 707.939 524.309 707.987 527.039L506.947 527.049C528.267 502.387 548.529 475.942 570.016 451.259C589.061 429.381 608.204 407.832 626.694 385.461C651.036 356.011 674.784 324.407 699.923 295.733C701.492 297.008 703.066 298.402 704.606 299.723C705.578 296.602 706.25 294.386 707.581 291.394C709.185 287.446 708.286 299.2 708.241 299.595Z"/><path fill="#EBEFEF" d="M707.581 291.394C709.185 287.446 708.286 299.2 708.241 299.595C707.835 296.299 708.374 294.697 707.581 291.394Z"/><path d="M786.664 439.747C789.42 441.889 785.269 441.209 789.104 443.753C792.489 446 792.02 450.747 789.617 453.613C787.94 456.526 783.993 454.545 783.225 457.023C782.626 458.956 782.393 458.838 780.44 459.526C778.135 456.479 783.316 457.847 778.507 455.041C773.302 452.003 777.416 442.127 783.993 442.919C784.542 442.985 784.966 440.95 786.062 440.191L786.664 439.747Z"/><path fill="white" d="M786.651 445.696C786.939 445.882 787.227 446.069 787.515 446.255C788.224 446.793 788.667 447.61 788.734 448.497C788.906 450.619 787.775 451.954 786.559 453.497L786.103 453.46C782.659 453.135 785.762 447.958 786.651 445.696Z"/><path fill="white" d="M782.295 445.211C784.848 446.179 781.798 451.798 780.94 453.9C778.417 449.864 778.448 448.348 782.295 445.211Z"/><path d="M754.637 443.15C756.108 443.413 756.986 443.105 757.722 444.27C757.201 444.092 765.95 441.391 766.456 447.003C766.639 449.034 766.862 453.118 766.237 455.072C766.177 455.26 765.385 455.367 765.243 455.34C762.148 455.909 762.964 453.362 762.902 450.377C763.031 447.335 762.643 446.346 758.974 446.984C755.89 447.52 761.139 457.498 754.665 455.187C753.875 454.905 754.379 445.381 754.637 443.15Z"/><path d="M737.859 443.575C742.643 443.478 743.591 443.741 747.979 445.264C746.212 445.562 739.013 446.038 738.524 447.147C739.053 448.411 741.51 447.974 742.744 448.532C747.486 450.675 745.919 454.081 741.756 455.782C739.81 455.659 737.322 455.645 735.476 455.138C734.517 454.875 734.981 453.141 735.386 452.655C736.358 451.156 739.794 453.818 740.723 453.141C744.211 450.598 736.165 451.52 735.064 449.008C733.608 445.685 735.398 444.859 737.859 443.575Z"/><path d="M707.934 330.925C708.352 330.974 711.19 331.062 711.232 331.555C711.606 335.973 711.46 342.075 711.321 346.43C707.069 346.145 708.125 346.777 707.95 341.761C707.824 338.171 707.778 334.512 707.934 330.925Z"/><path d="M708.11 447.398C708.121 447.399 709.178 447.487 709.185 447.48C709.216 447.449 711.226 447.485 711.259 447.781C711.675 451.534 711.504 460.139 711.381 463.56C711.094 463.52 708.527 463.369 708.467 462.993C707.724 458.355 708.096 452.158 708.11 447.398Z"/><path d="M708.015 400.418C712.601 400.72 711.221 400.494 711.391 405.776C711.502 409.243 711.381 412.866 711.343 416.343C710.905 416.342 708.307 416.576 708.256 415.965C707.872 411.376 708.013 404.918 708.015 400.418Z"/><path d="M708.247 494.256C708.474 494.283 711.242 494.426 711.263 494.782C711.53 499.385 711.672 506.094 711.31 510.555C711.17 510.535 708.325 510.32 708.291 509.916C707.873 504.94 708.153 499.294 708.247 494.256Z"/><path d="M708.135 377.144C709.048 377.342 709.961 377.541 710.875 377.739C711.74 382.012 711.332 388.999 711.165 393.334C710.985 393.315 708.322 393.185 708.29 392.886C707.791 388.352 707.829 381.677 708.135 377.144Z"/><path d="M708.139 424.291C708.282 424.297 711.173 424.239 711.207 424.618C711.638 429.494 711.437 435.118 711.389 440.064C711.038 440.047 708.518 440.105 708.453 439.652C707.822 435.246 708.121 428.687 708.139 424.291Z"/><path d="M708.026 354.216C712.439 354.752 711.143 354.323 711.257 359.658C711.327 362.946 711.175 366.334 711.169 369.635C707.006 369.852 708.162 370.076 708.005 365.246C707.887 361.624 707.997 357.846 708.026 354.216Z"/><path d="M708.365 470.639C708.513 470.662 711.172 470.939 711.202 471.223C711.712 476.107 711.427 481.751 711.449 486.751C710.535 486.72 709.621 486.689 708.707 486.658C707.94 481.916 708.291 475.541 708.365 470.639Z"/><path d="M708.005 308.335C708.217 308.344 711.139 308.238 711.18 308.741C711.544 313.284 711.344 318.347 711.278 322.941C711.138 322.939 708.276 323.056 708.239 322.706C707.758 318.126 707.992 313.001 708.005 308.335Z"/><path d="M747.549 443.355C752.303 443.851 751.157 443.033 751.365 448.646C751.451 450.953 751.375 453.348 751.374 455.66C747.203 455.371 747.504 456.094 747.56 451.612C747.593 448.906 747.569 446.067 747.549 443.355Z"/><path d="M747.592 437.74C748.438 437.017 749.696 437.062 750.489 437.843C751.282 438.623 751.346 439.881 750.637 440.738C750.12 441.363 749.295 441.643 748.505 441.461C747.715 441.28 747.095 440.669 746.901 439.882C746.708 439.095 746.975 438.266 747.592 437.74Z"/><path fill="white" d="M503.468 198.392C522.18 198.111 537.562 200.486 555.743 203.723C612.044 213.749 662.647 237.098 706.02 274.599C700.073 278.515 694.196 282.538 688.394 286.666C690.635 288.213 692.739 289.847 694.902 291.497C692 295.86 685.157 303.677 681.607 307.999L660.75 333.825C641.004 358.285 619.989 385.794 599.239 409.1C587.861 423.25 573.11 438.877 561.101 453.08C542.117 475.529 522.796 499.951 503.356 521.687C502.791 509.721 503.157 495.765 503.228 483.697L503.436 421.103L503.468 198.392Z"/><path d="M615.005 315.993C615.169 316.134 615.882 317.033 616.045 317.232C615.955 317.564 615.864 317.896 615.773 318.229C611.151 320.336 599.425 326.908 596.392 329.518C589.135 335.762 583.376 342.589 578.971 350.47C570.988 364.536 568.492 381.059 571.965 396.855C572.961 401.204 574.528 404.953 575.877 409.166C576.415 410.844 576.177 410.461 575.243 412.135C573.526 410.547 572.793 408.46 571.967 406.269C565.758 389.44 566.456 370.839 573.91 354.524C581.973 336.751 596.75 322.897 615.005 315.993Z"/><path d="M607.342 348.35C612.678 348.758 609.556 349.097 609.722 351.395C610.598 352.737 614.246 352.905 614.533 357.494C614.703 360.16 613.775 362.78 611.965 364.745C610.613 366.191 608.728 367.022 606.748 367.044C603.743 367.1 604.361 368.43 603.662 371.653C597.248 371.846 602.231 368.623 601.023 367.738C596.937 364.742 594.175 360.595 598.316 354.824C602.456 349.053 606.21 354.948 607.342 348.35Z"/><path fill="white" d="M608.992 353.791C612.71 357.987 610.96 362.025 607.169 365.385C606.963 365.292 605.59 364.812 605.646 364.443C606.143 361.162 607.756 356.857 608.992 353.791Z"/><path fill="white" d="M604.922 353.49C605.984 355.019 602.887 363.297 601.712 364.639C598.438 359.287 600.007 357.156 604.922 353.49Z"/><path d="M781.816 121.895C785.991 122.091 786.611 121.64 784.565 125.974C792.029 129.361 795.201 133.529 789.101 142.284C786.886 145.464 782.444 145.591 779.159 145.83C778.424 145.884 777.857 150.344 777.78 150.853C777.183 150.84 776.586 150.832 775.989 150.828C772.25 150.817 773.606 149.105 774.473 145.889C770.468 143.356 767.408 141.814 767.065 136.496C766.915 134.076 767.764 131.7 769.413 129.923C771.848 127.35 775.224 125.876 778.766 125.838C781.531 125.833 781.161 124.758 781.816 121.895Z"/><path fill="white" d="M778.413 129.451C779.066 130.549 777.002 140.985 774.467 141.541C770.107 136.295 772.357 131.692 778.413 129.451Z"/><path fill="white" d="M783.628 130.26C788.55 133.586 786.764 138.154 783.107 141.674C782.537 141.723 780.92 142.091 780.48 141.656C780.345 141.081 783.209 131.519 783.628 130.26Z"/><path d="M946.337 121.985C953.157 121.579 949.754 122.938 949.748 125.701C950.71 126.398 951.994 126.73 953.195 127.625C957.6 130.909 957.354 137.609 954.192 141.681C951.446 145.218 947.62 145.44 943.645 146.208C943.055 146.322 942.446 150.202 942.354 150.629C939.748 150.677 937.454 151.527 938.613 147.518C939.59 144.14 937.094 144.953 934.798 143.421C933.278 142.408 932.254 140.803 931.973 138.999C930.637 130.371 937.527 125.795 945.216 125.48C945.616 125.464 946.236 122.363 946.337 121.985Z"/><path fill="white" d="M941.253 129.836C941.894 129.929 943.164 129.93 943.548 130.325C943.78 131.186 942.938 133.61 942.688 134.527L942.429 135.494C941.702 138.135 941.601 139.383 940.004 141.566C935.335 137.594 936.294 132.968 941.253 129.836Z"/><path fill="white" d="M948.236 130.19C953.808 132.979 951.545 138.28 948.031 141.783C947.907 141.804 944.795 142.392 944.921 141.65C945.518 138.142 947.028 133.548 948.236 130.19Z"/><path d="M721.111 126.134C730.371 125.721 736.786 130.276 732.618 140.805C731.571 143.449 727.845 144.668 725.262 145.363C710.247 145.489 708.305 129.356 721.111 126.134Z"/><path fill="white" d="M722.561 130.834C724.307 130.485 726.106 131.109 727.26 132.466C728.414 133.822 728.742 135.698 728.116 137.366C727.491 139.034 726.01 140.231 724.249 140.494C721.617 140.887 719.151 139.109 718.693 136.487C718.235 133.866 719.951 131.357 722.561 130.834Z"/><path d="M623.811 125.388C624.066 125.437 625.779 125.637 626.023 125.813C627.469 126.714 623.886 128.725 625.903 129.625C631.022 131.909 630.792 137.895 627.721 141.89C625.425 144.878 622.775 146.273 618.986 146.578C618.475 146.619 617.04 151.589 616.744 152.431C611.964 151.067 616.624 149.194 616.269 146.104C615.595 145.31 614.285 145.075 613.438 144.262C609.677 140.653 611.534 134.869 614.768 131.516C617.627 128.553 619.368 129.75 622.798 129.154C623.425 129.045 623.736 125.84 623.811 125.388Z"/><path fill="white" d="M618.517 130.778C619.12 130.842 620.838 130.839 621.347 131.216C621.389 131.323 617.468 143.077 617.047 144.338C610.893 140.842 614.651 134.641 618.517 130.778Z"/><path fill="white" d="M624.674 131.284C629.744 134.814 625.964 141.17 622.325 144.225C621.651 144.204 620.667 144.418 620.116 143.916C619.604 142.351 623.76 133.121 624.674 131.284Z"/><path d="M56.1815 519.036C58.86 518.954 61.5399 518.924 64.2195 518.946C72.867 519.043 76.3495 526.155 69.4338 532.341C70.6594 534.033 71.7679 535.89 73.3034 537.327C73.5096 537.52 74.3679 537.794 74.2662 538.267C73.7684 538.395 73.8069 538.35 73.1251 538.375C72.6633 538.382 68.8757 538.509 68.7243 538.443C66.4993 537.475 65.5934 532.587 61.76 533.587C59.9316 534.203 62.2289 538.295 60.0355 538.505C58.9345 538.611 56.2667 538.919 56.2166 537.183C56.0454 531.253 56.5251 524.929 56.1815 519.036Z"/><path fill="white" d="M61.011 522.82C65.4012 522.758 69.8322 522.667 67.4223 528.38C59.9175 530.637 60.9543 529.121 61.011 522.82Z"/><path d="M896.352 126.086C897.951 126.042 900.711 125.78 902.256 126.194C902.528 126.267 902.254 127.21 902.734 127.676C903.937 127.161 903.91 126.37 905.737 126.017C911.003 124.891 916.402 127.983 916.431 133.748C916.437 135.012 916.865 144.476 915.97 144.717C908.89 146.627 910.649 142.503 910.654 137.946C910.651 135.665 911.521 131.072 906.752 131.042C897.031 130.981 908.559 149.424 896.77 144.519C896.173 144.271 896.2 128.596 896.352 126.086Z"/><path d="M492.129 962.479C498.335 962.46 494.873 962.558 497.237 963.685C499.332 962.304 502.102 961.378 504.671 963.164C506.957 964.753 506.299 962.796 508.492 962.532C510.49 962.29 513.536 961.985 515.156 963.235C516.188 964.023 516.848 965.202 516.982 966.493C517.122 967.824 517.317 975.399 516.679 976.68C515.206 977.261 512.422 978.001 512.345 975.743C512.12 969.177 514.375 968.411 509.014 965.557C503.637 971.717 511.093 978.515 502.804 976.784C501.405 976.492 504.652 965.314 499.753 966.511C493.436 968.053 501.515 980.239 492.58 976.68C491.861 976.392 492.127 963.916 492.129 962.479Z"/><path d="M742.101 126.121C746.887 125.793 748.034 126.113 752.771 127.027C752.041 128.314 751.546 129.419 750.875 130.705C748.475 130.6 745.267 130.161 742.992 131.018C742.456 131.22 741.448 132.201 742.005 132.698C743.558 134.552 749.13 133.779 750.634 134.818C757.406 139.49 751.045 144.18 746.271 145.584C742.932 145.56 739.775 145.695 736.876 143.77C735.343 142.992 736.849 139.251 738.322 140.211C741.031 141.975 752.921 140.811 744.498 138.061C741.581 137.109 736.815 137.339 735.809 133.494C734.659 129.096 738.678 127.04 742.101 126.121Z"/><path d="M873.591 125.652C877.354 126.01 881.906 125.9 880.314 129.96C879.613 131.749 880.203 131.802 878.273 130.939C876.588 130.186 873.409 130.256 871.638 130.645C869.756 132.061 872.089 133.411 873.498 133.473C876.522 133.607 882.19 134.724 882.418 138.511C882.773 144.417 876.516 145.283 872.106 145.58C868.721 145.191 861.99 144.678 866.217 140.674C867.603 139.361 870.996 141.853 873.247 141.093C873.689 140.944 875.487 141.02 875.951 139.938C876.677 135.635 866.082 139.275 865.35 133.521C864.745 128.768 867.707 126.638 871.5 125.992L873.591 125.652Z"/><path d="M699.921 126.141C716.217 124.954 710.413 135.473 706.053 131.963C699.908 127.016 695.406 134.827 698.853 139.132C701.767 142.77 704.984 139.778 707.452 138.416C711.308 140.706 713.128 141.204 706.998 144.476C699.793 148.323 688.562 140.558 692.838 131.931C694.471 128.637 696.571 127.432 699.921 126.141Z"/><path d="M569.095 144.65L568.678 144.908C564.539 147.515 559.33 147.67 557.807 142.299C556.096 136.266 560.993 128.005 567.1 126.306C571.709 125.024 576.722 128.13 573.852 132.883C571.386 136.965 567.042 138.462 562.479 138.144C562.243 138.146 561.615 138.543 561.581 138.781C560.731 144.686 564.707 144.747 568.474 143.505L569.095 144.65Z"/><path fill="white" d="M567.834 127.419C574.986 127.894 569.679 134.234 566.504 136.265C565.663 136.26 563.005 136.403 562.734 135.805C561.605 133.322 565.844 128.938 567.07 128.019L567.834 127.419Z"/><path d="M79.4702 523.604C84.9992 523.126 90.2088 523.661 89.9349 531.76C89.8915 533.046 79.2753 531.354 79.7353 533.127C80.3902 535.65 85.406 534.654 87.0624 534.469C89.2868 534.711 88.619 537.233 87.7355 537.701C78.1891 542.757 68.5932 529.584 78.6272 524.088L79.4702 523.604Z"/><path fill="white" d="M79.969 526.881C82.1493 526.833 85.7282 526.177 84.9269 529.513C82.606 529.503 79.0292 530.556 79.7917 527.608L79.969 526.881Z"/><path d="M815.999 123.333C821.749 123.535 819.78 124.907 819.797 131.395C821.732 131.358 825.218 130.927 826.981 131.623C827.799 131.945 827.774 134.297 827.28 134.65C826.028 135.547 821.387 135.121 819.898 135.138L819.947 143.243C813.95 143.445 816.169 141.698 815.811 134.986C815.018 134.977 809.671 135.146 808.831 134.792C807.964 134.426 808.022 131.772 809.005 131.571C810.598 131.246 814.188 131.445 816.023 131.44C816 128.738 815.992 126.035 815.999 123.333Z"/><path d="M924.961 518.729C926.816 518.721 928.671 518.737 930.525 518.777C930.524 522.331 930.69 533.88 930.252 538.035C930.196 538.56 926.937 538.477 926.167 538.509C924.421 536.442 926.623 525.684 925.231 523.014C924.738 522.07 921.665 524.425 922.251 520.249C922.452 518.813 922.466 518.88 924.138 518.79L924.961 518.729Z"/><path d="M885.587 126.569C887.531 126.554 889.476 126.558 891.421 126.58C891.427 132.504 891.545 139.138 891.296 145C890.624 145.006 886.007 145.222 885.929 144.687C885.18 139.601 885.561 131.737 885.587 126.569Z"/><path d="M844.027 126.475C845.096 126.461 848.608 126.027 849.406 126.711C850.053 127.264 849.718 142.778 849.714 144.84C847.776 144.851 846.012 144.854 844.071 144.784L844.027 126.475Z"/><path d="M483.511 957.792C484.395 957.796 487.606 957.621 487.836 958.246C488.96 961.298 488.436 974.078 488.377 977.057C487.966 977.082 483.715 977.395 483.679 976.814C483.303 970.625 483.456 964.029 483.511 957.792Z"/><path d="M637.703 117.719C642.044 120.989 641.96 125.863 641.1 130.759C639.868 137.772 636.578 141.859 631.321 146.29C630.738 146.422 629.872 146.706 629.31 146.594C628.964 146.269 629.423 145.999 629.662 145.786C634.711 141.261 637.641 134.145 638.468 127.5C638.908 123.959 638.249 121.159 637.703 117.719Z"/><path d="M594.548 106.848C594.876 106.941 595.315 107.072 595.242 107.163C588.983 114.923 584.421 123.836 587.313 134.062C587.975 136.404 587.895 135.908 587.411 136.438C579.041 128.048 585.465 112.385 594.548 106.848Z"/><path d="M497.603 96.1184C498.272 96.1253 501.47 95.7713 501.369 96.9558C501.14 99.6356 502.157 109.677 500.795 111.53C498.534 111.358 496.3 112.081 496.719 109.261C497.174 106.202 495.925 98.4073 497.603 96.1184Z"/><path d="M655.571 136.482C662.805 136.455 671.026 136.292 678.261 136.707C678.6 136.727 678.702 139.222 678.713 139.365C671.203 139.405 663.431 139.546 655.984 139.237C655.571 139.22 655.58 136.598 655.571 136.482Z"/><path d="M655.762 127.5C663.013 127.255 670.276 127.415 677.527 127.417C679.004 127.417 678.554 129.415 678.302 130.296C671.053 130.222 663.451 130.263 656.209 130.191C655.822 130.187 655.768 127.597 655.762 127.5Z"/><path d="M606.893 130.299C606.489 130.574 605.982 130.893 605.533 131.28C601.876 134.424 604.472 129.419 606.302 129.24C613.829 128.503 605.236 139.09 605.688 144.451C605.998 145.049 606.264 145.594 606.554 146.199C600.164 147.1 602.232 141.958 603.825 138.261C604.905 135.756 605.897 132.861 606.893 130.299Z"/><path d="M595.944 111.656C598.54 111.611 600.975 110.76 599.889 113.193C599.273 114.572 596.313 121.522 596.539 122.532C597.324 123.258 599.396 121.195 599.791 121.972C599.759 122.248 599.558 122.43 599.341 122.588L598.863 122.963C597.921 123.506 596.965 124.024 595.995 124.515C595.067 124.978 593.832 124.745 593.607 123.714C592.939 120.643 597.103 117.175 596.75 114.327C596.609 113.189 592.767 113.327 595.944 111.656Z"/><path d="M604.619 111.255C611.858 113.08 601.557 119.098 604.304 121.571C605.169 121.57 607.502 119.501 605.6 123.853C596.333 126.32 604.386 116.659 604.282 113.021C604.249 111.862 603.914 112.742 604.619 111.255Z"/><path d="M846.475 117.187C848.309 116.94 850.015 118.17 850.362 119.987C850.708 121.805 849.574 123.576 847.778 124.021C846.526 124.332 845.204 123.925 844.344 122.964C843.483 122.003 843.224 120.644 843.671 119.434C844.117 118.224 845.196 117.359 846.475 117.187Z"/><path d="M887.793 117.018L888.76 117.179C893.468 118.004 893.744 120.816 889.553 123.137C884.226 122.723 882.873 119.527 887.793 117.018Z"/><path d="M498.567 88.6798C500.065 88.3999 501.518 89.3518 501.859 90.8375C502.201 92.3232 501.309 93.8138 499.839 94.2162C498.832 94.4917 497.756 94.1935 497.035 93.4394C496.313 92.6853 496.063 91.5965 496.383 90.6031C496.702 89.6097 497.541 88.8714 498.567 88.6798Z"/><path d="M609.698 123.356C610.276 122.736 611.236 122.672 611.891 123.21C612.546 123.749 612.669 124.704 612.172 125.39C611.822 125.874 611.233 126.123 610.642 126.037C610.051 125.952 609.557 125.545 609.359 124.983C609.161 124.42 609.291 123.793 609.698 123.356Z"/><path d="M600.137 105.278C600.902 104.969 601.774 105.334 602.091 106.096C602.407 106.859 602.051 107.734 601.292 108.058C600.522 108.387 599.632 108.024 599.311 107.251C598.99 106.478 599.361 105.592 600.137 105.278Z"/><path d="M606.813 105.128C609.494 105.983 609.384 106.172 608.299 108.768C605.687 108.92 606.443 107.274 606.813 105.128Z"/><path fill="#231A18" d="M605.688 144.451C607.119 143.907 609.994 141.259 610.613 141.85C610.349 142.43 609.784 142.852 609.312 143.315C608.363 144.248 607.444 145.21 606.554 146.199C606.264 145.594 605.998 145.049 605.688 144.451Z"/><path fill="#231A18" d="M568.474 143.505C568.954 143.094 570.847 141.125 571.544 141.39C571.581 142.467 569.779 143.984 569.095 144.65L568.474 143.505Z"/></g></svg>