<?xml version="1.0" encoding="utf-8" ?><svg fill="#ffffff" xmlns="http://www.w3.org/2000/svg" xmlns:xlink="http://www.w3.org/1999/xlink" width="1024" height="1024" viewBox="0 0 1024 1024"><path fill="#ffffff" d="M592.254 189.5C603.654 190.989 592.816 206.754 595.896 210.874C597.295 210.426 599.236 208.958 600.469 207.852C608.985 200.215 623.87 192.031 634.582 200.354C642.259 206.318 642.123 219.519 642.803 228.882C652.05 221.008 656.718 209.393 670.635 206.543C683.979 203.81 695.163 211.825 695.682 225.523C696.602 249.816 691.369 275.226 684.883 298.548C683.86 302.176 681.197 313.729 676.611 313.506C665.002 312.942 674.13 295.446 675.516 288.861C679.525 269.824 684.946 250.66 685.204 231.068C685.283 224.646 684.4 221.03 679.873 216.578C664.823 215.966 658.016 225.355 650.267 236.81C645.449 245.107 640.692 253.759 637.516 262.83C634.845 270.46 633.596 278.536 632.09 286.46C631.501 289.56 631.156 293.303 629.982 296.195C629.299 297.878 628.162 299.401 626.639 300.406C625.09 301.428 623.027 301.97 621.194 301.52C618.822 300.939 617.696 298.997 617.669 296.68C617.594 290.04 621.347 280.468 623.107 273.842C626.353 261.616 636.433 221.009 630.104 210.546C628.897 208.551 627.026 207.358 624.744 206.953C605.686 203.573 585.519 253.655 580.647 268.538C578.643 274.659 578.095 281.202 575.955 287.271C575.212 289.378 574.178 292.198 572.193 293.395C570.757 294.261 568.936 294.459 567.329 294.028C565.842 293.63 564.487 292.722 563.865 291.27C562.6 288.312 564.277 282.349 564.96 279.272C569.477 258.913 576.753 239.098 581.699 218.807C583.208 212.616 585.051 196.843 587.604 192.362C588.704 190.433 590.273 190.092 592.254 189.5ZM689.491 243.254C689.476 244.396 689.388 245.167 689.27 246.312C689.478 247.072 689.693 247.83 689.915 248.586C690.451 245.591 690.475 244.374 690.733 241.378C691.565 239.206 690.875 232.53 690.522 230.221C690.113 233.787 689.478 239.694 689.491 243.254ZM601.946 215.501C603.276 214.314 605.911 212.948 604.838 211.427C603.958 212.247 600.843 214.428 601.946 215.501ZM574.248 270.956C574.425 269.624 574.492 268.889 574.83 267.578L573.679 267.553C573.586 267.955 573.626 267.986 573.678 268.43C573.486 269.256 572.424 272.594 573.218 273.2C573.656 273.007 574.082 271.396 574.248 270.956ZM586.61 219.234C586.201 220.441 583.978 226.418 584.896 227.241C586.3 227.398 587.112 221.372 587.259 220.261L586.61 219.234Z"/><path fill="#ffffff" d="M631.259 262.369C631.586 265.389 628.778 276.7 628.194 280.763C626.513 277.47 629.625 265.771 631.259 262.369Z"/><path fill="#ffffff" d="M636.74 224.859C637.271 227.642 636.465 236.875 635.661 239.767C634.378 237.103 635.353 227.663 636.74 224.859Z"/><path fill="#ffffff" d="M573.679 267.553C573.99 265.611 576.395 254.633 577.573 254.345L577.59 254.384C577.515 254.562 577.439 254.74 577.364 254.918L577.541 255.174C576.912 259.357 575.848 263.474 574.83 267.578L573.679 267.553Z"/><path fill="#ffffff" d="M689.915 248.586C690.005 249.414 688.668 262.54 687.572 258.484C687.521 258.295 689.097 247.126 689.27 246.312C689.478 247.072 689.693 247.83 689.915 248.586Z"/><path fill="#ffffff" fill-opacity="0.98823529" d="M690.522 230.221C690.875 232.53 691.565 239.206 690.733 241.378L690.574 240.891C690.484 240.595 690.392 240.427 690.265 240.267C689.958 240.501 689.628 242.697 689.491 243.254C689.478 239.694 690.113 233.787 690.522 230.221Z"/><path fill="#ffffff" fill-opacity="0.0078431377" d="M586.61 219.234L587.259 220.261C587.112 221.372 586.3 227.398 584.896 227.241C583.978 226.418 586.201 220.441 586.61 219.234Z"/><path fill="#ffffff" d="M663.02 215.515C663.309 215.811 663.238 215.698 663.316 215.871C663.277 216.078 657.777 220.706 656.862 221.62C654.819 219.692 661.467 216.397 663.02 215.515Z"/><path fill="#ffffff" d="M588.621 211.408C588.38 214.799 588.201 216.957 587.259 220.261L586.61 219.234C586.555 216.806 587.813 213.756 588.621 211.408Z"/><path fill="#ffffff" fill-opacity="0.24705882" d="M689.491 243.254C689.628 242.697 689.958 240.501 690.265 240.267C690.392 240.427 690.484 240.595 690.574 240.891L690.733 241.378C690.475 244.374 690.451 245.591 689.915 248.586C689.693 247.83 689.478 247.072 689.27 246.312C689.388 245.167 689.476 244.396 689.491 243.254Z"/><path fill="#ffffff" d="M644.875 237.433C644.816 239.796 643.096 241.264 641.433 242.856C640.993 240.885 643.491 238.957 644.875 237.433Z"/><path fill="#ffffff" fill-opacity="0.96470588" d="M604.838 211.427C605.911 212.948 603.276 214.314 601.946 215.501C600.843 214.428 603.958 212.247 604.838 211.427Z"/><path fill="#ffffff" fill-opacity="0.078431375" d="M573.678 268.43L574.248 270.956C574.082 271.396 573.656 273.007 573.218 273.2C572.424 272.594 573.486 269.256 573.678 268.43Z"/><path fill="#ffffff" fill-opacity="0.47058824" d="M573.678 268.43C573.626 267.986 573.586 267.955 573.679 267.553L574.83 267.578C574.492 268.889 574.425 269.624 574.248 270.956L573.678 268.43Z"/><path fill="#ffffff" d="M336.64 84.0474C340.875 83.5369 351.436 87.1289 356.544 88.1227C368.526 90.4573 380.574 92.4408 392.672 94.0707C396.544 94.5723 404.343 94.7874 406.86 95.2695C408.139 95.5107 409.305 96.1657 410.176 97.1339C414.317 101.797 408.475 108.072 403.137 107.348C383.806 104.725 364.128 100.879 344.787 98.2355C344.321 98.9423 343.049 100.903 342.853 101.691C340.418 111.841 337.381 123.006 334.415 132.889C329.336 149.808 326.959 154.889 347.597 157.101C356.541 158.06 367.244 159.397 376.274 160.834C378.225 161.144 381.7 163.07 382.504 165.182C385.939 178.314 372.856 172.741 366.388 171.278C359.393 169.632 352.229 168.259 345.188 167.002C324.946 163.388 326.797 163.351 322.736 181.916C321.428 187.848 319.99 193.751 318.423 199.619C317.065 205.57 311.932 218.92 312.258 224.143C312.488 227.825 359.635 235.591 363.96 236.107C369.273 236.741 374.78 236.137 380.02 237.013C382.143 237.368 384.351 237.585 385.947 239.162C387.406 240.604 388.173 241.875 388.112 243.962C385.023 251.652 373.651 248.71 367.564 247.769C360.404 246.657 353.236 245.589 346.063 244.565C333.931 242.877 321.688 241.942 309.588 240.1C305.971 239.28 299.545 238.714 297.946 234.978C294.99 228.562 300.984 222.078 302.16 216.15C306.333 195.111 312.425 174.535 317.413 153.753C322.527 132.448 324.94 110.115 331.462 89.0778C332.418 85.9943 333.907 85.4425 336.64 84.0474ZM311.735 200.127C311.199 201.926 310.931 203.216 310.622 205.082L310.481 206.232C310.018 207.693 309.571 209.159 309.14 210.63C308.722 212.544 308.1 215.104 309.927 211.976C310.366 210.335 310.579 209.201 311.172 207.589L311.93 204.611C312.578 203.224 312.762 202.054 313.069 200.557C314.609 195.494 315.445 191.34 316.68 186.31C317.594 182.732 318.039 178.926 318.475 175.262C317.04 178.055 315.715 182.28 315.387 185.367C314.402 189.873 312.917 195.618 311.735 200.127ZM328.615 129.06C328.499 129.73 328.369 130.377 328.238 131.043L329.162 131.464C329.299 131.228 329.437 130.992 329.574 130.756C331.276 124.57 332.263 118.109 333.759 111.811C333.847 111.222 334.415 108.152 333.909 107.773C333.283 107.986 333.051 110.19 332.98 110.653C331.649 115.647 330.439 120.673 329.35 125.725C329.117 126.846 328.843 127.914 328.615 129.06ZM344.581 239.339C345.617 239.52 346.699 239.579 347.777 239.729L348.799 238.711C347.789 238.518 346.845 238.345 345.824 238.192C341.732 237.467 337.943 236.686 333.761 236.337C332.089 235.714 331.329 235.494 329.571 235.107C328.382 234.994 327.164 234.809 326.001 234.725C321.912 233.983 319.661 233.496 315.48 232.964C318.491 234.377 318.988 234.592 322.235 235.183L325.59 235.818C326.42 236.046 327.177 236.18 328.011 236.369C330.143 236.672 331.262 236.994 333.464 237.075C337.137 237.955 340.851 238.738 344.581 239.339ZM350.409 162.232C349.458 161.936 348.457 161.785 347.472 161.644L346.395 162.786C347.738 162.978 349.088 163.213 350.42 163.393L350.409 162.232ZM383.66 99.7833L383.859 98.6261C382.819 98.4289 382.121 98.2808 381.061 98.1934C380.424 98.101 379.789 97.9972 379.157 97.882C377.118 97.4937 375.02 97.0908 372.971 97.4701C374.2 98.9054 376.896 98.9225 379.061 99.2719C380.599 99.5041 382.093 99.5758 383.66 99.7833Z"/><path fill="#ffffff" fill-opacity="0.023529412" d="M332.98 110.653L333.759 111.811C332.263 118.109 331.276 124.57 329.574 130.756L328.615 129.06C328.843 127.914 329.117 126.846 329.35 125.725C330.439 120.673 331.649 115.647 332.98 110.653Z"/><path fill="#ffffff" d="M348.799 238.711C351.486 238.95 354.583 239.578 357.246 240.095L359.706 240.59C360.14 240.677 360.92 240.877 361.222 241.228C360.707 242.267 349.27 240.056 347.777 239.729L348.799 238.711Z"/><path fill="#ffffff" d="M361.101 95.8219C363.454 95.453 371.47 95.8101 372.971 97.4701C370.632 98.8633 363.496 96.7598 361.101 95.8219Z"/><path fill="#ffffff" d="M383.859 98.6261C385.364 98.6101 394.497 99.7627 395.218 100.673C394.678 101.48 385.014 100.08 383.66 99.7833L383.859 98.6261Z"/><path fill="#ffffff" fill-opacity="0.031372551" d="M333.761 236.337C337.943 236.686 341.732 237.467 345.824 238.192C345.652 239.084 345.381 239.001 344.581 239.339C340.851 238.738 337.137 237.955 333.464 237.075L333.761 236.337Z"/><path fill="#ffffff" fill-opacity="0.92941177" d="M315.387 185.367C315.715 182.28 317.04 178.055 318.475 175.262C318.039 178.926 317.594 182.732 316.68 186.31L315.387 185.367Z"/><path fill="#ffffff" d="M350.409 162.232C354.828 162.748 357.698 163.71 361.815 165.142C357.613 164.784 354.551 164.147 350.42 163.393L350.409 162.232Z"/><path fill="#ffffff" d="M328.238 131.043L329.162 131.464C328.763 134.598 326.522 140.724 325.343 143.779C326.043 139.63 326.85 135.031 328.238 131.043Z"/><path fill="#ffffff" d="M346.395 162.786C345.561 162.626 337.951 161.212 337.874 160.551C338.508 159.814 346.253 161.397 347.472 161.644L346.395 162.786Z"/><path fill="#ffffff" fill-opacity="0.06666667" d="M315.48 232.964C319.661 233.496 321.912 233.983 326.001 234.725C326.407 235.395 326.114 235.386 325.59 235.818L322.235 235.183C318.988 234.592 318.491 234.377 315.48 232.964Z"/><path fill="#ffffff" fill-opacity="0.019607844" d="M372.971 97.4701C375.02 97.0908 377.118 97.4937 379.157 97.882C379.789 97.9972 380.424 98.101 381.061 98.1934L379.061 99.2719C376.896 98.9225 374.2 98.9054 372.971 97.4701Z"/><path fill="#ffffff" fill-opacity="0.83137256" d="M310.622 205.082C310.931 203.216 311.199 201.926 311.735 200.127L313.069 200.557C312.762 202.054 312.578 203.224 311.93 204.611C311.449 204.772 311.08 204.89 310.622 205.082Z"/><path fill="#ffffff" fill-opacity="0.89803922" d="M329.571 235.107C331.329 235.494 332.089 235.714 333.761 236.337L333.464 237.075C331.262 236.994 330.143 236.672 328.011 236.369L329.571 235.107Z"/><path fill="#ffffff" fill-opacity="0.22745098" d="M381.061 98.1934C382.121 98.2808 382.819 98.4289 383.859 98.6261L383.66 99.7833C382.093 99.5758 380.599 99.5041 379.061 99.2719L381.061 98.1934Z"/><path fill="#ffffff" fill-opacity="0.86274511" d="M347.472 161.644C348.457 161.785 349.458 161.936 350.409 162.232L350.42 163.393C349.088 163.213 347.738 162.978 346.395 162.786L347.472 161.644Z"/><path fill="#ffffff" fill-opacity="0.60784316" d="M326.001 234.725C327.164 234.809 328.382 234.994 329.571 235.107L328.011 236.369C327.177 236.18 326.42 236.046 325.59 235.818C326.114 235.386 326.407 235.395 326.001 234.725Z"/><path fill="#ffffff" fill-opacity="0.070588239" d="M310.481 206.232L311.172 207.589C310.579 209.201 310.366 210.335 309.927 211.976C309.668 211.526 309.405 211.077 309.14 210.63C309.571 209.159 310.018 207.693 310.481 206.232Z"/><path fill="#ffffff" fill-opacity="0.23921569" d="M345.824 238.192C346.845 238.345 347.789 238.518 348.799 238.711L347.777 239.729C346.699 239.579 345.617 239.52 344.581 239.339C345.381 239.001 345.652 239.084 345.824 238.192Z"/><path fill="#ffffff" fill-opacity="0.35686275" d="M332.98 110.653C333.051 110.19 333.283 107.986 333.909 107.773C334.415 108.152 333.847 111.222 333.759 111.811L332.98 110.653Z"/><path fill="#ffffff" fill-opacity="0.35294119" d="M309.14 210.63C309.405 211.077 309.668 211.526 309.927 211.976C308.1 215.104 308.722 212.544 309.14 210.63Z"/><path fill="#ffffff" fill-opacity="0.40392157" d="M310.622 205.082C311.08 204.89 311.449 204.772 311.93 204.611L311.172 207.589L310.481 206.232L310.622 205.082Z"/><path fill="#ffffff" fill-opacity="0.14117648" d="M328.238 131.043C328.369 130.377 328.499 129.73 328.615 129.06L329.574 130.756C329.437 130.992 329.299 131.228 329.162 131.464L328.238 131.043Z"/><path fill="#ffffff" d="M75.8079 463.999C97.9383 467.041 91.2874 515.42 90.9923 529.836C93.9696 535.371 97.7575 538.212 101.571 542.899C109.344 552.454 115.411 559.864 125.044 567.778C130.617 572.357 140.011 574.094 142.337 579.27C142.12 586.325 133.01 580.921 130.196 579.311C114.486 570.319 102.397 556.505 90.8354 542.861L89.5094 542.378C88.3909 542.692 88.2107 542.617 87.7301 543.76C86.4518 546.8 86.4446 550.528 85.3166 553.674C82.967 560.227 67.3005 597.952 62.5957 600.172C61.3868 600.743 60.8871 600.398 59.7861 599.907C54.2612 593.36 62.7512 587.918 65.5153 581.98C72.1011 567.832 81.9076 546.508 82.7534 530.882L82.7972 530.003L82.3583 529.223C74.4511 515.083 69.0967 500.767 65.3925 484.989C63.0424 474.979 66.5411 468.561 75.8079 463.999ZM83.4489 516.176C87.9078 514.667 83.6625 489.769 83.4466 485.003C83.2523 480.716 81.9138 474.754 76.8953 473.987L76.4526 473.915L75.6724 474.573C71.4742 477.994 74.0479 485.694 75.0719 490.49L75.5711 492.741C77.0608 499.424 80.0064 510.411 83.4489 516.176ZM75.4263 506.124C75.4763 503.708 70.7484 486.328 69.5593 485.396C70.1375 491.35 73.0076 500.631 75.4263 506.124ZM125.775 572.083C123.353 569.93 120.272 567.251 117.124 566.434C119.448 568.379 122.918 571.468 125.775 572.083ZM110.228 558.612C108.817 556.4 106.888 553.745 104.631 552.351C105.897 554.715 107.719 557.475 110.228 558.612Z"/><path fill="#ffffff" fill-opacity="0.98823529" d="M69.5593 485.396C70.7484 486.328 75.4763 503.708 75.4263 506.124C73.0076 500.631 70.1375 491.35 69.5593 485.396Z"/><path fill="#ffffff" d="M86.6189 481.919C88.9999 484.835 89.2029 495.046 88.9827 498.704C87.7643 496.054 87.2026 485.808 86.6189 481.919Z"/><path fill="#ffffff" d="M78.6659 560.341C79.3215 562.736 76.3253 568.203 75.0649 570.191C74.3985 568.331 77.6393 562.058 78.6659 560.341Z"/><path fill="#ffffff" fill-opacity="0.98431373" d="M117.124 566.434C120.272 567.251 123.353 569.93 125.775 572.083C122.918 571.468 119.448 568.379 117.124 566.434Z"/><path fill="#ffffff" fill-opacity="0.98431373" d="M104.631 552.351C106.888 553.745 108.817 556.4 110.228 558.612C107.719 557.475 105.897 554.715 104.631 552.351Z"/><path fill="#ffffff" d="M755.923 221.693C765.987 221.838 780.564 231.871 781.703 242.439C782.245 247.459 781.409 251.048 775.655 251.123C773.116 249.923 772.586 247.374 771.555 245.174C756.395 212.83 727.771 252.164 722.753 270.179C720.923 276.747 717.654 279.832 718.25 286.623C719.104 296.355 722.205 305.75 728.498 313.08C731.855 316.66 738.95 316.694 743.424 316.492C753.308 315.952 758.535 312.373 764.841 305.346C767.412 301.891 773.086 295.493 778.063 297.654C780.736 301.179 776.857 308.12 774.42 311.041C760.629 327.563 738.535 333.778 720.343 320.239C713.741 315.326 708.726 301.108 707.847 292.951C705.749 273.482 716.549 253.36 727.867 238.296C734.028 230.157 745.68 222.784 755.923 221.693ZM717.765 267.121C722.052 259.642 725.977 251.96 730.714 244.809C730.841 244.619 730.65 244.058 730.627 243.96C727.434 247.282 716.834 263.27 717.765 267.121ZM759.95 315.623C757.88 316.815 756.272 317.634 754.241 318.991C753.049 319.259 752.717 319.489 751.53 319.985C750.648 320.354 749.482 321.027 749.89 321.248C750.944 321.82 754.052 320.116 754.994 319.571C757.636 318.539 758.257 318.164 760.567 316.462C761.342 315.905 766.827 312.023 765.693 310.944C765.367 310.946 760.308 315.173 759.95 315.623Z"/><path fill="#ffffff" fill-opacity="0.019607844" d="M730.627 243.96C730.65 244.058 730.841 244.619 730.714 244.809C725.977 251.96 722.052 259.642 717.765 267.121C716.834 263.27 727.434 247.282 730.627 243.96Z"/><path fill="#ffffff" fill-opacity="0.72941178" d="M759.95 315.623C760.308 315.173 765.367 310.946 765.693 310.944C766.827 312.023 761.342 315.905 760.567 316.462L759.95 315.623Z"/><path fill="#ffffff" fill-opacity="0.015686275" d="M759.95 315.623L760.567 316.462C758.257 318.164 757.636 318.539 754.994 319.571L754.241 318.991C756.272 317.634 757.88 316.815 759.95 315.623Z"/><path fill="#ffffff" fill-opacity="0.98431373" d="M754.994 319.571C754.052 320.116 750.944 321.82 749.89 321.248C749.482 321.027 750.648 320.354 751.53 319.985C752.717 319.489 753.049 319.259 754.241 318.991L754.994 319.571Z"/><path fill="#ffffff" d="M835.511 176.636C848.82 175.177 864.417 180.747 866.483 195.968C868.822 213.206 850.759 226.617 839.405 236.982C836.48 239.651 831.542 241.852 829.178 244.786C829.279 249.852 868.15 247.775 866.17 259.51C866.13 263.116 861.962 265.036 858.516 264.191C844.159 260.67 830.705 256.861 816.027 254.333C811.947 253.867 800.161 253.31 799.032 248.466C796.983 238.816 811.36 238.697 817.207 235.934C834.32 227.844 861.874 215.225 855.251 192.03C847.396 183.838 832.769 183.062 825.054 192.504C821.945 196.311 821.548 204.189 814.022 202.483C810.269 199.484 811.921 194.388 814.013 190.757C818.809 182.432 826.627 178.978 835.511 176.636ZM841.527 254.444C842.644 254.703 843.688 254.985 844.794 255.269L845.349 254.238C843.626 253.733 843.357 253.557 841.562 253.419L841.527 254.444Z"/><path fill="#ffffff" d="M841.527 254.444C841.02 254.338 840.512 254.239 840.003 254.147C838.745 253.93 829.585 252.353 829.323 251.612C829.353 251.542 829.382 251.472 829.412 251.403C831.262 250.954 839.417 252.85 841.562 253.419L841.527 254.444Z"/><path fill="#ffffff" d="M857.848 187.338C861.179 189.279 861.763 194.478 861.269 197.991C861.103 197.865 858.292 188.609 857.848 187.338Z"/><path fill="#ffffff" d="M836 180.643C836.216 180.623 843.398 179.838 842.376 181.304C842.123 181.426 841.868 181.378 841.562 181.387C840.494 181.464 835.827 182.243 835.418 181.698C835.45 181.473 835.464 181.417 835.667 181.133L836 180.643Z"/><path fill="#ffffff" d="M845.349 254.238C850.916 255.432 850.729 256.495 844.794 255.269L845.349 254.238Z"/><path fill="#ffffff" fill-opacity="0.30980393" d="M841.562 253.419C843.357 253.557 843.626 253.733 845.349 254.238L844.794 255.269C843.688 254.985 842.644 254.703 841.527 254.444L841.562 253.419Z"/><path fill="#ffffff" d="M565.069 864.053C561.206 868.481 558.293 874.353 555.35 879.466C546.649 894.582 538.785 909.906 532.076 926.011C531.616 927.116 529.171 926.946 528.099 926.353C525.383 923.249 528.121 905.934 527.93 900.75C527.172 880.177 525.978 859.514 525.94 838.942C525.942 837.346 526.371 835.718 527.539 834.592C530.261 834.346 531.451 837.809 531.366 839.979C530.499 862.249 534.096 887.225 532.296 909.211C532.335 909.525 532.424 911.061 532.74 911.337C533.192 911.379 533.723 910.268 533.864 910.046C534.333 908.02 536.964 903.2 537.935 901.156C543.137 890.36 549.129 879.987 555.323 869.738C557.931 865.422 563.198 850.843 567.733 850.573C569.019 851.714 569.841 853.928 570.078 855.593C573.153 877.165 573.307 899.447 574.707 921.115C576.777 916.606 580.282 908.418 582.718 904.429C582.849 903.135 587.858 892.291 588.665 890.878C591.042 885.128 603.448 856.594 606.336 853.71C608.308 853.046 607.308 853.15 609.461 853.533C610.879 854.753 610.447 854.011 610.826 855.823C609.796 859.503 602.241 873.619 600.121 877.892C594.082 889.949 588.336 902.151 582.889 914.486C580.844 919.012 575.636 933.713 573.183 935.98C571.18 936.499 572.069 936.631 570.394 935.862C568.711 932.828 570.044 922.414 569.67 917.598C568.399 901.201 568.343 879.938 565.069 864.053ZM588.166 896.918C589.21 895.768 592.526 889.607 591.744 888.91C591.311 889.051 590.673 890.319 590.471 890.653C589.067 893.081 588.346 894.022 588.166 896.918ZM570.386 882.124C570.518 879.573 570.227 870.758 567.87 869.217C568.138 871.231 569.143 881.117 570.386 882.124ZM571.012 915.99C570.859 923.072 572.588 922.313 572.032 918.292C572.058 917.036 572.064 915.779 572.052 914.523C572.242 910.435 571.523 908.347 571.265 904.853L571.27 904.878C571.005 909.173 570.845 911.642 571.012 915.99ZM577.534 921.918C578.278 920.422 580.478 917.184 579.301 915.922C578.628 917.658 576.157 921.088 577.534 921.918Z"/><path fill="#ffffff" fill-opacity="0.96470588" d="M590.471 890.653C590.673 890.319 591.311 889.051 591.744 888.91C592.526 889.607 589.21 895.768 588.166 896.918C588.346 894.022 589.067 893.081 590.471 890.653Z"/><path fill="#ffffff" d="M582.718 904.429C582.849 903.135 587.858 892.291 588.665 890.878L590.471 890.653C589.067 893.081 588.346 894.022 588.166 896.918C584.561 897.329 585.353 904.299 582.718 904.429Z"/><path fill="#ffffff" d="M528.995 888.259C531.199 889.939 530.602 901.194 530.309 904.159C529 900.261 528.889 892.412 528.995 888.259Z"/><path fill="#ffffff" fill-opacity="0.98823529" d="M567.87 869.217C570.227 870.758 570.518 879.573 570.386 882.124C569.143 881.117 568.138 871.231 567.87 869.217Z"/><path fill="#ffffff" fill-opacity="0.93725491" d="M571.27 904.878L571.265 904.853C571.523 908.347 572.242 910.435 572.052 914.523L571.302 916.045L571.012 915.99C570.845 911.642 571.005 909.173 571.27 904.878Z"/><path fill="#ffffff" d="M529.19 854.902C530.498 856.974 530.055 862.638 529.87 865.168C528.182 863.697 529 857.124 529.19 854.902Z"/><path fill="#ffffff" d="M553.476 876.265C554.939 873.914 556.466 871.604 558.058 869.338C558.157 869.197 559.052 867.781 559.255 867.67C559.484 867.832 559.623 868.074 559.986 868.547C559.835 869.712 560.055 869.986 558.964 870.073C556.953 872.397 555.642 873.992 553.476 876.265Z"/><path fill="#ffffff" d="M559.986 868.547C559.835 869.712 560.055 869.986 558.964 870.073C559.328 869.307 559.416 869.268 559.986 868.547Z"/><path fill="#ffffff" d="M602.322 866.4C602.551 868.82 600.83 871.565 599.551 873.606C598.77 871.61 601.271 868.179 602.322 866.4Z"/><path fill="#ffffff" d="M546.77 888.976C548.078 889.962 544.745 894.471 544.082 895.498C542.979 894.375 545.994 890.235 546.77 888.976Z"/><path fill="#ffffff" fill-opacity="0.92941177" d="M579.301 915.922C580.478 917.184 578.278 920.422 577.534 921.918C576.157 921.088 578.628 917.658 579.301 915.922Z"/><path fill="#ffffff" fill-opacity="0.82352942" d="M571.012 915.99L571.302 916.045C571.532 916.807 571.781 917.537 572.032 918.292C572.588 922.313 570.859 923.072 571.012 915.99Z"/><path fill="#ffffff" fill-opacity="0.53725493" d="M571.302 916.045L572.052 914.523C572.064 915.779 572.058 917.036 572.032 918.292C571.781 917.537 571.532 916.807 571.302 916.045Z"/><path fill="#ffffff" d="M387.296 453.551C410.864 418.686 425.797 495.634 422.287 502.666C420.137 503.537 421.194 503.452 419.014 503.07C418.313 502.525 417.2 501.674 416.91 500.556C416.132 497.552 415.906 493.18 415.155 490.181C413.182 482.301 408.398 450.099 398.08 450.923C396.274 451.067 393.854 454.073 392.81 456.257C390.15 461.82 389.572 467.027 389.314 473.131L389.002 473.491C389.077 476.303 388.796 479.242 388.851 482.133C389.007 490.357 391.636 498.031 392.946 506.077C393.366 508.655 390.888 509.88 388.623 509.701C384.777 507.062 384.125 498.567 383.344 493.975C381.585 483.64 378.698 474.253 374.558 464.635C371.127 456.664 363.942 459.122 361.829 466.194C358.78 477.135 359.095 488.63 359.663 499.9C359.927 505.126 362.057 511.937 361.198 517.16C360.924 518.827 357.865 518.976 356.298 518.334C353.05 515.066 348.031 470.413 345.214 462.621C344.653 461.068 345.376 460.106 346.255 458.925C348.019 458.302 347.118 458.39 349.063 458.811C351.909 461.13 352.436 466.533 353.248 470.346C370.483 434.054 379.16 464.568 383.119 466.004L383.84 464.51C384.866 460.966 385.791 456.836 387.296 453.551ZM414.783 471.189C414.049 467.735 411.978 459.462 409.206 457.288C410.214 459.993 413.105 469.88 414.783 471.189ZM381.994 474.142C381.506 472.356 379.467 466.333 377.864 465.3C378.78 468.008 379.764 472.674 381.994 474.142ZM387.581 496.158C387.389 493.853 386.687 489.27 384.779 487.776C385.242 490.656 385.956 493.711 387.581 496.158ZM358.079 470.154C358.875 468.565 360.513 465.069 360.15 463.374C358.816 465.407 357.466 467.718 358.079 470.154Z"/><path fill="#ffffff" d="M383.84 464.51C384.866 460.966 385.791 456.836 387.296 453.551C388.068 454.52 389.122 454.949 389.158 455.975C389.196 457.104 388.559 462.774 387.211 462.895C387.031 462.81 387.151 462.896 386.841 462.473L386.685 462.437C385.448 463.444 385.18 463.792 383.84 464.51Z"/><defs><linearGradient id="gradient_0" gradientUnits="userSpaceOnUse" x1="386.18964" y1="473.32507" x2="388.25354" y2="473.60059"><stop offset="0" stop-color="#ffffff"/><stop offset="1" stop-color="#ffffff"/></linearGradient></defs><path fill="url(#gradient_0)" d="M389.002 473.491C388.454 474.865 388.302 477.385 387.888 478.732L387.852 478.74C387.352 478.4 384.674 471.732 388.056 470.18L388.034 470.2C388.324 470.051 388.604 469.904 388.9 470.101C388.948 470.221 389.229 472.638 389.314 473.131L389.002 473.491Z"/><path fill="#ffffff" fill-opacity="0.98431373" d="M409.206 457.288C411.978 459.462 414.049 467.735 414.783 471.189C413.105 469.88 410.214 459.993 409.206 457.288Z"/><path fill="#ffffff" d="M354.514 496.394C356.538 499.157 357.489 506.211 357.429 509.614C356.125 506.586 354.727 499.591 354.514 496.394Z"/><path fill="#ffffff" d="M350.082 471.896C351.949 473.368 352.466 479.379 352.663 481.73C350.835 479.284 350.371 474.888 350.082 471.896Z"/><path fill="#ffffff" fill-opacity="0.98039216" d="M377.864 465.3C379.467 466.333 381.506 472.356 381.994 474.142C379.764 472.674 378.78 468.008 377.864 465.3Z"/><path fill="#ffffff" fill-opacity="0.98431373" d="M384.779 487.776C386.687 489.27 387.389 493.853 387.581 496.158C385.956 493.711 385.242 490.656 384.779 487.776Z"/><path fill="#ffffff" fill-opacity="0.98823529" d="M360.15 463.374C360.513 465.069 358.875 468.565 358.079 470.154C357.466 467.718 358.816 465.407 360.15 463.374Z"/><path fill="#ffffff" d="M239.798 443.935C240.954 444.523 241.524 444.711 242.037 446.111C244.154 451.896 249.784 484.241 252.941 487.345C256.822 487.107 257.576 481.547 259.45 480.351C285.74 463.592 289.585 503.659 295.05 519.425C296.164 522.639 301.021 535.316 294.027 534.513C292.537 533.438 291.249 531.769 290.706 530.018C287.011 518.103 284.718 505.787 280.562 493.965C280.258 493.225 279.942 492.489 279.613 491.759C277.469 487.039 272.735 480.375 266.365 483.947C247.462 494.548 266.03 532.177 263.299 540.458C261.672 541.995 258.365 542.339 257.849 540.374C254.722 528.471 252.59 516.255 249.932 504.222C246.07 486.741 240.994 469.64 236.465 452.342C235.788 449.748 235.608 448.519 236.359 445.946C237.374 444.535 238.133 444.484 239.798 443.935ZM252.432 503.613C252.459 500.7 251.393 493.715 249.047 491.865C249.663 494.266 250.258 496.673 250.832 499.084C251.271 500.964 251.647 501.888 252.432 503.613ZM240.082 455.72C240.62 457.907 242.501 465.209 243.935 466.586C243.661 463.632 242.395 457.75 240.082 455.72ZM292.426 521.565C292.19 518.937 291.713 515.612 289.721 513.761C290.153 515.977 290.792 520.177 292.426 521.565ZM258.679 527.207C258.41 525.398 258.173 524.393 257.703 522.646L257.177 520.675C256.768 519.144 256.417 517.627 255.732 516.191L255.582 515.868C255.593 518.857 256.447 525.101 258.679 527.207ZM284.587 495.455C283.369 491.054 282.468 492.302 283.895 495.592C285.865 503.483 287.902 504.317 284.587 495.455Z"/><path fill="#ffffff" fill-opacity="0.98431373" d="M249.047 491.865C251.393 493.715 252.459 500.7 252.432 503.613C251.647 501.888 251.271 500.964 250.832 499.084C250.258 496.673 249.663 494.266 249.047 491.865Z"/><path fill="#ffffff" fill-opacity="0.98039216" d="M240.082 455.72C242.395 457.75 243.661 463.632 243.935 466.586C242.501 465.209 240.62 457.907 240.082 455.72Z"/><path fill="#ffffff" fill-opacity="0.97647059" d="M255.582 515.868L255.732 516.191C256.417 517.627 256.768 519.144 257.177 520.675L257.703 522.646C258.173 524.393 258.41 525.398 258.679 527.207C256.447 525.101 255.593 518.857 255.582 515.868Z"/><path fill="#ffffff" d="M258.919 485.453C259.702 486.45 256.757 493.294 256.082 494.599C254.499 493.318 258.089 487.175 258.919 485.453Z"/><path fill="#ffffff" fill-opacity="0.98039216" d="M289.721 513.761C291.713 515.612 292.19 518.937 292.426 521.565C290.792 520.177 290.153 515.977 289.721 513.761Z"/><path fill="#ffffff" fill-opacity="0.98431373" d="M284.587 495.455C287.902 504.317 285.865 503.483 283.895 495.592L284.587 495.455Z"/><path fill="#ffffff" fill-opacity="0.97647059" d="M283.895 495.592C282.468 492.302 283.369 491.054 284.587 495.455L283.895 495.592Z"/><path fill="#ffffff" d="M211.612 862.048C227.964 862.749 239.314 859.36 238.062 839.876C236.377 819.896 209.413 824.859 203.2 809.064C197.462 794.477 206.534 783.939 219.902 779.035C232.635 774.365 247.899 784.504 251.029 797.165C251.992 801.061 254.114 807.553 248.665 809.177C246.362 807.428 246.647 802.491 245.913 799.303C240.801 777.109 208.429 778.873 206.762 800.99C205.648 815.772 230.22 816.908 237.612 826.668C241.557 831.878 243.587 835.875 243.151 842.939C242.918 861.97 230.556 867.98 213.299 867.05C198.794 866.269 188.579 855.604 189.631 840.784C189.831 837.968 190.494 835.739 192.682 833.922C194.752 833.36 193.747 833.37 195.816 833.867C198.989 838.056 186.815 853.664 208.471 861.329C209.52 861.59 210.552 861.786 211.612 862.048ZM217.366 782.698C221.339 782.048 223.266 781.627 227.293 781.206C228.636 781.148 231.09 781.872 231.369 781.803C232.619 780.067 225.164 780.047 224.856 780.054C221.664 780.768 220.416 781.322 217.366 782.698ZM226.996 822.075C223.822 819.553 219.977 817.8 215.978 817.065C217.458 818.231 225.193 821.714 226.996 822.075ZM249.017 799.637C248.705 796.414 248.09 792.964 245.103 791.244L245.533 791.995C246.996 794.409 247.321 797.866 249.017 799.637ZM195.253 853.188C194.706 851.663 192.405 846.38 191.346 845.324C191.811 848.281 192.556 851.577 195.253 853.188ZM214.057 863.85C210.835 863.165 210.89 862.71 207.732 863.118C207.699 863.259 207.667 863.401 207.634 863.543C207.867 863.868 214.654 865.183 215.007 864.719C214.939 864.398 214.369 864.076 214.057 863.85ZM240.755 847.524C241.05 845.328 241.897 842.177 240.012 840.753C239.956 842.467 239.341 846.445 240.755 847.524Z"/><path fill="#ffffff" fill-opacity="0.93333334" d="M207.732 863.118C210.89 862.71 210.835 863.165 214.057 863.85C214.369 864.076 214.939 864.398 215.007 864.719C214.654 865.183 207.867 863.868 207.634 863.543C207.667 863.401 207.699 863.259 207.732 863.118Z"/><path fill="#ffffff" d="M208.471 861.329C209.52 861.59 210.552 861.786 211.612 862.048C212.63 862.685 213.124 863.1 214.057 863.85C210.835 863.165 210.89 862.71 207.732 863.118C208.26 862.253 208.23 862.345 208.471 861.329Z"/><path fill="#ffffff" fill-opacity="0.98039216" d="M224.856 780.054C225.164 780.047 232.619 780.067 231.369 781.803C231.09 781.872 228.636 781.148 227.293 781.206C223.266 781.627 221.339 782.048 217.366 782.698C220.416 781.322 221.664 780.768 224.856 780.054Z"/><path fill="#ffffff" fill-opacity="0.96470588" d="M215.978 817.065C219.977 817.8 223.822 819.553 226.996 822.075C225.193 821.714 217.458 818.231 215.978 817.065Z"/><path fill="#ffffff" fill-opacity="0.97254902" d="M245.103 791.244C248.09 792.964 248.705 796.414 249.017 799.637C247.321 797.866 246.996 794.409 245.533 791.995L245.103 791.244Z"/><path fill="#ffffff" fill-opacity="0.97647059" d="M191.346 845.324C192.405 846.38 194.706 851.663 195.253 853.188C192.556 851.577 191.811 848.281 191.346 845.324Z"/><path fill="#ffffff" fill-opacity="0.96078432" d="M240.012 840.753C241.897 842.177 241.05 845.328 240.755 847.524C239.341 846.445 239.956 842.467 240.012 840.753Z"/><path fill="#ffffff" d="M436.912 212.092C448.33 212.655 464.622 218.691 476.272 220.691C488.664 223.499 501.69 225.054 513.92 228.432C521.036 230.397 518.685 236.259 513.38 239.116C510.646 239.291 495.227 235.505 491.577 234.698C483.266 232.851 474.927 231.137 466.562 229.555C456.931 227.71 447.248 226.45 437.665 224.505C430.781 223.108 430.38 215.136 436.912 212.092ZM480.976 227.311L482.75 226.252C481.251 226.035 479.932 225.822 478.444 225.538L477.392 225.494L477.021 226.631C477.524 226.711 478.004 226.767 478.51 226.829C479.328 227.006 480.15 227.167 480.976 227.311Z"/><path fill="#ffffff" d="M468.702 224.769C471.862 224.891 474.329 224.758 477.392 225.494L477.021 226.631C473.852 226.11 471.773 225.649 468.702 224.769Z"/><path fill="#ffffff" d="M482.75 226.252C483.813 226.477 486.614 226.992 487.303 227.695C487.286 228.692 481.731 227.429 480.976 227.311L482.75 226.252Z"/><path fill="#ffffff" fill-opacity="0.49411765" d="M478.444 225.538C479.932 225.822 481.251 226.035 482.75 226.252L480.976 227.311C480.15 227.167 479.328 227.006 478.51 226.829L478.444 225.538Z"/><path fill="#ffffff" fill-opacity="0.60000002" d="M477.392 225.494L478.444 225.538L478.51 226.829C478.004 226.767 477.524 226.711 477.021 226.631L477.392 225.494Z"/><path fill="#ffffff" d="M443.834 174.58C450.305 174.358 473.877 180.642 481.925 181.995C493.737 184.141 505.976 186.512 517.97 187.217C526.626 187.726 528.763 195.285 521.767 199.598C515.213 200.449 496.459 194.756 488.402 193.626C474.749 191.486 461.023 188.985 447.382 186.878C439.095 185.598 436.888 178.361 443.834 174.58Z"/><path fill="#ffffff" d="M474.01 185.611C475.931 185.636 477.848 185.8 479.745 186.104C483.625 186.703 487.454 187.071 490.948 188.903C488.239 188.831 477.232 187.367 474.855 186.061L474.01 185.611Z"/><path fill="#ffffff" d="M372.253 801.74L374.668 802.665C376.783 805.706 373.763 813.493 372.779 817.047L364.893 845.907C363.89 849.6 361.672 854.345 362.681 857.974C368.224 860.969 386.866 840.99 394.082 841.933C395.531 842.981 395.078 842.293 395.427 844.102C395.153 844.892 394.492 846.369 393.745 846.712C384.658 850.88 378.157 856.32 370.529 862.722C373.316 869.348 381.377 884.508 384.942 890.758C386.509 893.402 387.513 896.428 384.287 898.27C378.614 897.669 370.908 869.444 365.012 867.688C355.995 865.004 358.402 887.276 351.786 890.344C350.163 889.727 350.765 890.227 349.814 888.932C349.811 880.034 353.987 868.195 356.463 859.487C358.72 851.372 360.921 843.242 363.065 835.096C364.777 828.395 368.899 805.466 372.253 801.74ZM368.607 822.094C369.925 819.654 371.253 813.202 371.311 810.38C370.239 813.025 367.762 819.391 368.607 822.094ZM377.208 882.181C376.283 879.34 374.462 873.864 371.921 872.33C372.88 874.521 375.676 880.841 377.208 882.181ZM362.589 846.673C363.44 844.228 364.399 842.203 363.626 839.819C362.672 842.313 361.872 844.18 362.589 846.673Z"/><path fill="#ffffff" d="M382.521 851.617C382.105 851.862 377.663 854.84 377.703 854.835C375.672 855.085 383.709 848.26 385.214 849.258C385.33 849.378 385.446 849.498 385.561 849.618C384.785 850.454 383.568 851.096 382.521 851.617Z"/><path fill="#ffffff" d="M385.214 849.258C385.33 849.378 385.446 849.498 385.561 849.618C384.785 850.454 383.568 851.096 382.521 851.617C383.118 850.656 383.949 850.276 384.872 849.536L385.214 849.258Z"/><path fill="#ffffff" fill-opacity="0.98823529" d="M371.311 810.38C371.253 813.202 369.925 819.654 368.607 822.094C367.762 819.391 370.239 813.025 371.311 810.38Z"/><path fill="#ffffff" fill-opacity="0.97647059" d="M371.921 872.33C374.462 873.864 376.283 879.34 377.208 882.181C375.676 880.841 372.88 874.521 371.921 872.33Z"/><path fill="#ffffff" d="M357.156 865.814C358.782 867.28 356.362 871.54 355.598 873.236C354.303 872.588 356.68 867.033 357.156 865.814Z"/><path fill="#ffffff" fill-opacity="0.98431373" d="M363.626 839.819C364.399 842.203 363.44 844.228 362.589 846.673C361.872 844.18 362.672 842.313 363.626 839.819Z"/><path fill="#ffffff" d="M807.517 644.143C807.51 640.528 806.972 638.07 809.418 635.485L810.509 635.24C812.826 636.908 812.559 637.807 812.578 640.48L812.625 643.57C822.181 633.996 831.453 630.734 834.909 647.117C837.846 643.081 841.989 635.775 847.164 635.039C852.954 634.217 858.27 639.328 857.951 645.158C858.285 647.927 858.445 650.714 858.431 653.502C858.509 658.268 858.885 676.42 856.447 679.454C854.585 680.192 855.512 680.095 853.568 679.808C849.716 675.239 859.253 640.485 848.884 639.439C840.683 638.612 834.658 661.02 834.861 667.558C834.949 670.388 834.748 678.64 831.721 679.796C826.802 677.345 829.858 666.436 830.143 661.19C830.125 654.905 830.064 651.504 828.942 645.322C828.459 643.586 828.204 641.874 826.967 640.634C815.661 635.921 810.488 670.564 809.981 676.896C809.877 678.193 809.35 678.561 808.505 679.321C807.288 679.301 806.7 679.338 805.772 678.387C803.753 676.314 806.724 656.876 807.092 652.927C807.258 649.914 807.448 647.176 807.517 644.143ZM856.863 654.209L856.964 653.047C856.999 651.573 856.922 650.578 857.164 649.112C856.944 648.476 856.573 646.414 855.834 646.375C855.125 647.093 855.902 652.688 856.015 654.005C856.064 654.23 856.092 654.629 856.258 654.841C856.303 654.831 856.348 654.821 856.393 654.811C856.55 654.611 856.706 654.41 856.863 654.209ZM808.344 672.739C808.467 670.324 809.349 665.656 808.227 664.385C807.752 666.744 806.336 671.086 808.344 672.739ZM838.737 647.639C839.281 645.536 842.051 640.495 841.182 639.911C840.213 641.452 837.073 646.134 838.737 647.639ZM832.77 668.571C833.049 666.516 833.783 664.555 832.067 663.258C832.012 665.028 831.468 667.315 832.77 668.571Z"/><path fill="#ffffff" fill-opacity="0.92941177" d="M856.015 654.005C855.902 652.688 855.125 647.093 855.834 646.375C856.573 646.414 856.944 648.476 857.164 649.112C856.922 650.578 856.999 651.573 856.964 653.047L856.015 654.005Z"/><path fill="#ffffff" fill-opacity="0.84313726" d="M856.964 653.047L856.863 654.209C856.706 654.41 856.55 654.611 856.393 654.811C856.348 654.821 856.303 654.831 856.258 654.841C856.092 654.629 856.064 654.23 856.015 654.005L856.964 653.047Z"/><path fill="#ffffff" d="M807.517 644.143C808.489 644.075 809.023 643.85 809.78 644.439C808.552 646.743 808.907 649.656 809.309 652.206C808.551 652.888 808.115 652.774 807.092 652.927C807.258 649.914 807.448 647.176 807.517 644.143Z"/><path fill="#ffffff" d="M857.164 649.112C857.251 647.066 857.292 647.097 857.951 645.158C858.285 647.927 858.445 650.714 858.431 653.502L856.863 654.209L856.964 653.047C856.999 651.573 856.922 650.578 857.164 649.112Z"/><path fill="#ffffff" d="M809.309 652.206C808.907 649.656 808.552 646.743 809.78 644.439C811.053 647.47 810.448 648.754 809.309 652.206Z"/><path fill="#ffffff" fill-opacity="0.98431373" d="M808.227 664.385C809.349 665.656 808.467 670.324 808.344 672.739C806.336 671.086 807.752 666.744 808.227 664.385Z"/><path fill="#ffffff" fill-opacity="0.94117647" d="M841.182 639.911C842.051 640.495 839.281 645.536 838.737 647.639C837.073 646.134 840.213 641.452 841.182 639.911Z"/><path fill="#ffffff" d="M831.09 646.207C832.986 646.965 832.746 650.327 831.598 652.045C830.883 649.342 830.976 649.102 831.09 646.207Z"/><path fill="#ffffff" d="M818.339 640.922C818.921 641.547 818.958 641.567 818.296 642.489C817.574 643.503 816.837 644.506 816.084 645.497C814.931 644.221 817.485 641.96 818.339 640.922Z"/><path fill="#ffffff" fill-opacity="0.98039216" d="M832.067 663.258C833.783 664.555 833.049 666.516 832.77 668.571C831.468 667.315 832.012 665.028 832.067 663.258Z"/><path fill="#ffffff" d="M671.211 618.49C676.41 610.679 691.024 604.063 699.392 610.919C703.14 613.989 711.324 620.257 709.25 625.657C707.748 627.047 708.581 626.666 706.793 627.098C703.013 624.715 695.355 595.993 672.546 624.586C666.329 635.07 668.095 648.096 670.496 658.653C675.366 680.07 696.299 680.202 705.424 661.954C716.647 639.508 685.243 656.055 681.09 647.803L681.269 646.73C685.134 644.323 692.538 645.251 696.712 645.058C714.025 644.26 717.926 645.927 709.889 663.067C706.617 670.045 701.735 676.01 693.893 678.824C663.59 687.434 659.772 643.875 667.365 624.898C667.463 624.734 667.561 624.57 667.66 624.406C668.803 621.931 669.395 620.657 671.211 618.49ZM669.919 664.742C669.441 662.647 666.78 647.453 666.165 646.914C665.969 649.772 666.367 652.229 666.871 655.048L667.386 657.798C667.871 660.258 667.779 663.328 669.919 664.742ZM706.866 665.166C707.514 663.727 709.959 658.66 708.787 657.424C707.912 659.208 705.58 663.469 706.866 665.166ZM683.646 612.221C684.487 611.888 687.321 610.908 687.656 610.256C687.579 609.943 686.931 609.975 686.688 609.932C686.849 609.864 680.095 612.821 683.646 612.221ZM703.208 647.55C701.12 646.617 700.096 646.949 697.768 647.245C700.129 648.332 700.509 648.275 703.208 647.55Z"/><path fill="#ffffff" d="M671.211 618.49L672.901 618.948C671.115 620.899 670.676 621.98 669.716 624.479C668.985 625.449 669.037 624.84 667.66 624.406C668.803 621.931 669.395 620.657 671.211 618.49Z"/><path fill="#ffffff" d="M672.901 618.948C673.034 618.91 673.167 618.873 673.299 618.836C674.178 619.376 670.334 623.868 669.716 624.479C670.676 621.98 671.115 620.899 672.901 618.948Z"/><path fill="#ffffff" fill-opacity="0.94901961" d="M666.165 646.914C666.78 647.453 669.441 662.647 669.919 664.742C667.779 663.328 667.871 660.258 667.386 657.798L666.871 655.048C666.367 652.229 665.969 649.772 666.165 646.914Z"/><path fill="#ffffff" fill-opacity="0.98823529" d="M708.787 657.424C709.959 658.66 707.514 663.727 706.866 665.166C705.58 663.469 707.912 659.208 708.787 657.424Z"/><path fill="#ffffff" fill-opacity="0.98431373" d="M686.688 609.932C686.931 609.975 687.579 609.943 687.656 610.256C687.321 610.908 684.487 611.888 683.646 612.221C680.095 612.821 686.849 609.864 686.688 609.932Z"/><path fill="#ffffff" fill-opacity="0.96078432" d="M697.768 647.245C700.096 646.949 701.12 646.617 703.208 647.55C700.509 648.275 700.129 648.332 697.768 647.245Z"/><path fill="#ffffff" d="M752.699 652.626C749.588 661.318 750.088 666.867 749.625 675.844C749.551 677.276 747.382 680.267 745.17 679.421C744.584 678.405 744.206 677.353 744.308 676.191C744.9 666.981 746.483 654.627 744.663 645.662C741.811 631.609 731.493 646.886 730.419 653.334C729.649 657.957 727.36 662.25 726.903 667.214C726.642 670.052 726.295 683.931 720.703 678.569C720.44 676.954 723.582 637.996 724.176 635.882C725.37 634.688 724.67 635.069 726.376 634.754L727.426 635.525C728.573 638.255 728.326 641.971 728.434 645.118C736.648 631.92 744.27 630.495 749.695 646.092C752.268 646.529 754.897 638.365 758.157 636.738C767.629 631.74 772.874 638.817 773.392 647.895C773.744 654.069 775.614 677.292 769.665 680.056C764.914 676.943 772.337 648.218 765.531 639.202C761.271 637.148 757.854 642.876 755.747 645.993C755.224 647.433 753.475 650.816 752.699 652.626ZM748.061 652.737C747.996 650.885 747.953 647.15 746.552 645.858C746.653 648.008 746.341 651.513 748.061 652.737ZM747.2 663.407C747.076 664.454 746.282 668.389 747.74 668.588C748.038 666.843 748.638 664.667 747.2 663.407ZM734.565 640.41C733.373 641.691 732.073 642.698 732.199 644.527L732.778 644.111C734.116 643.19 735.017 641.999 734.565 640.41ZM725.724 650.35L725.895 649.579C726.16 648.463 726.393 647.954 725.221 648.181L725.042 649.122C724.85 650.031 724.69 650.577 725.724 650.35Z"/><path fill="#ffffff" d="M752.699 652.626C752.028 652.377 750.945 652.218 750.848 651.421C752.252 648.772 753.072 646.44 754.024 643.649C754.385 643.35 754.306 643.372 754.763 643.358C755.101 643.709 755.494 645.373 755.747 645.993C755.224 647.433 753.475 650.816 752.699 652.626Z"/><path fill="#ffffff" d="M770.257 645.434C771.475 646.677 771.317 652.924 771.026 654.824C768.825 655.043 770.151 647.355 770.257 645.434Z"/><path fill="#ffffff" d="M723.126 663.376C724.84 665.116 724.528 670.357 724.348 672.612C722.763 670.438 722.903 665.942 723.126 663.376Z"/><path fill="#ffffff" fill-opacity="0.98431373" d="M746.552 645.858C747.953 647.15 747.996 650.885 748.061 652.737C746.341 651.513 746.653 648.008 746.552 645.858Z"/><path fill="#ffffff" fill-opacity="0.98431373" d="M747.2 663.407C748.638 664.667 748.038 666.843 747.74 668.588C746.282 668.389 747.076 664.454 747.2 663.407Z"/><path fill="#ffffff" fill-opacity="0.96862745" d="M734.565 640.41C735.017 641.999 734.116 643.19 732.778 644.111L732.199 644.527C732.073 642.698 733.373 641.691 734.565 640.41Z"/><path fill="#ffffff" fill-opacity="0.78431374" d="M725.221 648.181C726.393 647.954 726.16 648.463 725.895 649.579L725.724 650.35C724.69 650.577 724.85 650.031 725.042 649.122L725.221 648.181Z"/><path fill="#ffffff" d="M324.722 422.411C325.644 422.497 326.708 422.674 327.639 422.804C330.802 425.223 329.041 430.512 328.647 434.161C324.608 471.623 318.808 509.025 317.698 546.723C317.67 547.678 316.331 549.491 315.732 550.288C313.913 550.032 313.61 550.085 312.091 548.973C310.073 545.887 313.259 519.593 313.712 514.737L319.051 461.407C320.325 449.687 320.865 437.884 322.399 426.208C322.617 424.546 323.587 423.529 324.722 422.411Z"/><path fill="#ffffff" d="M321.221 468.363C322.982 469.907 320.585 481.194 319.738 483.558C318.928 482.69 320.956 470.573 321.221 468.363Z"/><path fill="#ffffff" d="M316.705 505.894C318.228 507.436 316.904 514.991 316.771 517.672C314.967 516.131 316.184 508.082 316.705 505.894Z"/><path fill="#ffffff" d="M324.132 433.746C326.121 435.385 324.2 442.606 323.62 445C322.658 443.667 323.742 435.766 324.132 433.746Z"/><path fill="#ffffff" d="M445.639 879.489C447.208 872.689 449.819 866.162 450.878 859.24C451.23 857.726 452.125 852.831 454.503 853.181C458.473 853.766 455.775 861.432 455.543 864.42C461.052 863.705 465.063 856.869 473.551 857.651C497.79 859.884 479.98 894.901 478.305 908.678C477.921 911.837 477.315 915.466 474.463 916.706C472.554 916.452 473.322 916.854 472.018 915.585C468.788 905.528 497.591 854.449 466.005 865.085C457.396 867.983 451.639 880.352 448.697 887.965C446.42 893.042 444.058 907.67 441.638 909.486C439.931 909.661 440.751 909.793 439.13 908.89C437.991 907.066 438.153 904.778 438.794 902.833C441.216 895.483 443.091 886.618 445.639 879.489ZM454.511 872.04C456.152 870.308 465.369 862.954 465.29 862.056C462.581 863.54 454.892 868.943 454.511 872.04ZM442.108 900.786C442.956 898.952 444.594 894.371 443.975 892.352C443 894.706 441.231 898.431 442.108 900.786ZM477.368 900.664C478.386 898.223 479.936 895.343 479.274 892.838C478.29 895.09 476.693 898.362 477.368 900.664Z"/><path fill="#ffffff" d="M445.639 879.489C447.208 872.689 449.819 866.162 450.878 859.24C451.23 857.726 452.125 852.831 454.503 853.181C458.473 853.766 455.775 861.432 455.543 864.42C457.431 866.514 451.292 868.741 452.032 871.497C452.446 873.04 450.602 876.315 449.35 877.672C448.916 878.225 448.492 878.787 448.08 879.356C446.79 879.884 446.869 879.902 445.639 879.489Z"/><path fill="#ffffff" d="M448.08 879.356C448.029 879.876 448.186 878.028 448.273 877.803C448.968 876.006 449.769 871.72 451.076 870.365C451.146 870.293 451.192 870.35 451.302 870.435C451.754 871.557 449.826 876.277 449.35 877.672C448.916 878.225 448.492 878.787 448.08 879.356Z"/><path fill="#ffffff" fill-opacity="0.98039216" d="M465.29 862.056C465.369 862.954 456.152 870.308 454.511 872.04C454.892 868.943 462.581 863.54 465.29 862.056Z"/><path fill="#ffffff" d="M482.086 875.748C484.094 877.31 482.699 880.178 482.2 882.482C481.491 880.63 480.514 878.242 481.7 876.39L482.086 875.748Z"/><path fill="#ffffff" fill-opacity="0.98039216" d="M443.975 892.352C444.594 894.371 442.956 898.952 442.108 900.786C441.231 898.431 443 894.706 443.975 892.352Z"/><path fill="#ffffff" fill-opacity="0.98823529" d="M479.274 892.838C479.936 895.343 478.386 898.223 477.368 900.664C476.693 898.362 478.29 895.09 479.274 892.838Z"/><path fill="#ffffff" d="M461.726 428.055C464.29 428.521 465.348 428.576 466.467 431.164C466.371 438.136 464.274 450.733 463.564 458.619C462.971 464.939 462.455 471.267 462.017 477.6C461.716 482.319 462.901 492.8 456.89 493.547C450.679 491.261 443.85 477.584 440.358 471.861C435.854 464.377 430.861 457.198 425.412 450.37C423.229 447.684 419.81 444.577 420.778 441.007C422.07 439.626 421.308 439.986 423.086 439.773C433.209 443.429 445.186 471.998 454.809 482.209C458.756 466.563 457.375 447.639 459.437 431.665C459.706 429.58 460.133 429.169 461.726 428.055ZM448.599 478.689C447.434 476.338 444.159 470.675 442.372 468.9C443.151 471.548 446.007 477.627 448.599 478.689ZM435.116 457.617C433.999 454.888 433.458 453.631 430.939 452.241C432.122 454.152 433.255 456.494 435.116 457.617Z"/><path fill="#ffffff" fill-opacity="0.98431373" d="M442.372 468.9C444.159 470.675 447.434 476.338 448.599 478.689C446.007 477.627 443.151 471.548 442.372 468.9Z"/><path fill="#ffffff" d="M459.511 472.803C460.593 475.431 459.895 479.576 458.907 482.194C458.153 480.202 458.931 474.718 459.511 472.803Z"/><path fill="#ffffff" d="M461.201 446.837C462.984 448.411 461.684 453.484 460.935 455.449C460.684 455.484 460.764 455.505 460.654 455.446C460.503 454.596 461.093 447.924 461.201 446.837Z"/><path fill="#ffffff" fill-opacity="0.98431373" d="M430.939 452.241C433.458 453.631 433.999 454.888 435.116 457.617C433.255 456.494 432.122 454.152 430.939 452.241Z"/><path fill="#ffffff" d="M546.886 606.055C555.663 606.059 563.946 606.899 572.769 605.63C574.731 605.348 576.926 608.847 574.439 610.196C570.727 611.213 563.448 611.351 559.537 611.045C552.903 611.064 547.111 611.163 540.495 611.556C539.961 616.854 540.285 631.993 540.462 637.477C545.329 637.303 568.562 636.23 570.508 639.756L569.789 641.152C567.621 643.085 559.315 642.379 556.129 642.509C550.982 642.719 546.019 643.212 540.903 643.6C539.802 650.626 541.287 677.184 537.693 680.181L536.688 679.985C533.61 676.778 535.394 651.788 535.193 645.349C534.877 635.215 535.047 624.134 534.992 613.961C534.942 604.439 538.724 605.594 546.886 606.055ZM557.235 640.997C557.381 639.003 548.545 640.101 546.882 640.234C546.735 640.63 546.641 640.687 546.687 641.002C546.868 641.168 556.3 640.983 557.235 640.997Z"/><path fill="#ffffff" d="M546.886 606.055C555.663 606.059 563.946 606.899 572.769 605.63C574.731 605.348 576.926 608.847 574.439 610.196C570.727 611.213 563.448 611.351 559.537 611.045L560.35 609.844C557.691 609.444 554.136 609.649 550.98 609.377C550.647 609.51 550.644 609.579 550.326 609.472C550.081 608.761 550.434 607.927 550.677 607.264C548.343 607.137 548.802 607.456 546.886 606.055Z"/><path fill="#ffffff" d="M550.98 609.377C551.869 606.164 561.466 609.193 561.553 609.713C561.161 609.76 560.879 609.817 560.35 609.844C557.691 609.444 554.136 609.649 550.98 609.377Z"/><path fill="#ffffff" d="M537.811 614.725C539.152 617.202 538.496 627.878 537.78 630.458C537.09 624.5 536.595 620.667 537.811 614.725Z"/><path fill="#ffffff" d="M537.278 651.697C539.623 653.906 538.26 661.265 537.819 664.198C536.559 661.479 536.821 654.676 537.278 651.697Z"/><path fill="#ffffff" fill-opacity="0.98823529" d="M546.882 640.234C548.545 640.101 557.381 639.003 557.235 640.997C556.3 640.983 546.868 641.168 546.687 641.002C546.641 640.687 546.735 640.63 546.882 640.234Z"/><path fill="#ffffff" d="M445.761 813.173C447.312 813.717 449.927 814.508 449.452 816.777C445.055 837.373 439.478 858.055 433.187 878.151C431.615 883.173 427.578 904.502 425.702 906.528C423.304 906.115 422.817 906.424 421.723 904.238C422.016 898.792 425.746 887.167 427.327 881.576C429.791 872.667 432.205 863.744 434.568 854.807C437.95 842.041 441.087 829.442 443.817 816.523C444.16 814.9 444.629 814.304 445.761 813.173ZM427.089 891.494C427.987 890.083 430.586 883.425 429.749 882.143C429.561 882.181 428.957 882.231 428.774 882.444C428.932 884.525 427.286 888.588 427.089 891.494ZM442.207 835.631C443.329 833.236 444.926 827.99 444.341 825.349C443.538 827.911 441.889 832.996 442.207 835.631Z"/><path fill="#ffffff" fill-opacity="0.98823529" d="M429.749 882.143C430.586 883.425 427.987 890.083 427.089 891.494C427.286 888.588 428.932 884.525 428.774 882.444C428.957 882.231 429.561 882.181 429.749 882.143Z"/><path fill="#ffffff" fill-opacity="0.98823529" d="M444.341 825.349C444.926 827.99 443.329 833.236 442.207 835.631C441.889 832.996 443.538 827.911 444.341 825.349Z"/><path fill="#ffffff" d="M435.752 859.316C437.104 860.65 434.733 865.128 434.067 867.189C432.34 866.749 435.261 860.634 435.752 859.316Z"/><path fill="#ffffff" d="M937.448 644.832C943.469 637.765 947.989 633.743 957.276 632.267C960.874 631.695 963.226 634.956 961.087 636.109C953.285 640.138 948.243 635.59 943.701 646.18C940.105 654.566 937.701 664.815 937.811 673.999C937.887 680.369 934.164 681.742 932.262 676.185C931.611 674.281 932.444 665.636 932.552 662.879C932.652 660.143 932.581 657.444 932.906 654.757L932.538 641.248C932.533 640.096 931.024 629.714 936.72 634.039C938.567 635.442 937.592 642.313 937.448 644.832ZM938.112 653.332C939.055 651.667 939.613 650.745 939.361 648.879C938.383 650.56 937.46 651.432 938.112 653.332Z"/><defs><linearGradient id="gradient_1" gradientUnits="userSpaceOnUse" x1="930.25092" y1="652.27264" x2="938.49066" y2="643.97736"><stop offset="0" stop-color="#ffffff"/><stop offset="1" stop-color="#ffffff"/></linearGradient></defs><path fill="url(#gradient_1)" d="M932.538 641.248L933.232 641.33C937.788 641.837 937.359 640.673 935.923 646.428C933.992 649.533 935.701 652.111 934.174 655.887C934.072 656.323 933.755 658.345 933.412 658.593L933.355 658.582C933.144 658.207 932.988 655.453 932.906 654.757L932.538 641.248Z"/><path fill="#ffffff" d="M934.174 655.887C935.701 652.111 933.992 649.533 935.923 646.428C936.018 648.421 934.952 663.693 934.122 664.732C933.441 664.997 933.341 663.107 933.27 662.739L932.552 662.879C932.652 660.143 932.581 657.444 932.906 654.757C932.988 655.453 933.144 658.207 933.355 658.582L933.412 658.593C933.755 658.345 934.072 656.323 934.174 655.887Z"/><path fill="#ffffff" d="M932.552 662.879C932.652 660.143 932.581 657.444 932.906 654.757C932.988 655.453 933.144 658.207 933.355 658.582L933.412 658.593C933.755 658.345 934.072 656.323 934.174 655.887C933.942 658.926 934.083 659.801 933.27 662.739L932.552 662.879Z"/><path fill="#ffffff" d="M945.019 641.108C944.716 641.462 943.021 643.776 942.667 643.602C941.94 641.411 949.816 635.323 951.807 636.14C951.821 636.196 951.834 636.252 951.847 636.308C951.548 636.778 947.996 638.513 947.169 638.992L946.776 639.646C946.345 640.39 945.787 640.748 945.019 641.108Z"/><path fill="#ffffff" d="M945.019 641.108C945.576 640.056 946.197 639.744 947.169 638.992L946.776 639.646C946.345 640.39 945.787 640.748 945.019 641.108Z"/><path fill="#ffffff" fill-opacity="0.98431373" d="M939.361 648.879C939.613 650.745 939.055 651.667 938.112 653.332C937.46 651.432 938.383 650.56 939.361 648.879Z"/><path fill="#ffffff" d="M207.614 528.187C209.847 528.506 210.102 528.379 211.378 529.774C211.857 531.568 211.882 531.437 211.301 533.193C210.53 534.132 209.869 534.84 208.611 535.163C196.68 538.231 184.76 541.247 172.981 544.881C169.248 546.033 165.444 547.228 161.585 547.837C157.689 547.479 156.241 545.342 158.388 541.75C161.994 539.519 200.963 529.596 207.614 528.187Z"/><path fill="#ffffff" d="M190.785 535.133C190.969 535.972 190.63 536.184 189.748 536.445L185.072 537.773C184.163 538.012 183.254 538.252 182.352 538.516C182.273 536.842 189.074 535.563 190.785 535.133Z"/><path fill="#ffffff" d="M201.603 502.528C206.632 504.272 205.557 509.304 202.081 510.101C186.568 513.657 169.484 521.328 154.09 524.167C151.27 523.216 150.479 521.884 150.964 519.026C151.685 518.021 152.469 517.147 153.709 516.809C169.958 512.382 185.621 507.911 201.603 502.528ZM173.466 515.456C174.557 515.218 182.486 513.245 182.231 512.224C182.102 512.124 182.21 512.18 181.776 512.11C181.846 512.092 169.093 514.99 173.466 515.456Z"/><path fill="#ffffff" fill-opacity="0.98039216" d="M181.776 512.11C182.21 512.18 182.102 512.124 182.231 512.224C182.486 513.245 174.557 515.218 173.466 515.456C169.093 514.99 181.846 512.092 181.776 512.11Z"/><path fill="#ffffff" d="M926.849 605.151C928.563 605.733 929.459 606.14 930.247 607.75C928.889 616.872 916.735 640.28 912.978 650.072C911.272 654.519 903.761 674.679 901.505 677.72C899.086 676.863 898.327 676.838 897.369 674.372C897.608 671.546 911.091 642.685 913.383 637.217C915.254 632.754 925.534 606.916 926.849 605.151ZM911.088 648.92C911.78 647.495 914.038 643.735 912.816 642.425C912.201 643.789 909.757 647.923 911.088 648.92ZM904.037 666.102C904.718 664.808 907.569 660.501 906.195 659.436C905.657 660.745 902.774 665.868 904.037 666.102Z"/><path fill="#ffffff" d="M923.867 619.93C923.824 622.154 920.386 628.617 919.206 630.636C918.742 628.118 922.429 622.085 923.867 619.93Z"/><path fill="#ffffff" fill-opacity="0.97254902" d="M912.816 642.425C914.038 643.735 911.78 647.495 911.088 648.92C909.757 647.923 912.201 643.789 912.816 642.425Z"/><path fill="#ffffff" fill-opacity="0.98431373" d="M906.195 659.436C907.569 660.501 904.718 664.808 904.037 666.102C902.774 665.868 905.657 660.745 906.195 659.436Z"/><path fill="#ffffff" d="M878.031 714.465C874.917 714.382 871.811 714.101 868.732 713.622C861.752 712.512 868.073 707.908 870.466 706.236C873.493 704.122 876.492 700.116 879.453 697.645C882.41 695.178 886.887 689.135 885.374 685.026C884.029 681.419 877.34 680.669 874.912 683.421C873.929 684.522 871.492 689.505 869.941 689.747C866.613 690.266 868.338 684.964 869.001 684.004C869.938 682.437 872.681 679.031 874.501 678.54C887.127 675.138 894.894 684.306 886.445 695.503C882.724 700.436 879.865 703.43 875.865 707.963C874.816 709.152 876.501 709.381 877.257 709.526C876.595 713.309 877.335 711.495 878.031 714.465Z"/><path fill="#ffffff" d="M278.394 827.552C291.491 828.291 306.642 833.43 320.006 834.431C324.761 834.787 325.503 837.757 322.292 841.093C316.349 840.792 310.599 838.962 304.747 838.018C296.994 836.928 289.235 835.238 281.496 834.112C277.515 833.532 275.521 830.921 278.394 827.552ZM303.544 834.823C300.979 833.594 299.13 833.397 296.364 833.635C299.04 834.993 300.618 835.094 303.544 834.823Z"/><path fill="#ffffff" fill-opacity="0.97647059" d="M296.364 833.635C299.13 833.397 300.979 833.594 303.544 834.823C300.618 835.094 299.04 834.993 296.364 833.635Z"/><path fill="#ffffff" d="M273.847 848.425C283.569 847.655 303.05 854.787 313.507 855.969C318.431 856.526 320.914 857.132 319.925 862.117C314.857 863.284 303.93 859.701 297.744 858.572L294.994 858.059C289.481 857.005 283.526 855.943 277.995 855.054C272.815 854.22 273.025 853.218 273.847 848.425ZM302.695 856.84C300.647 854.665 296.467 854.486 293.632 854.665C295.851 855.876 300.145 856.39 302.695 856.84Z"/><path fill="#ffffff" fill-opacity="0.97254902" d="M293.632 854.665C296.467 854.486 300.647 854.665 302.695 856.84C300.145 856.39 295.851 855.876 293.632 854.665Z"/><path fill="#ffffff" d="M608.233 639.541C603.635 639.567 589.767 642.071 590.339 636.512C590.745 632.563 597.147 634.692 599.876 634.347C610.836 635.188 621.805 634.369 632.763 634.086C634.637 634.037 635.123 638.326 632.916 638.831C628.472 639.848 622.16 639.446 617.589 639.52L608.233 639.541Z"/><path fill="#ffffff" d="M609.085 637.273C610.399 638.378 615.138 638.326 616.648 637.35L617.589 639.52L608.233 639.541L609.085 637.273Z"/><path fill="#ffffff" d="M609.085 637.273C609.599 635.96 615.882 635.924 616.648 637.35C615.138 638.326 610.399 638.378 609.085 637.273Z"/><path fill="#ffffff" d="M789.723 693.419C788.649 693.881 783.591 696.403 782.992 696.432C775.324 696.81 785.606 690.848 787.057 690.27C789.07 689.467 791.144 684.758 793.946 687.307C795.487 693.447 795.171 706.283 795.029 712.477C795.104 713.69 795.187 714.792 795.312 716.005C793.347 715.983 791.381 715.993 789.416 716.035C785.116 713.206 791.132 714.143 789.855 712.483L790.166 710.571C790.806 706.596 789.989 697.679 789.723 693.419ZM792.751 703.487C793.126 700.314 793.495 697.194 792.122 694.294C792.011 696.196 791.358 702.283 792.751 703.487Z"/><path fill="#ffffff" fill-opacity="0.98823529" d="M792.122 694.294C793.495 697.194 793.126 700.314 792.751 703.487C791.358 702.283 792.011 696.196 792.122 694.294Z"/><path fill="#ffffff" d="M610.707 659.502C608.612 659.501 593.07 660.048 592.26 659.009C586.747 651.937 606.806 654.525 610.604 654.612C610.452 655.843 610.455 655.765 610.77 657.001L610.992 657.646C610.888 658.278 610.79 658.866 610.707 659.502Z"/><path fill="#ffffff" d="M965.641 583.225C972.52 581.146 978.207 586.602 976.324 593.148C975.761 591.324 976.085 590.495 975.561 588.694L973.536 588.189C973.046 588.543 972.944 588.585 972.553 589.004C970.92 587.897 970.551 587.037 968.523 586.879L966.654 586.736C964.458 588.147 957.48 598.655 958.227 589.184C958.397 587.023 963.252 584.2 965.146 583.369L965.641 583.225ZM965.124 584.754C964.327 585.535 964.779 585.677 965.66 585.752C967.212 585.537 970.441 586.102 969.556 583.977C967.452 584.158 967.145 584.209 965.124 584.754Z"/><path fill="#ffffff" fill-opacity="0.98431373" d="M969.556 583.977C970.441 586.102 967.212 585.537 965.66 585.752C964.779 585.677 964.327 585.535 965.124 584.754C967.145 584.209 967.452 584.158 969.556 583.977Z"/><path fill="#ffffff" d="M965.641 583.225C972.52 581.146 978.207 586.602 976.324 593.148C975.761 591.324 976.085 590.495 975.561 588.694L973.536 588.189C973.046 588.543 972.944 588.585 972.553 589.004C970.92 587.897 970.551 587.037 968.523 586.879L966.654 586.736L965.66 585.752C967.212 585.537 970.441 586.102 969.556 583.977C967.452 584.158 967.145 584.209 965.124 584.754L965.146 583.369L965.641 583.225Z"/><path fill="#ffffff" d="M965.146 583.369L965.641 583.225C967.437 583.804 967.666 583.736 969.556 583.977C967.452 584.158 967.145 584.209 965.124 584.754L965.146 583.369Z"/><path fill="#ffffff" d="M886.113 666.004C898.115 665.194 893.728 671.584 888.202 669.969C884.159 668.787 870.634 670.817 869.612 668.741C869.8 664.7 879.366 665.52 882.067 665.849C883.416 665.889 884.765 665.94 886.113 666.004ZM882.634 666.925C882.161 667.31 882.083 667.358 881.72 667.502L881.451 667.862L881.539 668.015C882.087 668.16 887.316 668.276 887.613 667.337C887.296 667.283 886.98 667.229 886.663 667.175C885.252 667.046 884.058 666.974 882.634 666.925Z"/><path fill="#ffffff" fill-opacity="0.98431373" d="M886.663 667.175C886.98 667.229 887.296 667.283 887.613 667.337C887.316 668.276 882.087 668.16 881.539 668.015L881.451 667.862L881.72 667.502C882.083 667.358 882.161 667.31 882.634 666.925C884.058 666.974 885.252 667.046 886.663 667.175Z"/><path fill="#ffffff" d="M882.067 665.849C883.416 665.889 884.765 665.94 886.113 666.004L886.663 667.175C885.252 667.046 884.058 666.974 882.634 666.925L882.067 665.849Z"/><path fill="#ffffff" d="M789.789 664.334C793.199 667.016 790.097 672.592 790.604 677.09C791.37 683.898 787.022 683.804 786.955 677.625C787.063 674.863 787.118 672.476 787.098 669.708C786.407 670.192 783.091 672.856 782.509 672.553C781.14 671.841 779.971 670.625 782.005 669.634C784.747 668.299 787.384 666.064 789.789 664.334Z"/><path fill="#ffffff" d="M965.214 603.972C965.887 605.604 965.612 605.591 967.235 606.298C967.345 607.142 964.502 607.544 965.669 609.064C964.408 610.784 963.571 611.147 964.695 612.923C964.732 613.606 964.503 614.325 964.349 615.007C963.784 615.89 963.871 615.88 963.836 616.951C962.308 617.103 956.304 616.745 955.117 615.388C953.794 613.876 955.289 612.111 956.688 611.198C959.84 609.141 962.532 606.636 965.214 603.972Z"/><path fill="#ffffff" d="M617.509 654.61C622.013 654.43 626.513 654.177 631.008 653.85C634.849 653.563 634.79 656.824 633.23 658.221C632.188 659.154 620.247 659.03 618.402 659.196C617.946 658.677 617.84 658.513 617.445 657.929C618.27 657.553 618.673 657.619 618.935 656.719C618.449 656.024 617.973 655.32 617.509 654.61Z"/><path fill="#ffffff" d="M972.553 589.004C972.944 588.585 973.046 588.543 973.536 588.189L973.787 589.073C973.932 589.609 974.053 590.548 974.685 590.716C975.128 590.472 975.434 589.1 975.561 588.694C976.085 590.495 975.761 591.324 976.324 593.148C975.798 597.227 971.276 603.067 968.897 606.261C967.859 607.33 966.99 608.456 965.669 609.064C964.502 607.544 967.345 607.142 967.235 606.298C965.612 605.591 965.887 605.604 965.214 603.972C966.336 602.603 968.041 600.729 969.249 599.42C971.331 595.011 973.945 594.917 972.553 589.004Z"/><path fill="#ffffff" d="M965.214 603.972C966.336 602.603 968.041 600.729 969.249 599.42C968.312 604.884 965.056 604.58 968.897 606.261C967.859 607.33 966.99 608.456 965.669 609.064C964.502 607.544 967.345 607.142 967.235 606.298C965.612 605.591 965.887 605.604 965.214 603.972Z"/><path fill="#ffffff" d="M964.695 612.923C967.084 612.905 969.228 612.668 971.651 612.658C973.697 612.821 980.878 612.684 976.869 616.797C976.013 617.676 965.699 616.954 963.836 616.951C963.871 615.88 963.784 615.89 964.349 615.007C964.503 614.325 964.732 613.606 964.695 612.923Z"/><path fill="#ffffff" d="M964.695 612.923C967.084 612.905 969.228 612.668 971.651 612.658C967.213 613.65 972.812 615.597 965.986 615.806C964.995 615.836 964.987 615.701 964.349 615.007C964.503 614.325 964.732 613.606 964.695 612.923Z"/><path fill="#ffffff" d="M877.981 709.615C881.345 709.538 884.151 709.575 887.501 709.694C896.471 710.036 896.594 714.241 888.553 714.43C886.143 714.451 883.828 714.468 881.42 714.416C881.811 712.986 881.809 713.747 882.72 713.01C883.286 710.676 880.056 710.358 877.981 709.615Z"/><path fill="#ffffff" d="M887.501 709.694C896.471 710.036 896.594 714.241 888.553 714.43C888.521 712.617 887.874 711.468 887.501 709.694Z"/><path fill="#ffffff" d="M789.416 716.035C787.884 716.173 778.224 717.002 777.344 715.867C775.194 713.095 779.488 712.571 781.497 712.89C784.27 713.331 787.117 712.909 789.855 712.483C791.132 714.143 785.116 713.206 789.416 716.035ZM786.802 715.226C786.857 713.225 785.236 714.025 783.388 714.16C784.135 715.916 784.909 715.228 786.802 715.226Z"/><path fill="#ffffff" fill-opacity="0.97647059" d="M783.388 714.16C785.236 714.025 786.857 713.225 786.802 715.226C784.909 715.228 784.135 715.916 783.388 714.16Z"/><path fill="#ffffff" d="M795.029 712.477C796.862 712.505 805.442 711.897 805.348 714.721C805.272 717.024 796.77 716.057 795.312 716.005C795.187 714.792 795.104 713.69 795.029 712.477Z"/><path fill="#ffffff" fill-opacity="0.98823529" d="M877.257 709.526L877.981 709.615C880.056 710.358 883.286 710.676 882.72 713.01C881.809 713.747 881.811 712.986 881.42 714.416L878.031 714.465C877.335 711.495 876.595 713.309 877.257 709.526Z"/><path fill="#ffffff" d="M610.604 654.612C613.496 654.779 614.63 654.708 617.509 654.61C617.973 655.32 618.449 656.024 618.935 656.719C615.934 656.169 613.575 655.706 610.77 657.001C610.455 655.765 610.452 655.843 610.604 654.612Z"/><path fill="#ffffff" d="M610.992 657.646C613.273 657.853 615.231 657.792 617.445 657.929C617.84 658.513 617.946 658.677 618.402 659.196C615.662 659.481 613.444 659.491 610.707 659.502C610.79 658.866 610.888 658.278 610.992 657.646Z"/><path fill="#ffffff" fill-opacity="0.98431373" d="M610.77 657.001C613.575 655.706 615.934 656.169 618.935 656.719C618.673 657.619 618.27 657.553 617.445 657.929C615.231 657.792 613.273 657.853 610.992 657.646L610.77 657.001Z"/><path fill="#ffffff" fill-opacity="0.90588236" d="M973.536 588.189L975.561 588.694C975.434 589.1 975.128 590.472 974.685 590.716C974.053 590.548 973.932 589.609 973.787 589.073L973.536 588.189Z"/><path fill="#ffffff" fill-opacity="0.031372551" d="M532.296 909.211L533.864 910.046C533.723 910.268 533.192 911.379 532.74 911.337C532.424 911.061 532.335 909.525 532.296 909.211Z"/></svg>