<?xml version="1.0" encoding="utf-8" ?><svg xmlns="http://www.w3.org/2000/svg" xmlns:xlink="http://www.w3.org/1999/xlink" width="1280" height="832" viewBox="0 0 1280 832"><path fill="#3E3B3C" d="M36.0788 240.957C64.7542 239.899 99.7185 240.717 128.768 240.697L312.497 240.81L827.488 240.762C828.34 273.083 827.797 307.305 827.751 339.756L827.781 498.652C828.03 535.3 828.07 571.95 827.9 608.599C827.883 614.251 828.16 643.416 827.119 646.531L825.781 646.764L34.8467 646.649C33.6539 590.746 34.3916 532.374 34.6356 476.376L34.609 337.812L34.5345 268.657C34.5319 260.379 34.2554 250.328 34.86 242.026C34.9022 241.448 35.2918 241.451 36.0788 240.957ZM36.824 243.509L36.9863 526.701L37.0189 607.782C37.0077 614.451 36.3494 639.063 37.0073 644.451C63.8862 645.441 98.1567 644.394 125.488 644.357L292.229 644.441L825.731 644.55L825.731 350.767L825.605 271.134C825.596 265.923 826.319 246.761 825.536 243.003L284.063 243.115L114.693 243.01L64.3744 243.132C56.8209 243.152 44.0451 242.84 36.824 243.509Z"/><path fill="#010001" d="M256.67 486.687C260.112 485.776 261.807 488.8 262.94 491.506C263.428 492.673 264.104 491.979 265.005 492.495C265.482 494.592 262.996 494.288 262.183 495.67C260.134 499.155 257.846 499.131 254.257 498.632C254.14 498.543 254.024 498.453 253.907 498.363L253.823 498.378C252.81 499.593 254.578 502.911 251.828 503.595C251.578 503.478 250.755 503.061 250.738 502.793C250.598 500.616 250.374 488.128 250.907 487.059C250.483 487.338 255.967 486.841 256.67 486.687ZM257.794 496.833C260.658 492.137 260.544 489.931 255.411 488.367C252.652 492.734 252.497 494.767 257.794 496.833Z"/><path fill="#FDFBFD" fill-opacity="0.011764706" d="M255.411 488.367C260.544 489.931 260.658 492.137 257.794 496.833C252.497 494.767 252.652 492.734 255.411 488.367Z"/><path fill="#010001" d="M482.715 486.369C484.134 486.337 490.301 485.903 490.854 487.05C490.464 488.226 489.706 488.553 488.677 489.167C488.418 490.917 491.385 490.854 487.529 494.103C481.85 498.888 492.773 493.74 490.331 502.52C488.088 503.242 484.45 503.968 482.186 503.281C476.402 501.527 480.535 499.942 481.303 499.113C479.767 495.828 478.651 498.714 480.71 494.128C481.678 491.971 476.891 491.084 482.715 486.369Z"/><path fill="#FDFBFD" d="M483.022 489.118C483.929 488.181 485.425 488.162 486.354 489.076C487.284 489.99 487.29 491.487 486.369 492.409C485.458 493.321 483.983 493.327 483.064 492.424C482.145 491.52 482.126 490.044 483.022 489.118Z"/><path fill="#FDFBFD" d="M481.971 499.067C484.703 498.962 487.799 497.934 488.098 501.119C485.333 501.424 482.28 502.514 481.971 499.067Z"/><path fill="#010001" d="M582.653 411.161C586.325 412.052 588.325 413.338 588.122 417.552C587.932 421.52 587.137 423.374 583.267 424.179C580.909 424.671 580.708 423.462 579.588 423.528C579.227 424.035 579.825 424.8 580.066 425.263C579.527 426.932 579.425 428.931 577.48 428.972C577.288 428.82 576.38 428.106 576.423 427.257C576.66 422.607 576.082 416.415 576.806 411.999C576.859 411.712 577.457 411.673 577.612 411.67C578.228 411.66 578.914 412.715 579.154 413.032C579.73 413.022 581.79 411.619 582.653 411.161ZM584.115 422.297C586.324 416.436 586.453 414.078 580.287 413.551C577.933 419.283 578.368 421.557 584.115 422.297Z"/><path fill="#010001" d="M443.707 480.855C444.612 481.216 445.692 481.336 445.624 482.532C445.335 487.587 446.366 493.643 445.347 498.45C445.308 498.63 444.247 498.476 444.084 498.467C440.861 497.919 440.422 498.88 436.336 498.531C434.626 495.203 433.419 491.672 435.868 488.378C437.812 485.763 440.485 486.73 442.977 486.555C443.301 486.532 442.366 482.53 443.163 482.002C443.2 481.975 443.715 480.838 443.707 480.855ZM440.902 497.159C444.173 493.235 444.885 489.756 439.446 487.839C436.387 492.013 435.736 494.755 440.902 497.159Z"/><path fill="#010001" fill-opacity="0.94117647" d="M390.21 406.508C394.301 408.271 391.49 411.558 392.652 412.957C394.242 412.592 394.646 410.733 397.5 411.747C402.528 413.534 401.338 418.759 400.019 422.62C397.088 424.412 395.976 424.775 392.82 422.959C392.38 422.577 390.97 424.709 390.671 423.716C389.542 419.976 390.045 410.041 390.21 406.508ZM395.581 423.014C400.324 419.974 400.47 415.036 394.85 413.191C390.448 416.806 391.053 420.074 395.581 423.014Z"/><path fill="#010001" fill-opacity="0.96078432" d="M483.236 406.668C487.025 408.985 484.525 411.197 485.491 412.968C486.256 413.25 498.155 408.191 493.262 422.527C486.481 426.409 488.1 422.991 485.377 422.633C484.798 422.956 484.949 423.64 484.154 423.992C482.316 423.519 483.115 408.964 483.236 406.668ZM489.768 422.814C493.128 418.514 492.905 414.72 487.342 413.397C485.687 415.048 483.575 418.289 485.597 421.601C485.729 421.817 489.149 422.654 489.768 422.814Z"/><path fill="#010001" fill-opacity="0.93333334" d="M124.627 546.125C125.049 546.476 126.371 548.168 126.806 547.86C133.392 543.196 136.543 549.634 134.825 555.69C134.249 557.717 131.527 558.358 130.299 558.821C129.729 558.556 126.98 557.007 126.553 557.186C125.841 558.222 127.051 561.107 126.413 562.174C126.2 562.528 124.684 562.479 124.656 562.15C124.32 558.158 124.09 549.969 124.627 546.125ZM131.939 556.942C134.087 551.435 134.145 548.67 128.19 547.997C123.864 553.893 125.594 555.746 131.939 556.942Z"/><path fill="#010001" fill-opacity="0.95686275" d="M349.445 296.48C354.236 298.742 352.457 295.341 356.535 296.299C360.545 297.241 360.046 302.952 359.088 305.934C358.586 307.496 356.634 307.93 355.253 308.589C354.624 308.325 351.949 307.07 351.444 307.133C350.857 307.849 351.283 310.657 350.89 311.491C350.518 312.281 349.003 312.108 348.969 310.97C348.915 309.199 348.704 306.641 348.955 304.868C349.34 302.151 348.142 298.808 349.445 296.48ZM356.337 306.394C358.669 300.633 358.224 298.354 352.198 297.85C349.89 303.45 350.067 305.962 356.337 306.394Z"/><path fill="#010001" fill-opacity="0.97254902" d="M234.508 412.315C236.614 411.459 239.021 411.842 240.758 413.309C242.495 414.777 243.275 417.087 242.782 419.307C242.289 421.527 240.606 423.291 238.411 423.886C235.29 424.732 232.05 423.002 231.016 419.938C229.982 416.873 231.512 413.534 234.508 412.315ZM238.364 422.952C241.719 418.135 241.468 414.566 235.448 413.607C232.235 418.407 232.047 421.703 238.364 422.952Z"/><path fill="#010001" d="M282.905 415.003C282.41 413.881 281.931 412.352 283.693 411.986C286.327 411.439 291.723 411.677 291.988 415.357C292.168 417.865 292.335 421.093 291.923 423.554C291.721 424.557 289.946 422.586 289.47 422.817C287.645 423.702 286.094 424.674 283.969 424.106C283.004 423.847 282.197 423.185 281.753 422.29C280.706 420.146 281.672 418.373 282.936 416.608L282.905 415.003Z"/><path fill="#FDFBFD" d="M282.905 415.003C284.653 414.112 288.285 413.18 289.44 415.352C289.147 416.998 284.472 416.542 282.936 416.608L282.905 415.003Z"/><path fill="#010001" fill-opacity="0.95686275" d="M378.233 448.682C386.533 448.956 387.663 456.422 382.135 461.058C372.883 460.743 371.339 454.126 378.233 448.682ZM380.803 459.89C384.363 455.544 384.554 451.988 378.646 450.354C375.314 454.944 374.975 457.772 380.803 459.89Z"/><path fill="#010001" fill-opacity="0.96078432" d="M485.717 449.04C488.855 448.327 491.985 450.261 492.751 453.386C493.517 456.512 491.637 459.675 488.525 460.494C486.465 461.037 484.272 460.426 482.789 458.896C481.306 457.365 480.764 455.154 481.371 453.111C481.978 451.068 483.639 449.512 485.717 449.04ZM488.469 458.413C489.739 457.853 490.595 456.639 490.696 455.255C490.796 453.872 490.125 452.546 488.95 451.808C487.775 451.071 486.289 451.044 485.087 451.737C483.362 452.731 482.716 454.901 483.616 456.677C484.516 458.453 486.647 459.216 488.469 458.413Z"/><path fill="#010001" fill-opacity="0.95686275" d="M455.154 449.262C458.169 448.379 461.347 450.016 462.379 452.984C463.411 455.952 461.934 459.208 459.021 460.386C457.003 461.202 454.701 460.841 453.031 459.445C451.361 458.05 450.595 455.848 451.039 453.717C451.484 451.586 453.065 449.874 455.154 449.262ZM458.865 459.434C461.696 453.966 460.555 451.304 454.685 450.917C452.86 456.386 452.938 458.697 458.865 459.434Z"/><path fill="#010001" fill-opacity="0.95686275" d="M110.624 334.224C113.604 332.922 117.075 334.292 118.361 337.28C119.647 340.268 118.258 343.731 115.263 345.001C112.293 346.261 108.862 344.884 107.586 341.92C106.31 338.956 107.668 335.517 110.624 334.224ZM115.245 344.067C117.103 338.852 117.256 335.812 111.158 335.378C108.91 341.08 108.931 343.408 115.245 344.067Z"/><path fill="#010001" fill-opacity="0.95294118" d="M277.004 295.598C277.353 295.681 277.702 295.768 278.049 295.858C284.955 297.697 285.564 305.325 278.619 308.232C270.271 306.899 269.965 299.814 277.004 295.598ZM279.638 306.485C282.341 301.385 281.828 298.702 276.044 297.852C273.251 303.058 273.624 305.665 279.638 306.485Z"/><path fill="#010001" d="M548.583 411.937C551.96 411.653 557.6 411.039 557.343 418.216C557.297 419.475 552.259 418.358 551.238 419.511C548.461 422.649 554.856 421.718 556.085 421.567C559.702 423.353 550.28 426.162 547.635 423.043C544.152 418.937 545.276 415.539 548.583 411.937Z"/><path fill="#FDFBFD" d="M550.299 413.449C552.341 414.048 555.209 414.315 553.582 416.791C550.394 416.451 547.647 417.302 550.036 413.867L550.299 413.449Z"/><path fill="#010001" fill-opacity="0.94509804" d="M126.427 296.04C129.52 295.844 132.227 298.097 132.597 301.174C132.967 304.251 130.87 307.081 127.819 307.624C125.687 308.004 123.519 307.172 122.188 305.463C120.856 303.755 120.579 301.449 121.468 299.474C122.357 297.498 124.265 296.176 126.427 296.04ZM128.315 306.522C131.831 302.062 131.181 298.172 124.932 297.932C122.364 302.97 122.664 305.271 128.315 306.522Z"/><path fill="#010001" fill-opacity="0.96470588" d="M217.436 584.84C220.575 584.029 223.773 585.931 224.559 589.077C225.345 592.222 223.416 595.406 220.265 596.166C217.149 596.917 214.011 595.016 213.234 591.906C212.458 588.796 214.333 585.642 217.436 584.84ZM220.491 595.185C223 590.275 223.116 587.085 217.444 586.079C214.332 590.842 214.754 593.506 220.491 595.185Z"/><path fill="#010001" d="M272.072 486.256C274.118 486.663 279.036 487.856 278.456 492.851C278.305 494.149 271.035 492.582 270.843 495.091C270.707 496.871 276.986 496.411 278.438 496.56C271.54 503.536 257.042 492.141 272.072 486.256ZM274.802 491.503C276.668 488.981 272.286 488.672 270.803 488.47C268.406 492.571 270.582 491.342 274.802 491.503Z"/><path fill="#FDFBFD" fill-opacity="0.98823529" d="M270.803 488.47C272.286 488.672 276.668 488.981 274.802 491.503C270.582 491.342 268.406 492.571 270.803 488.47Z"/><path fill="#010001" d="M409.276 486.397C412.669 487.026 416.966 487.66 415.998 493.42C415.885 494.094 411.138 493.42 410.395 494.121C410.174 494.33 408.873 495.216 409.61 495.939C411.331 496.82 414.043 495.898 416.074 495.768C410.826 505.089 396.263 491.833 409.276 486.397Z"/><path fill="#FDFBFD" d="M407.668 488.867C410.646 488.685 411.644 488.39 413.289 491.147C411.427 491.272 406.992 492.405 407.525 489.658L407.668 488.867Z"/><path fill="#010001" d="M344.868 333.164C348.036 333.167 350.462 332.809 352.197 336.139C355.858 343.167 345.377 339.144 344.387 341.034C344.644 344.134 348.95 343.3 350.776 343.097C351.372 342.941 351.308 342.923 351.895 343.065C352.036 343.229 352.278 343.363 352.291 343.579C352.313 343.951 352.257 344.252 352.01 344.546C351.385 345.291 349.638 345.564 348.742 345.638C346.603 345.815 344.564 345.503 342.96 343.972C341.782 342.847 341.161 341.365 341.196 339.738C341.244 337.535 341.943 335.735 343.604 334.247C344.015 333.878 344.451 333.527 344.868 333.164ZM350.299 338.19C348.669 335.09 348.295 335.471 344.967 335.631C345.279 339.151 346.876 338.069 350.299 338.19Z"/><path fill="#FDFBFD" fill-opacity="0.062745102" d="M344.967 335.631C348.295 335.471 348.669 335.09 350.299 338.19C346.876 338.069 345.279 339.151 344.967 335.631Z"/><path fill="#010001" d="M361.774 486.245C365.48 486.41 369.262 486.553 369.713 492.548C369.854 494.426 358.781 492.15 361.991 495.627C363.084 496.812 366.007 496.607 367.559 496.723C368.157 496.601 368.614 496.427 369.046 496.937C369.344 498.498 366.511 498.66 365.632 498.816C358.823 500.023 355.204 491.519 360.417 487.321L361.774 486.245Z"/><path fill="#FDFBFD" d="M361.243 488.746C364.392 488.565 365.208 488.235 366.63 491.308C362.869 491.287 361.286 492.518 361.243 488.746Z"/><path fill="#010001" d="M421.375 489.002C420.635 487.38 421.228 486.915 422.986 486.601C426.909 485.902 430.501 486.625 430.448 491.322C430.422 493.565 430.775 496.256 430.349 498.378C430.128 499.322 427.542 497.571 427.257 497.692C425.552 498.415 423.597 499.209 421.759 498.415C417.752 496.195 419.92 493.446 422.12 491.483C422.652 491.463 429.28 491.636 426.999 489.357C425.77 488.129 423.073 488.963 421.375 489.002Z"/><path fill="#010001" d="M224.434 486.249C228.324 486.9 231.651 488.068 231.274 492.887C231.144 494.55 222.124 492.928 222.196 494.43C222.327 497.118 227.271 496.801 229.081 496.845C231.927 495.703 230.461 500.493 222.804 498.185C221.537 497.789 220.485 496.893 219.894 495.704C217.756 491.298 220.706 488.082 224.434 486.249Z"/><path fill="#FDFBFD" d="M223.219 488.689L224.943 488.727C227.197 488.789 228.169 489.136 227.977 491.516C224.303 491.352 222.144 492.601 223.219 488.689Z"/><path fill="#010001" fill-opacity="0.96078432" d="M269.34 451.377C269.734 450.61 272.09 445.879 272.249 445.811C278.157 443.284 275.189 461.268 274.711 464.381C273.041 457.355 273.16 455.293 273.169 448.001C271.367 453.411 270.591 460.05 267.014 452.315L266.488 450.496C266.374 450.102 266.232 449.601 265.878 449.393C265.282 449.658 265.529 452.602 265.53 453.202C265.512 454.268 265.427 459.366 264.244 459.667C263.379 459.282 263.362 446.974 263.907 445.851C267.283 444.411 268.309 449.038 269.34 451.377Z"/><path fill="#010001" d="M642.421 411.372C644.522 411.844 649.697 412.78 648.88 417.667C648.594 419.38 641.375 418.297 640.118 419.023C639.461 419.402 640.358 420.862 640.806 421.145C642.547 422.827 645.145 422.199 647.293 421.981C649.399 423.832 642.794 424.505 640.402 423.535C639.106 423.016 638.073 421.996 637.537 420.706C635.548 415.851 638.032 412.946 642.421 411.372ZM645.549 416.633C647.46 414.092 643.371 413.778 641.761 413.512C639.445 417.56 640.534 416.256 645.549 416.633Z"/><path fill="#FDFBFD" fill-opacity="0.094117649" d="M641.761 413.512C643.371 413.778 647.46 414.092 645.549 416.633C640.534 416.256 639.445 417.56 641.761 413.512Z"/><path fill="#010001" d="M686.026 411.91C688.028 411.843 689.781 411.53 691.591 412.475C693.983 413.739 697.149 418.599 692.193 418.664C691.196 418.678 686.055 418.46 685.677 419.136C685.694 421.148 688.462 421.852 690.141 421.736C698.151 420.788 692.883 423.857 690.318 423.938C682.799 424.178 680.134 417.37 686.026 411.91ZM690.987 416.789C693.278 414.343 688.527 413.684 687.09 413.436C684.696 417.68 686.629 416.628 690.987 416.789Z"/><path fill="#FDFBFD" fill-opacity="0.47450981" d="M687.09 413.436C688.527 413.684 693.278 414.343 690.987 416.789C686.629 416.628 684.696 417.68 687.09 413.436Z"/><path fill="#010001" d="M316.229 486.315C319.234 486.556 324.068 487.309 323.383 492.548C322.622 494.055 315.301 492.602 315.033 494.337C314.613 497.054 320.995 496.667 321.902 496.725C327.1 495.754 316.056 502.28 312.99 496.383C310.447 491.494 312.015 489.03 316.229 486.315ZM320.285 491.312C320.693 488.301 317.602 488.617 315.591 488.655C314.491 492.294 317.017 491.199 320.285 491.312Z"/><path fill="#FDFBFD" fill-opacity="0.98431373" d="M315.591 488.655C317.602 488.617 320.693 488.301 320.285 491.312C317.017 491.199 314.491 492.294 315.591 488.655Z"/><path fill="#010001" d="M597.508 411.322C601.273 412.392 603.816 413.284 603.575 418.205C603.521 419.317 594.153 417.846 594.498 419.577C595.091 422.558 600.01 422.135 601.88 422.18C602.281 422.175 602.861 422.04 602.895 422.567C600.369 426.665 588.323 422.608 592.487 415.055C594.021 412.272 594.692 412.36 597.508 411.322ZM600.209 416.705C601.391 413.471 597.886 413.656 595.782 413.552C594.166 417.868 596.022 416.703 600.209 416.705Z"/><path fill="#FDFBFD" fill-opacity="0.82745099" d="M595.782 413.552C597.886 413.656 601.391 413.471 600.209 416.705C596.022 416.703 594.166 417.868 595.782 413.552Z"/><path fill="#010001" d="M456.696 296.247C460.976 295.944 463.451 295.783 464.867 301.024C465.941 305.001 457.618 301.806 456.1 303.52C456.224 305.021 458.842 305.905 460.149 305.992C461.357 305.892 463.905 305.177 464.419 306.581C461.075 311.793 446.723 305.232 456.696 296.247ZM461.068 301.021C462.897 298.55 459.608 298.197 457.79 297.783C455.57 301.658 456.861 300.627 461.068 301.021Z"/><path fill="#FDFBFD" fill-opacity="0.97647059" d="M457.79 297.783C459.608 298.197 462.897 298.55 461.068 301.021C456.861 300.627 455.57 301.658 457.79 297.783Z"/><path fill="#010001" d="M173.65 411.923C175.848 411.805 182.794 411.256 181.813 417.829C181.565 419.494 173.659 417.906 173.483 419.499C173.32 420.972 175.315 421.66 176.251 421.692C183.195 421.954 182.374 423.602 177.196 424.054C170.627 424.627 167.741 417.458 173.65 411.923Z"/><path fill="#FDFBFD" d="M174.932 413.524C176.524 413.84 180.18 414.256 178.527 416.564C173.78 416.335 172.419 417.513 174.932 413.524Z"/><path fill="#010001" d="M408.194 411.916C412.953 411.459 414.925 411.949 417.094 416.726C417.549 418.206 416.326 418.435 415.343 418.452C411.854 418.513 403.413 418.033 411.301 422.705C419.788 420.995 415.238 424.267 412.193 424.327C404.887 424.47 403.109 417.325 408.194 411.916Z"/><path fill="#FDFBFD" d="M409.704 413.476C411.71 413.878 414.73 414.276 412.991 416.802C408.413 416.43 407.618 417.437 409.704 413.476Z"/><path fill="#010001" fill-opacity="0.98823529" d="M439.732 449.346C441.147 448.298 441.004 448.814 441.973 449.695C443.076 450.696 443.8 448.442 445.637 448.738C448.258 449.159 448.238 451.309 448.188 453.508C448.159 455.506 448.186 457.779 448.012 459.749C447.943 460.538 446.486 460.51 446.267 460.183C444.946 458.216 446.17 453.96 445.627 451.66C445.348 450.477 442.972 451.221 443.085 452.881C443.226 454.96 443.143 457.364 443.125 459.473C442.919 460.164 442.803 460.611 441.94 460.643C441.659 460.654 441.384 460.555 441.174 460.366C439.433 458.782 442.551 449.859 438.804 451.237C436.506 452.081 439.584 460.559 436.243 460.704C434.822 459.206 435.967 454.261 435.394 452.274C434.339 448.622 437.032 450.124 439.732 449.346Z"/><path fill="#010001" fill-opacity="0.97647059" d="M314.425 448.74C315.535 449.038 322.647 450.543 321.361 455.393C321.073 456.478 312.76 455.189 311.802 456.327C312.629 459.64 316.131 459.491 318.615 459.139C318.718 459.063 320.521 457.863 320.243 458.609C318.138 464.256 306.955 460.412 310.076 452.284C310.593 450.92 311.663 449.839 313.02 449.305C313.507 449.115 313.939 448.944 314.425 448.74ZM318.403 454.234C318.99 450.73 314.827 451.188 312.641 451.122C311.873 455.464 313.449 453.815 318.403 454.234Z"/><path fill="#010001" d="M112.286 371.307C116.606 371.436 120.081 371.522 119.551 377.305C119.356 379.428 110.85 377.203 111.181 379.001C111.726 381.972 115.779 381.527 117.852 381.485C120.461 379.373 118.899 384.892 113.436 383.384C107.122 381.64 106.861 375.017 112.286 371.307ZM116.661 376.42C118.282 373.977 114.865 373.236 113.127 372.79L112.822 373.256C109.872 377.314 112.925 376.252 116.661 376.42Z"/><path fill="#FDFBFD" fill-opacity="0.50588238" d="M113.127 372.79C114.865 373.236 118.282 373.977 116.661 376.42C112.925 376.252 109.872 377.314 112.822 373.256L113.127 372.79Z"/><path fill="#010001" d="M81.6319 295.764L82.922 296.04C85.9456 296.67 87.2464 298.158 87.8005 301.303C88.3986 304.697 75.1705 300.189 80.0916 305.534C81.0453 306.57 84.7939 306.044 86.0904 305.945C90.6134 308.056 72.3112 311.73 76.8663 299.121C77.5346 297.271 80.0468 296.316 81.6319 295.764Z"/><path fill="#010001" fill-opacity="0.95294118" d="M329.224 411.98C338.871 411.717 338.123 414.196 337.368 423.4C337.348 423.653 336.664 423.831 336.522 423.862C335.569 423.458 335.882 422.926 335.304 422.273C335.236 422.274 332.552 423.831 330.485 424.298C327.556 423.195 326.315 421.652 328.03 418.145C329.053 416.055 334.949 416.433 335.005 416.347C336.852 413.545 330.31 413.547 328.938 413.874C328.452 413.984 328.335 413.314 328.836 412.579L329.224 411.98ZM333.577 422.445C337.245 417.624 334.863 418.258 330.593 418.185C328.27 421.819 330.283 422.238 333.577 422.445Z"/><path fill="#010001" fill-opacity="0.94509804" d="M221.739 448.943C231.284 448.677 229.4 450.319 229.884 460.487C229.895 460.717 229.16 460.891 229.005 460.921C228.172 460.609 227.671 459.428 227.469 459.505C224.828 460.515 224.181 461.068 221.218 461.331C219.878 459.618 218.048 457.958 219.756 455.436C221.874 452.306 227.862 455.685 227.298 452.376C226.692 448.822 220.613 452.413 220.298 450.161C220.705 449.475 221.026 449.405 221.739 448.943ZM226.676 458.784C228.066 454.009 225.213 455.38 220.944 455.818C221.519 459.904 223.122 459.564 226.676 458.784Z"/><path fill="#010001" fill-opacity="0.98039216" d="M366.796 296.36C370.748 296.158 374.963 295.789 375.155 301.434C375.26 304.524 363.497 300.884 367.14 305.023C368.213 306.242 369.125 306.346 370.705 306.307C381.437 304.339 369.591 311.206 365.86 306.673C362.435 302.513 363.37 299.982 366.796 296.36ZM371.948 300.838C372.294 300.667 372.22 300.735 372.443 300.45C372.746 298.407 369.311 298.074 368.021 297.871C365.57 301.996 366.666 300.604 371.948 300.838Z"/><path fill="#010001" d="M411.752 296.237C415.269 296.059 421.443 297.069 419.449 302.193C418.037 303.349 409.128 301.319 411.921 304.697C413.085 306.105 414.897 306.008 416.552 306.094C424.43 303.301 413.991 311.903 409.967 306.288C407.097 302.283 408.511 299.327 411.752 296.237ZM417.152 300.557C415.77 297.717 414.987 298.182 412.051 298.184L411.843 298.987C411.083 301.731 415.388 300.642 417.152 300.557Z"/><path fill="#FDFBFD" fill-opacity="0.8509804" d="M412.051 298.184C414.987 298.182 415.77 297.717 417.152 300.557C415.388 300.642 411.083 301.731 411.843 298.987L412.051 298.184Z"/><path fill="#010001" fill-opacity="0.92941177" d="M281.972 448.892C291.544 448.82 289.813 452.095 289.832 460.315C289.833 460.585 289.144 460.841 289.002 460.888C287.232 460.345 288.961 458.555 284.985 460.755C283.768 461.428 281.507 460.893 280.111 460.7C278.126 455.641 279.689 454.361 285.31 454.025C285.268 454.028 286.364 454.141 286.293 454.135C286.929 454.189 288.148 454.093 287.724 453.128C286.641 449.108 283.453 451.119 280.8 450.996C279.945 450.956 282.096 448.757 281.972 448.892ZM286.561 459.442C289.32 454.493 286.164 455.59 282.355 455.796C280.684 459.586 283.713 459.319 286.561 459.442Z"/><path fill="#010001" d="M318.869 292.213C329.263 291.604 333.853 294.306 321.62 294.38C321.07 294.384 321.362 297.725 321.612 298.179C322.831 298.751 325.567 298.144 326.918 298.646C329.332 299.543 327.604 300.564 325.941 300.595L321.415 300.669C321.421 301.094 321.35 305.319 321.49 305.389C322.934 306.161 327.716 305.078 328.613 306.419C329.979 308.463 319.767 307.78 318.794 307.781C318.773 302.695 318.669 297.268 318.869 292.213Z"/><path fill="#010001" fill-opacity="0.98039216" d="M158.086 584.354C161.839 584.936 164.094 585.544 164.924 589.868C165.399 592.339 158.051 590.653 156.826 591.365C156.108 591.782 156.388 592.212 156.66 592.63C158.103 594.852 160.207 594.583 162.579 594.893C168.131 592.414 158.832 600.815 154.818 593.932C152.233 589.5 153.918 586.834 158.086 584.354ZM161.301 589.533C164.662 588.385 159.783 586.397 158.669 585.936C155.135 590.147 156.517 589.154 161.301 589.533Z"/><path fill="#FDFBFD" fill-opacity="0.023529412" d="M158.669 585.936C159.783 586.397 164.662 588.385 161.301 589.533C156.517 589.154 155.135 590.147 158.669 585.936Z"/><path fill="#010001" fill-opacity="0.96470588" d="M454.727 411.907C456.991 411.89 459.762 411.372 461.286 413.469C466.858 421.122 457.794 417.142 454.211 419.041C452.86 419.758 456.78 422.584 457.08 422.805C457.912 422.721 461.519 422.099 461.96 422.588L461.837 422.631L461.662 423.362C453.2 426.893 447.981 418.534 454.727 411.907ZM460.292 416.913C460.624 413.532 457.619 413.774 455.194 413.596C454.016 418.126 454.858 416.635 460.292 416.913Z"/><path fill="#010001" fill-opacity="0.98823529" d="M507.685 411.47C507.927 411.577 509.96 412.169 509.716 412.848C508.25 417.38 507.105 419.302 505.315 423.922C504.342 426.433 500.892 431.14 497.621 427.586C496.453 426.317 501.578 426.188 502.208 426.123C503.675 421.013 497.691 415.226 498.64 412.504L499.478 412.317C501.805 413.516 501.969 417.78 503.335 417.591C505.129 415.9 506.582 413.664 507.685 411.47Z"/><path fill="#010001" fill-opacity="0.98823529" d="M729.753 407.604C744.329 407.139 741.137 414.519 732.273 421.415C733.576 421.493 739.82 421.359 739.907 422.813C739.968 423.849 739.042 423.705 738.281 423.783C734.714 423.755 731.388 423.739 727.81 423.598C729.973 421.108 738.176 414.144 736.863 410.904C735.626 407.851 726.465 413.265 729.753 407.604Z"/><path fill="#010001" fill-opacity="0.96862745" d="M714.461 406.399C720.049 408.111 715.15 411.798 717.243 413.007C717.862 412.791 718.242 412.377 718.845 412.15C726.589 409.23 725.047 417.944 724.769 422.53C724.747 422.878 723.926 423.595 723.577 423.749C722.081 423.622 722.495 417.311 722.481 416.156C722.356 413.656 721.363 413.333 718.733 413.841C714.384 414.683 718.625 425.824 714.754 423.448C714.263 423.147 714.434 407.705 714.461 406.399Z"/><path fill="#010001" fill-opacity="0.98823529" d="M160.018 480.029C161.129 480.037 164.43 479.821 165.348 480.438C165.487 480.531 165.602 480.742 165.511 480.976C164.968 482.384 162.315 481.662 161.642 482.256C160.303 483.846 161.174 487.154 160.738 489.133C160.447 490.453 158.353 490.729 158.435 491.574C159.182 492.561 158.691 491.851 159.658 492.278C162.038 493.111 160.215 498.954 161.308 500.345C162.047 501.286 163.486 499.904 165.353 502.178C157.323 504.929 158.647 499.104 158.165 493.564C157.643 492.304 151.881 491.919 155.943 490.044C161.039 487.693 156.004 485.518 160.018 480.029Z"/><path fill="#010001" fill-opacity="0.98823529" d="M246.712 327.706C247.703 327.555 249.141 327.232 250.004 327.421C254.439 327.287 253.176 336.513 253.987 336.665C260.879 338.159 256.432 339.027 253.848 340.746C251.997 341.977 255.471 345.531 250.953 350.032C250.305 349.854 247.714 349.48 247.544 348.837C247.014 346.913 250.065 347.797 250.388 347.156C252.05 343.857 248.778 341.766 252.494 338.98C252.79 338.28 252.831 338.469 252.642 337.979C248.883 336.553 251.922 335.043 250.779 330.964C250.012 328.231 248.496 330.444 246.712 327.706Z"/><path fill="#010001" d="M527.807 479.421C535.187 480.858 533.164 482.065 533.952 488.424C534.592 489.453 536.65 489.683 536.931 491.018C537.293 492.739 535.42 492.611 534.327 492.548C533.12 492.478 533.432 495.048 533.392 496.01C533.258 499.207 533.178 500.059 531.214 502.68C529.933 502.44 528.675 502.521 527.76 501.659C527.937 499.58 529.809 500.33 530.561 499.463C531.283 498.471 529.595 492.262 531.842 492.49C533.323 492.641 533.687 491.226 532.496 490.785C529.482 489.862 532.088 485.679 530.8 483.194C529.588 480.854 526.589 482.663 527.807 479.421Z"/><path fill="#010001" fill-opacity="0.94117647" d="M471.034 424.198C466.964 421.88 466.332 417.805 468.46 413.538C470.139 410.172 474.794 412.648 475.852 412.522C476.124 412.257 475.085 405.166 477.808 407.383C477.819 407.418 479.762 427.594 476.166 422.565L476.17 421.452C475.924 419.798 476.088 414.366 475.055 414.034C468.064 411.789 468.675 419.2 471.386 423.091C471.503 423.489 471.248 423.786 471.034 424.198Z"/><path fill="#010001" fill-opacity="0.95294118" d="M251.896 445.027C252.862 445.016 258.654 445.073 258.731 446.969C258.784 448.266 253.156 446.427 252.212 447.658C251.967 447.671 251.234 448.676 251.326 448.848C253.128 452.222 267.342 455.48 255.019 461.009C253.558 460.878 248.281 460.635 248.595 458.482C250.025 457.665 252.209 459.287 253.735 458.957C264.098 456.717 251.384 452.873 250.489 452.093C247.47 449.466 249.681 447.05 251.896 445.027Z"/><path fill="#010001" fill-opacity="0.98823529" d="M365.134 443.778C366.155 443.799 369.941 443.714 370.634 444.374C370.833 445.464 368.093 446.215 367.446 446.255C365.952 446.349 364.856 446.806 364.817 448.552C364.77 450.674 370.679 448.615 370.352 450.922C370.114 452.607 366.159 451.244 365.145 452.122C364.713 453.112 364.871 457.243 364.854 458.35C364.901 459.273 365.303 461.594 363.239 460.981C362.022 460.619 362.866 456.284 362.591 455.222C362.327 454.204 363.255 451.532 361.349 451.611C360.375 451.651 358.756 451.633 358.84 450.372C358.948 448.743 361.224 449.993 362.081 449.298C363.081 446.34 362.433 446.011 365.134 443.778Z"/><path fill="#010001" d="M329.902 333.215C331.238 333.127 337.165 332.504 336.326 335.423C335.061 336.623 331.743 334.39 330.93 336.354C330.604 338.096 334.083 338.609 334.656 338.91C339.327 341.363 337.415 344.159 334.209 345.448C333.661 345.443 326.209 345.761 327.53 343.525C328.152 342.471 333.64 344.492 334.529 342.289C333.06 339.48 323.147 340.984 329.902 333.215Z"/><path fill="#010001" d="M188.993 290.621C191.825 290.743 198.227 291.362 190.926 292.724C189.077 293.069 188.261 294.183 188.727 296.005C189.05 297.266 193.25 296.088 193.657 297.521C192.303 302.685 188.724 292.043 188.667 305.201C188.605 305.892 188.68 308.054 187.135 307.626C185.009 307.038 186.935 300.591 186.013 299.035C185.814 298.7 181.243 299.428 182.815 296.847C183.619 295.769 185.87 297.672 185.875 295.067C185.879 293.182 187.697 291.65 188.993 290.621Z"/><path fill="#010001" d="M560.648 411.627C564.208 412.365 564.491 412.879 566.87 415.531C568.026 415.565 568.852 412.962 569.878 412.406C570.678 411.973 571.79 411.917 572.247 412.71C572.2 413.627 569.317 416.779 568.6 417.61C570.122 419.751 571.664 422 573.151 424.171C568.754 423.597 569.476 423.091 566.692 419.44C565.704 420.839 563.803 424.458 561.761 423.859C560.571 422.668 562.956 420.49 563.799 419.126L564.833 417.448C562.961 415.096 562.201 414.161 560.648 411.627Z"/><path fill="#010001" d="M354.628 329.715C358.422 329.274 361.992 329.232 365.82 329.37C366.956 329.41 369.205 328.905 368.634 330.947C368.342 331.991 364.077 331.126 363.939 331.599C363.31 333.76 363.551 337.454 363.514 339.806C363.487 342.708 364.46 344.744 362.229 345.199C359.131 345.831 361.651 332.799 360.642 332.245C357.74 330.649 357.494 332.855 354.628 329.715Z"/><path fill="#010001" d="M312.366 333.088C317.375 334.557 313.669 336.87 314.968 341.609C315.514 343.6 316.567 343.656 318.134 343.148C321.728 341.982 319.392 336.882 320.533 334.208C322.72 331.709 322.573 336.585 322.575 336.769C322.58 338.572 322.974 343.699 322.193 345.193C321.603 346.321 320.325 344.069 320.215 344.079C318.793 344.324 318.467 345.391 316.562 345.593C310.731 346.211 312.268 337.195 312.366 333.088Z"/><path fill="#010001" d="M161.261 416.459C173.276 422.444 157.797 426.47 155.504 422.261C156.19 420.283 161.357 422.947 162.531 421.427C164.671 418.461 154.662 419.303 155.709 414.762C157.237 408.136 170.892 414.149 162.569 414.344C161.6 414.045 159.271 413.349 158.774 414.805C158.698 415.023 158.718 415.263 158.83 415.465C159.285 416.277 160.459 416.36 161.261 416.459Z"/><path fill="#010001" fill-opacity="0.98039216" d="M659.369 411.202C664.689 413.246 663.549 414.683 663.737 420.068C663.762 420.794 663.773 424.279 662.233 423.672C659.971 422.78 662.285 416.783 660.604 414.803C659.523 413.54 658.741 413.703 657.277 413.372C657.061 413.684 656.844 413.996 656.627 414.308C654.51 416.697 656.399 420.508 655.219 423.17C655.045 423.563 653.437 423.314 653.414 422.996C653.162 419.557 652.871 415.642 653.358 412.246C653.381 412.082 654.317 411.614 654.476 411.799C655.285 411.946 655.349 412.682 655.977 413.12C656.306 413 658.59 411.589 659.369 411.202Z"/><path fill="#010001" d="M203.443 408.34C206.464 409.211 205.531 409.062 206.062 411.327C206.389 412.725 210.979 411.128 211.766 412.888C211.508 415.145 206.138 413.396 206.151 414.754C206.235 423.124 204.525 421.38 211.99 422.93C210.406 424.284 209.881 424.44 207.818 424.353C201.549 424.159 204.65 417.865 203.07 414.46C202.93 414.16 198.99 415.065 200.652 412.172C202.851 411.088 203.194 414.403 203.443 408.34Z"/><path fill="#010001" fill-opacity="0.92941177" d="M379.252 424.52C377.797 424.319 376.144 424.148 375.141 423.053C373.773 420.993 373.873 419.921 375.472 417.971C376.713 415.676 383.055 418.025 382.67 415.497C382.35 413.393 378.312 413.642 377.196 413.968C373.524 415.038 375.313 412.601 377.869 412.191C380.614 411.752 384.154 411.98 384.819 415.393C385.068 417.849 385.147 421.183 384.721 423.544C384.666 423.808 384.227 423.897 384.009 423.92C382.012 423.043 383.674 422.521 381.63 423.266L380.172 422.601C388.984 416.739 370.685 415.646 378.9 423.433L379.252 424.52Z"/><path fill="#010001" d="M246.338 292.222C249.24 293.049 247.651 293.796 248.326 295.919C248.497 296.458 253.098 295.796 253.216 296.663C253.674 300.033 247.48 296.38 248.241 299.735C248.569 301.296 247.791 303.555 248.592 305.069C249.196 306.158 252.497 306.309 253.537 306.48C252.286 308.462 250.875 308.589 248.473 308.03C244.183 307.032 246.221 301.308 245.366 298.464C245.192 297.887 242.027 298.616 242.528 296.57C244.6 294.721 244.408 299.465 246.338 292.222Z"/><path fill="#010001" fill-opacity="0.98431373" d="M525.712 289.015C526.492 289.376 528.564 289.972 527.985 291.272C527.538 292.275 525.259 292.365 524.71 292.69C523.97 293.128 524.82 297.258 524.607 298.149C524.325 300.575 522.971 299.979 522.054 301.301C521.621 301.925 524.05 302.293 524.444 303.473C524.868 304.744 524.07 308.767 524.721 309.408C526.205 310.869 526.704 309.458 528.445 311.995C516.805 311.863 526.474 307.429 520.143 302.224C516.961 299.609 520.931 300.767 521.562 299.569C523.063 296.72 521.14 292.084 524.411 289.88L525.712 289.015Z"/><path fill="#010001" fill-opacity="0.97647059" d="M389.396 326.849C390.961 327.066 391.912 327.114 393.324 327.814C396.799 328.687 394.742 334.594 395.82 335.514C399.908 338.911 400.863 338.269 396.144 339.932C393.95 340.705 397.32 345.514 392.527 349.886C391.472 349.597 390.406 349.51 389.746 348.773C390.01 347.308 392.757 347.353 392.915 346.753C393.726 343.686 392.044 340.88 395.216 338.681C395.829 338.255 393.669 336.492 393.402 335.691C392.185 332.026 394.645 329.383 389.324 328.812C388.425 328.712 389.151 327.423 389.396 326.849Z"/><path fill="#010001" d="M218.916 329.832C219.769 330.388 220.611 330.867 220.501 331.925C220.317 333.717 221.189 334.154 222.815 333.918C223.228 333.857 226.671 333.735 226.191 335.064C225.478 337.038 222.159 335.569 220.805 336.452C220.297 336.808 220.846 338.82 220.647 339.285C220.66 340.253 220.453 342.29 221.085 343.057C221.751 343.865 225.061 343.929 226.291 344.108C226.276 344.17 226.259 344.231 226.245 344.292C226.203 344.475 226.122 345.232 225.843 345.431C224.905 346.1 221.931 346.083 220.874 345.812C216.564 344.705 219.836 338.088 218.056 336.407C217.531 335.911 216.308 336.331 215.623 336.14C215.382 336.073 215.185 335.93 215.086 335.693C214.948 335.362 214.944 334.829 215.141 334.518C215.665 333.692 217.052 334.277 217.8 333.896C218.283 333.65 218.664 330.597 218.916 329.832Z"/><path fill="#010001" fill-opacity="0.97647059" d="M334.698 486.13C339.645 488.311 338.413 490.483 338.539 495.565C338.557 496.299 338.18 499.209 336.829 498.288C334.979 497.026 337.04 491.123 335.569 489.177C334.967 488.44 332.34 488.584 331.498 488.552C329.775 492.555 331.821 498.286 329.033 498.534C327.677 497.117 327.863 487.376 328.783 486.863C333.802 487.276 326.99 489.521 334.698 486.13Z"/><path fill="#010001" fill-opacity="0.96862745" d="M221.577 364.661C222.114 364.758 224.844 364.882 224.407 366.03C224.12 366.784 222.955 366.991 222.267 367.228C219.006 368.357 220.699 372.376 219.756 374.821C219.483 375.504 217.891 375.99 217.571 376.654C217.685 377.742 219.431 378.235 219.843 379.183C220.473 380.372 219.666 383.866 220.607 384.718C222.571 386.495 222.805 384.786 224.958 387.365C223.835 387.488 222.611 387.675 221.568 387.533C216.558 387.197 218.875 380.873 217.77 378.914C214.141 376.325 212.676 377.616 217.016 374.583C220.409 372.21 214.463 369.794 221.229 364.915L221.577 364.661Z"/><path fill="#010001" fill-opacity="0.98039216" d="M140.783 333.181C142.413 333.375 147.59 333.664 147.548 335.782C145.95 337.253 141.167 334.307 140.418 336.819C141.209 338.568 153.909 340.061 144.724 345.673C143.9 345.642 137.096 345.688 138.351 343.407C138.93 343.108 146.28 344.883 145.433 342.51C144.635 340.276 132.515 339.66 140.783 333.181Z"/><path fill="#010001" fill-opacity="0.98823529" d="M235.41 486.496C243.246 488.166 238.971 493.543 244.068 486.959C244.296 486.665 246.079 486.404 246.263 487.267C246.083 487.821 243.187 491.201 242.582 491.991C244.023 494.032 247.458 497.333 245.754 499.17C242.045 497.118 242.027 494.923 241.13 494.582C240.681 494.77 236.485 500.665 235.212 498.403C235.258 498.054 239.004 493.152 239.514 492.427C238.085 490.493 236.716 488.515 235.41 486.496Z"/><path fill="#010001" fill-opacity="0.96862745" d="M234.135 584.385C235.095 584.438 236.376 584.365 237.256 584.764C238.169 585.185 238.857 585.981 239.141 586.947C239.425 587.9 239.379 594.983 238.753 596.081C233.803 598.051 240.414 587.47 233.8 585.981C232.851 586.782 231.328 587.715 231.076 589.162C230.91 590.103 231.297 595.615 230.913 595.921C229.004 597.449 228.706 592.193 228.827 591.341C229.009 590.057 228.208 585.691 229.376 584.892C232.354 585.332 229.028 587.548 234.135 584.385Z"/><path fill="#010001" d="M173.574 482.105C176.363 483.572 174.998 483.404 175.779 486.257C175.982 486.999 181.791 486.148 181.066 488.009C180.433 488.854 175.639 488.192 175.62 489.166C175.466 496.793 174.187 496.093 180.98 497.098C181.157 499.435 177.904 498.94 176.255 498.671C171.854 497.954 173.917 491.649 172.981 488.978C172.804 488.473 169.65 489.073 170.606 486.896C173.94 484.506 172.414 489.547 173.574 482.105Z"/><path fill="#010001" d="M347.164 486.363C348.863 486.397 352.669 486.059 353.651 487.922C353.478 489.682 351.064 488.933 350 488.802C345.462 488.244 344.472 492.64 346.914 495.624C348.063 497.029 351.838 496.388 353.447 496.247C353.681 496.201 353.916 496.156 354.15 496.11C355.759 498.919 345.895 500.394 344.108 496.176C342.178 491.619 342.669 488.714 347.164 486.363Z"/><path fill="#010001" d="M379.09 326.624C379.868 326.73 380.988 326.675 381.663 327.084C381.7 327.161 374.903 337.557 381.563 349.398C378.692 349.575 377.586 347.788 376.9 345.046C375.187 338.199 375.727 332.741 379.09 326.624Z"/><path fill="#010001" fill-opacity="0.96470588" d="M187.096 581.131C190.809 581.529 187.819 584.414 189.822 584.839C190.402 584.962 194.594 584.257 194.848 585.886C193.999 588.256 188.552 585.379 188.999 588.35C189.37 590.813 188.36 592.708 190.148 594.806C190.992 594.877 194.01 594.927 194.413 595.231C196.009 596.435 192.536 596.381 192.537 596.381C185.721 596.837 187.06 592.511 186.31 587.619C186.13 586.761 184.16 586.62 183.97 586.149C183.326 584.563 185.532 585.295 186.2 584.973C186.324 584.653 186.851 581.999 187.096 581.131Z"/><path fill="#010001" d="M155.462 331.066C156.185 330.82 157.135 330.635 156.897 331.916C156.278 335.239 161.198 333.135 161.737 333.988C163.723 336.99 157.326 335.356 157.173 336.103C155.411 344.684 159.12 343.47 162.324 343.925C160.994 346.119 159.347 345.8 156.872 345.108C153.4 344.136 155.124 338.389 154.181 336.068C154.068 335.79 152.539 336.153 152.266 335.998C149.863 333.237 154.188 333.742 154.051 333.779C154.723 333.6 155.238 331.612 155.462 331.066Z"/><path fill="#010001" fill-opacity="0.98823529" d="M389.951 491.158C389.972 489.289 389.754 484.093 390.21 482.123C390.326 481.91 390.797 481.827 390.96 481.804C393.016 481.515 391.741 487.094 392.274 487.57C393.115 487.667 397.25 484.796 399.43 488.156C400.515 489.828 402.182 499.366 398.087 498.486C395.93 493.809 401.425 486.315 391.85 489.681C390.645 489.798 390.648 490.171 389.951 491.158Z"/><path fill="#010001" d="M671.742 411.893C672.925 411.833 679.636 411.302 678.829 414.132C677.629 414.931 673.548 413.03 672.273 414.498C667.021 420.544 673.467 421.919 676.938 422.512C677.229 422.332 679.257 421.387 678.68 422.484C676.977 425.725 670.412 424.315 669.105 421.775C666.569 416.85 668.239 414.318 671.742 411.893Z"/><path fill="#010001" fill-opacity="0.95686275" d="M237.428 448.736C238.737 448.863 243.348 449.187 243.693 450.778C242.989 451.805 236.478 449.699 236.795 452.188C238.633 454.645 246.091 453.085 244.04 459.076C243.51 460.625 240.958 460.946 239.548 461.325C237.186 460.921 230.299 459.224 236.554 458.743C237.859 458.642 241.399 460.529 242.361 457.798C241.78 454.507 228.979 455.784 237.428 448.736Z"/><path fill="#010001" d="M189.168 411.918C193.637 411.687 200.061 413.115 194.384 414.316C194.009 414.395 190.41 413.475 189.608 414.706C185.866 420.448 189.436 421.883 194.752 422.086C196.283 420.866 196.679 422.871 196.269 423.065C187.975 427.002 181.105 418.76 189.168 411.918Z"/><path fill="#010001" fill-opacity="0.96470588" d="M287.904 295.9C292.516 298.671 290.068 296.285 294.693 295.995C299.312 295.706 298.944 306.512 296.888 307.84L296.05 307.576C295.523 306.357 295.639 302.655 295.613 301.14C295.629 300.535 295.74 298.634 294.874 298.394C287.412 296.333 290.946 305.264 289.738 307.291C287.114 307.906 287.9 297.958 287.904 295.9Z"/><path fill="#010001" fill-opacity="0.98823529" d="M408.191 445.296C410.51 446.497 409.579 446.384 410.16 448.703C410.343 449.432 413.45 448.364 414.436 449.401C414.89 452.032 411.211 450.812 410.092 451.455C409.838 451.957 409.923 457.478 410.106 457.954C410.728 459.567 412.552 458.35 415.49 459.608C413.971 460.361 412.77 460.996 410.907 460.939C406.392 460.799 408.367 454.147 407.35 451.424C407.11 450.783 404.617 451.903 405.05 449.752C405.359 448.218 406.074 449.297 407.158 449.171C407.252 449.151 408.075 445.664 408.191 445.296Z"/><path fill="#010001" fill-opacity="0.95686275" d="M142.932 584.39C144.166 584.492 148.388 584.761 148.888 585.883C148.235 587.179 144.489 586.061 143.19 586.764C140.114 588.49 144.853 589.137 145.916 589.56C151.328 591.715 151.031 594.572 145.982 596.542C144.405 596.364 141.031 596.357 139.74 595.556C139.669 595.512 139.615 595.455 139.614 595.372C139.612 595.191 139.826 594.864 139.945 594.715C140.874 593.544 144.871 594.945 146.506 594.527C147.244 594.338 147.307 594.188 147.758 593.51C146.428 590.864 133.661 590.109 142.932 584.39Z"/><path fill="#010001" fill-opacity="0.98431373" d="M154.575 293.225C156.714 293.291 155.337 294.672 155.734 295.699C156.198 296.983 159.781 295.803 160.522 296.516C163.214 299.132 155.822 297.581 155.775 298.769C155.543 304.716 154.6 305.564 160.294 306.688C160.703 306.803 161.064 306.792 161.197 307.232C160.635 308.439 157 308.42 155.902 307.902C152.44 306.288 154.118 301.775 153.333 298.994C153.067 298.051 150.563 298.985 151.043 296.867C152.543 295.204 152.502 298.457 154.575 293.225Z"/><path fill="#010001" fill-opacity="0.95686275" d="M470.273 486.158C471.286 486.402 472.22 486.558 473.133 487.11C474.087 487.687 474.748 488.647 474.947 489.745C475.154 490.846 475.697 498.259 474.078 498.485C470.025 496.846 476.975 489.948 469.351 488.268C464.041 491.721 469.275 497.436 465.852 498.3C465.005 497.972 463.128 483.168 467.241 488.107C467.615 487.999 469.619 486.556 470.273 486.158Z"/><path fill="#010001" fill-opacity="0.98431373" d="M126.575 367.724C127.25 368.065 128.501 368.598 128.185 369.707C126.928 374.122 134 370.186 133.727 373.195C132.19 375.131 128.136 371.901 128.274 375.357C128.477 380.464 127.786 380.709 132.913 382.044C133.078 382.13 133.243 382.217 133.408 382.303C133.061 383.742 130.053 383.431 129.063 383.155C124.576 381.895 126.843 377.17 125.723 374.148C125.435 373.373 121.705 374.522 123.134 371.924C126.206 371.033 125.511 374.159 126.575 367.724Z"/><path fill="#010001" fill-opacity="0.95294118" d="M424.194 295.841C424.852 296.009 425.955 296.195 426.179 296.797C426.929 298.816 429.179 295.199 431.883 296.233C432.859 296.442 433.48 297.294 433.946 298.09C434.626 299.254 434.336 306.249 433.952 306.816C431.657 310.205 431.918 301.215 431.891 300.516C431.77 297.07 428.947 297.809 426.696 299.257C425.632 299.941 426.938 306.675 425.708 307.729C423.486 307.83 424.069 297.475 424.194 295.841Z"/><path fill="#010001" fill-opacity="0.98431373" d="M487.868 289.357C496.134 293.308 494.088 305.917 489.319 312.332C486.032 311.519 488.755 309.392 490.218 307.147L490.466 306.76C490.931 296.663 491.102 298.283 487.868 289.357Z"/><path fill="#010001" fill-opacity="0.98823529" d="M194.61 479.212C194.664 479.263 195.252 479.79 195.243 479.843C194.328 481.656 193.044 485.717 192.364 487.245C190.244 492.01 194.78 501.394 193.894 503.466C187.822 498.267 188.118 483.005 194.61 479.212Z"/><path fill="#010001" fill-opacity="0.97647059" d="M203.209 443.444C211.436 443.175 208.901 443.555 209.335 450.382C209.658 452.575 208.857 456.369 209.831 458.305C210.759 460.15 215.165 457.679 213.598 461.012C202.359 461.071 208.795 452.723 206.603 445.492C206.321 444.56 203.306 446.921 203.209 443.444Z"/><path fill="#010001" fill-opacity="0.98431373" d="M513.589 479.701C522.811 482.851 519.966 497.257 515.077 503.475C512.075 502.299 516.118 498.715 516.718 495.703C518.049 489.021 516.689 485.391 513.589 479.701Z"/><path fill="#010001" fill-opacity="0.93725491" d="M248.073 411.725C249.313 412.623 248.689 412.361 249.482 413.549C249.682 413.591 257.11 408.492 257.45 415.374C257.545 417.276 258.13 423.051 256.573 424.189L255.851 424.009C255.361 422.852 255.532 417.992 255.528 416.432C254.363 413.447 253.886 413.128 250.217 414.711C247.954 415.687 250.609 426.82 247.534 423.47C246.939 422.823 247.551 413.192 248.073 411.725Z"/><path fill="#010001" fill-opacity="0.90588236" d="M390.481 448.41C391.51 449.084 392.549 450.782 393.432 450.051C400.89 443.874 401.102 458.534 399.394 460.324L398.936 460.215C397.84 459.158 398.152 454.499 398.103 452.684C397.651 452.001 396.311 450.214 395.006 450.522C390.984 451.469 392.826 459.299 391.89 460.077C389.144 462.357 390.29 449.509 390.481 448.41Z"/><path fill="#010001" fill-opacity="0.94509804" d="M123.493 333.523C124.752 334.426 124.317 334.736 125.371 335.304C127.245 334.402 126.846 333.789 129.327 333.605C133.883 333.269 134.209 345.533 131.355 345.042C130.56 344.207 130.8 340.05 130.776 338.645C130.062 334.025 125.885 334.885 125.038 338.485C124.736 339.766 125.323 343.528 124.784 344.864C121.652 346.96 123.087 335.004 123.493 333.523Z"/><path fill="#010001" d="M441.766 296.393C442.893 296.319 449.452 295.475 449.363 297.82C449.302 299.417 444.177 297.203 442.754 299.022C442.086 299.875 441.343 300.432 441.434 301.948C441.541 304.512 442.599 306.055 445.155 305.866C451.254 305.53 450.37 307.304 446.24 308.004C439.129 309.209 436.426 302.244 441.766 296.393Z"/><path fill="#010001" fill-opacity="0.91764706" d="M213.474 295.876C213.643 295.966 214.591 296.459 214.673 296.552C216.938 299.129 217.218 295.51 220.632 296.114C221.576 296.288 222.407 296.846 222.924 297.656C223.833 299.079 224.328 306.646 222.497 307.793L221.828 307.477C221.349 306.395 221.398 302.519 221.359 301.14C221.15 296.496 217.317 297.462 215.565 300.372C215.264 300.873 215.656 306.673 215.387 307.362C212.526 308.63 213.495 297.991 213.474 295.876Z"/><path fill="#010001" fill-opacity="0.94901961" d="M198.456 296.222C202.974 297.911 199.397 300.922 200.89 304.856C201.067 305.321 201.626 305.776 202.141 305.866C209.37 307.135 204.046 297.901 206.926 296.555C207.803 296.715 207.98 297.263 208.119 298.069C208.078 306.631 209.426 307.995 205.058 307.067C204.757 307.003 201.222 309.096 199.658 306.986C197.85 304.546 198.468 298.949 198.456 296.222Z"/><path fill="#010001" d="M450.992 486.554C452.047 486.543 455.814 486.215 456.284 486.98C457.291 488.619 456.144 494.418 456.944 495.881C457.459 496.824 459.556 495.892 460.805 497.615L460.566 498.272C459.329 498.667 455.669 498.612 454.219 498.638C453.356 498.656 449.457 499.148 450.168 497.042C450.643 495.637 454.423 497.231 454.351 495.734C454.261 493.879 454.737 490.875 454.138 489.107C453.635 488.254 448.977 490.147 450.992 486.554Z"/><path fill="#010001" fill-opacity="0.94901961" d="M357.822 406.538C367.07 406.188 364.602 406.254 364.654 415.357C364.72 427.121 367.001 419.318 370.509 423.459C358.713 426.684 363.958 416.076 362.522 409.149C362.135 407.282 358.936 410.594 357.822 406.538Z"/><path fill="#010001" d="M622.498 412.239C627.725 411.421 630.3 410.672 629.529 415.828C629.304 417.332 629.441 420.39 629.746 421.767C629.832 422.152 632.522 421.733 632.891 422.314C634.02 424.284 630.435 423.816 630.15 423.803C629.083 423.868 624.339 424.356 623.906 424.039C621.03 421.924 626.811 421.758 626.688 421.795C627.25 420.943 626.937 417.635 626.985 416.501C627.166 412.209 625.276 415.521 622.498 412.239Z"/><path fill="#010001" d="M95.9441 333.853C97.7472 333.73 102.532 333.199 103.56 335.164C102.181 338.134 98.7632 333.574 96.157 336.771C93.8314 339.624 95.6959 343.546 99.527 343.477C108.868 342.428 99.7616 348.328 95.0112 344.34C93.7397 343.271 92.9821 341.713 92.9273 340.052C92.8432 336.945 93.8365 335.885 95.9441 333.853Z"/><path fill="#010001" fill-opacity="0.98823529" d="M233.983 295.515C235.689 295.709 238.652 295.926 238.844 298.014C238.45 298.435 237.706 298.514 237.195 298.293C235.08 297.382 231.718 298.091 231.178 300.66C230.033 306.101 233.461 305.887 237.488 306.144C238.209 305.932 238.591 305.656 238.944 306.366C238.554 308.365 232.834 308.14 231.885 307.514C224.928 302.926 229.262 297.931 233.983 295.515Z"/><path fill="#010001" fill-opacity="0.9254902" d="M300.502 448.622C306.472 450.719 304.763 454.168 304.932 459.502C304.957 460.278 303.982 460.95 303.609 460.616C301.995 459.172 303.854 454.36 302.549 452.239C301.79 451.041 300.649 450.937 299.467 450.547C297 452.714 296.672 452.583 296.931 456.163C296.67 456.888 297.633 462.024 295.268 460.297C294.8 459.955 294.856 451.652 294.9 450.505C294.906 450.362 295.245 449.679 295.401 449.734C298.604 450.872 297.442 450.619 300.502 448.622Z"/><path fill="#010001" fill-opacity="0.92941177" d="M139.01 371.615C142.261 373.171 139.289 378.985 141.19 380.697C148.669 387.434 145.048 366.206 148.352 373.698C148.366 375.598 149.268 382.742 148.114 383.262C147.587 383.137 146.506 382.117 146.696 382.029C138.048 386.007 137.927 381.459 139.01 371.615Z"/><path fill="#010001" fill-opacity="0.98039216" d="M192.18 448.842C193.91 448.677 196.112 448.106 197.467 449.52C197.674 449.736 198.201 450.34 198.019 450.548C196.599 452.164 195.091 449.605 192.272 451.432C191.435 451.981 190.864 452.854 190.697 453.841C189.961 458.434 193.66 459.073 197.015 459.445C202.843 456.063 194.886 466.022 189.682 458.854C186.737 454.798 188.462 451.61 192.18 448.842Z"/><path fill="#010001" fill-opacity="0.94901961" d="M420.595 406.574C421.79 406.503 426.011 406.218 426.509 406.884C427.84 408.668 426.151 418.741 427.051 420.996C427.761 422.776 430.869 421.957 433.091 422.807C421.444 429.531 426.071 412.914 424.374 408.8C423.809 407.429 422.158 410.91 420.595 406.574Z"/><path fill="#010001" fill-opacity="0.97647059" d="M172.857 584.514C180.502 584.687 181.031 587.543 177.53 586.91C171.718 585.858 169.841 588.622 172.627 593.717C173.207 594.777 176.912 594.481 177.984 594.476C179.739 592.901 180.14 595.032 179.399 595.518C177.462 596.895 171.631 596.876 170.325 594.485C167.914 590.071 169.237 587.072 172.857 584.514Z"/><path fill="#010001" fill-opacity="0.94509804" d="M435.434 407.223C448.3 405.375 439.323 412.811 442.694 420.954C443.361 422.566 445.751 422.361 447.309 422.875L447.696 423.005C438.071 428.857 440.343 414.57 439.994 409.696C439.924 408.723 437.163 408.547 435.434 407.223Z"/><path fill="#010001" d="M301.885 485.895C308.419 488.118 299.747 497.074 307.508 496.462C307.903 496.431 309.807 498.331 305.709 498.603C303.975 498.625 300.669 498.807 299.098 498.603C298.667 498.543 298.293 498.276 298.098 497.888C297.001 495.705 301.094 496.576 301.173 496.148C301.813 492.698 301.201 489.606 301.885 485.895Z"/><path fill="#010001" fill-opacity="0.95686275" d="M475.969 289.594C476.371 289.733 477.171 289.884 477.472 290.215C477.582 290.335 474.929 298.665 474.727 299.992C473.95 305.117 475.857 308.286 478.702 312.22C470.056 310.742 472.01 296.653 475.096 291.128L475.969 289.594Z"/><path fill="#FDFBFD" d="M533.811 407.096C534.658 406.988 535.807 406.683 536.67 406.482C540.476 407.411 539.934 414.286 536.987 414.147C535.284 413.802 534.844 413.691 533.156 413.698C531.003 412.558 530.374 407.144 532.525 407.108L533.811 407.096Z"/><path fill="#010001" d="M536.67 406.482C540.476 407.411 539.934 414.286 536.987 414.147C536.054 411.167 536.214 409.591 536.67 406.482Z"/><path fill="#010001" d="M533.156 413.698C531.003 412.558 530.374 407.144 532.525 407.108L533.811 407.096C534.362 409.395 533.764 411.464 533.156 413.698Z"/><path fill="#010001" fill-opacity="0.87450981" d="M173.582 371.222C174.771 371.726 176.413 372.192 177.073 373.421C177.808 374.788 177.72 382.451 176.549 382.914C173.821 381.208 179.667 371.976 170.914 373.663C169.582 377.02 170.726 382.574 169.064 383.398C166.964 382.909 167.804 372.207 168.588 371.818C169.491 372.114 169.486 372.951 170.16 373.449C170.741 373.371 172.362 371.896 173.582 371.222Z"/><path fill="#010001" fill-opacity="0.96470588" d="M131.626 577.084C132.267 577.383 133.146 577.643 133.715 578.017C133.67 579.026 127.575 597.475 126.84 599.967C126.134 600.053 125.328 600.292 124.806 599.689C125.269 596 130.294 581.928 131.626 577.084Z"/><path fill="#010001" fill-opacity="0.97254902" d="M217.307 412.079C227.23 411.948 221.487 414.701 223.402 421.791C223.62 422.595 226.356 422.484 226.528 422.626C228.881 424.561 221.176 423.996 220.469 424.002C219.507 423.976 217.366 424.148 216.788 423.325C218.007 421.272 222.793 425.38 220.563 414.464C220.274 413.053 216.225 415.474 217.307 412.079Z"/><path fill="#010001" d="M394.919 296.575C399.866 296.242 401.125 295.278 400.667 300.003C400.526 301.457 400.281 304.321 400.934 305.384C401.435 306.198 405.267 305.092 404.225 307.39C403.961 307.999 400.865 307.776 399.948 307.781C398.714 307.817 397.065 307.947 395.894 307.912C395.37 307.896 394.886 307.629 394.592 307.195C394.429 306.949 394.495 306.962 394.534 306.631C395.326 305.516 397.138 305.77 398.484 305.451C399.201 296.74 398.094 300.62 394.919 296.575Z"/><path fill="#010001" fill-opacity="0.95294118" d="M312.901 412.238C315.781 412.488 315.319 412.333 317.988 412.103L318.373 412.074C318.456 418.012 317.288 422.919 321.241 422.075C321.804 421.955 323.666 423.645 320.156 423.905C318.568 423.922 312.586 424.463 311.737 423.29C311.643 421.066 315.091 422.61 316.086 421.82C316.384 421.032 316.312 415.138 316.081 414.17C315.191 413.239 314.317 414.749 312.901 412.238Z"/><path fill="#010001" fill-opacity="0.98039216" d="M116.931 539.6C117.567 539.823 118.382 539.972 118.744 540.483C118.71 541.781 112.115 560.364 111.318 562.096C110.787 561.788 109.855 561.37 109.554 560.863C109.779 559.698 111.139 556.838 111.633 555.588C113.714 550.328 115.331 545.016 116.931 539.6Z"/><path fill="#010001" fill-opacity="0.98823529" d="M151.584 411.443C152.14 413.764 145.769 415.378 143.543 416.386C143.428 416.331 157.373 422.103 149.735 421.312C145.232 419.374 142.256 418.066 137.542 416.391C141.803 414.754 147.329 412.402 151.584 411.443Z"/><path fill="#010001" fill-opacity="0.98431373" d="M511.587 448.294C515.259 448.988 522.466 452.197 526.278 453.755C522.273 455.754 519.231 456.971 515.19 458.777C514.394 459.01 513.637 459.391 512.812 459.128C512.843 456.917 519.359 454.504 521.22 453.692C517.413 452.058 514.548 451.308 511.587 448.294Z"/><path fill="#010001" fill-opacity="0.9137255" d="M188.945 365.355C191.877 366.366 188.944 368.183 187.94 370.934C185.164 378.544 187.867 381.365 190.399 387.863C182.278 384.767 184.52 371.261 188.945 365.355Z"/><path fill="#010001" fill-opacity="0.93725491" d="M199.368 584.697C200.552 584.633 204.091 584.243 204.816 585.205C205.83 586.551 204.425 592.144 205.357 594.04C205.865 595.074 210.902 594.274 209.395 595.987C209.077 596.349 207.488 596.293 207.031 596.299C205.899 596.309 199.033 597.027 199.529 595.066C199.825 593.9 202.996 595.062 202.981 594.122C202.933 592.619 203.339 588.162 202.785 586.997C202.283 585.942 199.799 587.862 199.368 584.697Z"/><path fill="#010001" fill-opacity="0.97647059" d="M108.399 297.239C111.808 296.207 115.635 294.533 116.942 299.417C118.434 304.992 115.325 310.408 109.328 307.014L109.357 305.908C114.129 306.411 116.626 305.041 113.662 298.534C113.352 297.856 109.862 298.345 108.952 298.449L108.399 297.239Z"/><path fill="#010001" fill-opacity="0.98039216" d="M335.08 448.761C335.684 448.68 336.001 448.6 336.614 448.668L336.652 448.715L337.302 448.973C337.076 450.759 329.837 452.898 328.052 453.584C331.296 454.903 336.239 455.812 337.356 459.047C323.589 454.652 320.502 454.373 335.08 448.761Z"/><path fill="#010001" fill-opacity="0.96470588" d="M157.518 450.161L158.023 449.973C158.481 449.799 158.925 449.589 159.375 449.396C160.726 448.818 162.107 448.523 163.506 449.108C164.606 449.569 165.582 450.579 166.014 451.689C166.694 453.439 166.494 456.822 165.659 458.519C165.12 459.614 164.336 460.688 163.132 461.097C162.092 461.449 160.745 461.304 159.778 460.793C159.555 460.674 159.344 460.533 159.124 460.406C158.98 460.322 158.833 460.243 158.688 460.162L159.301 459.717C166.236 458.841 166.282 450.318 158.486 450.997C158.167 450.714 157.844 450.436 157.518 450.161Z"/><path fill="#010001" fill-opacity="0.98823529" d="M380.528 295.857C380.657 295.889 382.857 296.253 382.96 296.65C383.528 298.841 387.191 293.885 389.523 297.364C389.017 298.757 385.766 298.297 383.161 299.883C383.137 301.07 383.299 307.024 382.743 307.594C379.362 311.056 380.46 297.568 380.528 295.857Z"/><path fill="#010001" fill-opacity="0.98039216" d="M609.798 411.441C613.678 412.883 610.925 412.724 612.088 414.145C612.199 414.164 615.871 411.101 617.876 411.809C623.106 413.656 614.432 414.529 612.574 415.032C612.078 416.564 611.925 423.484 611.646 423.613C608.948 424.864 609.49 420.361 609.485 419.126C609.476 416.407 609.37 414.184 609.798 411.441Z"/><path fill="#010001" fill-opacity="0.98431373" d="M103.615 545.709C109.237 546.528 96.2621 550.494 96.0682 550.555C98.6802 551.621 105.101 553.024 104.719 555.897C100.249 554.241 95.7959 552.537 91.3622 550.784L103.615 545.709Z"/><path fill="#010001" fill-opacity="0.98823529" d="M524.948 411.377C525.434 414.551 520.065 415.363 517.201 416.455C517.297 416.49 530.581 421.666 523.878 421.333C519.783 419.55 516.533 418.325 512.427 416.377C516.619 414.739 520.723 412.933 524.948 411.377Z"/><path fill="#010001" fill-opacity="0.98431373" d="M150.556 448.819C155.766 449.412 143.34 453.477 143.038 453.597C144.873 454.325 153.585 456.484 151.312 458.674C146.848 457.18 142.421 455.582 138.032 453.881C142.227 451.994 146.281 450.504 150.556 448.819Z"/><path fill="#010001" fill-opacity="0.93725491" d="M337.621 301.605C336.853 300.649 334.284 297.74 334.285 296.701C335.687 295.675 337.982 299.154 339.951 299.804L340.658 301.14C341.022 302.708 341.991 303.803 343.027 305.282C344.158 306.661 345.251 307.968 342.488 307.586C341.082 307.391 340.127 303.82 339.146 303.408C337.999 303.768 336.83 306.936 335.673 307.462C331.605 309.314 336.922 302.666 337.621 301.605Z"/><path fill="#010001" d="M95.8706 370.816C99.4234 372.101 97.1826 371.401 98.2718 372.951C98.3964 372.981 98.8808 372.973 99.0967 372.723C100.146 371.507 104.947 370.224 104.267 373.175C104.185 373.533 103.225 373.755 102.805 373.748C100.933 373.719 99.5531 374.55 97.9825 375.441C97.9305 378.022 98.6931 381.438 96.9008 383.247C96.7979 383.162 96.6974 383.074 96.5922 382.991C96.4284 382.863 96.2814 382.8 96.1422 382.633C94.7642 380.978 95.5547 373.075 95.8706 370.816Z"/><path fill="#010001" fill-opacity="0.98431373" d="M242.983 583.775C246.396 584.219 252.814 587.437 256.215 589.047C252.077 591.29 249.568 592.415 245.154 594.083C244.652 594.261 243.694 594.7 243.34 594.026C243.362 592.452 250.72 589.894 252.219 589.347C248.644 587.795 245.031 586.991 242.983 583.775Z"/><path fill="#010001" d="M109.328 307.014C109.02 308.451 108.857 311.907 108.357 312.346C104.704 315.545 106.734 296.539 106.596 296.724C106.79 296.465 107.102 296.322 107.425 296.341C107.97 296.38 108.142 296.831 108.399 297.239L108.952 298.449C108.662 301.414 108.485 303.031 109.357 305.908L109.328 307.014Z"/><path fill="#010001" d="M757.771 411.361C761.043 412.011 768.149 415.024 771.511 416.451C767.609 418.384 763.621 420.14 759.559 421.711C755.941 422.678 759.448 419.04 761.675 418.958C762.029 418.945 766.61 416.88 767.293 416.571C763.35 415.242 759.755 414.632 757.771 411.361Z"/><path fill="#010001" d="M499.238 443.846C501.541 444.604 502.545 446.108 504.129 444.93C504.559 444.61 505.536 444.296 506.101 444.506C506.679 445.183 506.557 448.909 506.588 449.912C504.728 451.129 505.223 449.765 503.779 450.093C498.054 451.391 499.255 449.113 499.238 443.846Z"/><path fill="#010001" d="M158.688 460.162C156.285 462.005 158.853 464.184 156.406 465.181C154.566 464.291 155.694 455.735 155.344 453.499C155.112 452.02 154.823 446.263 157.518 450.161C157.844 450.436 158.167 450.714 158.486 450.997C157.181 454.976 156.644 456.544 159.301 459.717L158.688 460.162Z"/><path fill="#010001" fill-opacity="0.97647059" d="M137.779 546.34C141.663 546.601 147.957 549.242 152.154 550.69C147.682 552.888 145.348 553.733 140.885 555.657C134.43 555.122 147.017 551.213 147.586 550.998C144.144 549.644 140.608 548.544 137.779 546.34Z"/><path fill="#010001" fill-opacity="0.93725491" d="M304.443 411.757C304.78 411.831 305.118 411.896 305.459 411.953C307.694 412.344 307.661 414.439 305.991 414.268C299.789 413.634 300.954 418.933 300.628 423.089C297.365 426.505 299.049 413.76 299.011 412.615C298.961 411.123 301.372 414.063 301.231 413.947C301.601 413.799 303.801 412.176 304.443 411.757Z"/><path fill="#010001" fill-opacity="0.93725491" d="M143.567 296.184C144.803 296.041 146.567 295.792 147.099 297.215C146.218 299.539 143.564 296.97 140.905 299.44C139.538 300.71 139.981 305.583 139.84 307.992C139.849 307.996 138.943 307.606 138.954 307.606C138.527 307.482 138.089 306.636 138.06 306.299C137.905 304.508 137.843 302.453 137.829 300.67C137.817 299.115 137.235 296.928 139.111 296.636C139.988 297.065 139.643 297.841 140.342 298.109C140.708 297.982 142.979 296.522 143.567 296.184Z"/><path fill="#010001" fill-opacity="0.93333334" d="M160.808 371.034C167.85 375.158 157.389 371.944 156.841 376.942C156.548 379.61 157.659 382.581 155.331 382.554C154.434 381.93 154.201 372.519 155.59 371.851C156.765 371.926 156.202 372.801 157.051 373.596C157.318 373.659 159.886 371.597 160.808 371.034Z"/><path fill="#010001" fill-opacity="0.96862745" d="M188.874 349.786C186.255 345.82 187.341 344.976 186.368 340.665C185.96 339.478 182.935 339.65 182.699 338.719C182.354 337.36 185.836 338.078 186.278 338.18C190.676 342.411 188.651 340.37 189.291 346.667C189.386 347.601 192.638 347.673 193.015 349.047C192.642 350.302 189.888 349.812 188.874 349.786Z"/><path fill="#010001" fill-opacity="0.9254902" d="M100.963 587.879C101.501 587.906 103.036 587.925 103.403 588.231C105.001 589.567 100.932 590.51 100.437 591.145C99.2882 592.617 100.107 594.786 99.8151 596.656C99.3752 599.476 98.9946 599.305 96.955 600.899C96.0762 600.586 92.2762 599.253 95.9481 598.349C98.894 597.623 97.855 595.385 97.8415 593.287C97.8259 590.859 99.7382 589.291 100.963 587.879Z"/><path fill="#010001" d="M186.278 338.18C186.756 331.543 185.309 326.871 193.262 327.342C192.686 331.381 190.583 328.178 189.722 329.78C187.931 333.113 191.481 336.374 186.278 338.18Z"/><path fill="#010001" d="M286.737 489.92C286.163 492.611 287.369 499.429 284.612 498.191C282.813 497.383 284.143 490.559 283.747 488.487C283.455 486.963 285.909 485.442 286.229 488.619L286.737 489.92Z"/><path fill="#010001" fill-opacity="0.9254902" d="M470.538 449.881C478.625 446.555 477.433 454.266 476.714 459.679C476.661 460.075 475.509 460.329 475.358 459.719C474.772 456.471 475.352 454.093 474.375 450.721C472.898 450.467 471.985 450.289 470.538 449.881Z"/><path fill="#010001" fill-opacity="0.97647059" d="M264.488 296.141C264.752 299.78 263.926 302.546 265.523 305.831C264.134 307.559 262.676 307.495 261.25 305.824C262.933 304.159 262.938 299.664 261.148 298.039C262.308 297.32 263.291 296.78 264.488 296.141Z"/><path fill="#010001" fill-opacity="0.92156863" d="M93.8343 577.696C102.097 577.904 99.3675 581.219 99.9518 587.936C95.7088 585.725 98.7856 583.96 97.4868 580.485C96.9242 578.98 93.9957 580.625 93.8875 578.372L93.8343 577.696Z"/><path fill="#010001" fill-opacity="0.96078432" d="M98.3568 302.338C99.6615 303.038 102.022 306.331 102.302 307.212C102.243 307.441 102.161 307.387 101.961 307.54C99.9812 309.059 97.3321 303.142 96.6352 303.694C95.3717 304.694 94.4993 307.394 92.495 307.728C92.1803 307.785 91.1828 307.367 91.4866 306.907C92.3472 305.604 93.6481 304.192 94.7956 303.15C96.5424 302.982 96.758 303.126 98.3568 302.338Z"/><path fill="#010001" d="M281.038 336.979C279.633 336.371 278.612 334.928 280.244 334.959C284.906 335.047 289.336 332.684 291.756 336.91C287.829 336.666 284.962 336.708 281.038 336.979Z"/><path fill="#FDFBFD" fill-opacity="0.97254902" d="M281.038 336.979C284.962 336.708 287.829 336.666 291.756 336.91C291.418 337.829 291.118 338.737 290.805 339.664C287.178 338.593 284.356 338.926 280.546 338.86C280.71 338.334 281.02 337.501 281.038 336.979Z"/><path fill="#010001" fill-opacity="0.9137255" d="M470.514 451.345C467.965 454.168 470.197 460.41 467.921 460.257C467.216 459.649 467.276 455.066 467.342 453.837C467.563 449.692 466.701 447.604 470.036 451.024L470.514 451.345Z"/><path fill="#010001" fill-opacity="0.98823529" d="M698.867 415.94C702.787 415.63 707.268 414.473 709.467 417.874C705.396 418.111 700.905 419.489 698.867 415.94Z"/><path fill="#010001" d="M280.546 338.86C284.356 338.926 287.178 338.593 290.805 339.664C289.679 342.097 274.59 340.613 280.546 338.86Z"/><path fill="#010001" fill-opacity="0.97647059" d="M419.754 453.5C422.497 453.081 429.776 452.075 431.547 454.395C428.334 455.207 422.256 456.093 419.754 453.5Z"/><path fill="#010001" fill-opacity="0.98431373" d="M750.535 407.657C754.936 407.32 752.75 409.124 752.982 413.214C753.044 414.304 751.402 414.26 750.678 414.209C750.492 412.283 750.143 409.515 750.535 407.657Z"/><path fill="#010001" fill-opacity="0.94117647" d="M345.353 415.96C346.678 415.964 354.121 415.051 352.86 417.799C352.781 417.971 351.8 418.105 351.886 418.08C352.086 418.081 338.697 417.808 345.353 415.96Z"/><path fill="#010001" fill-opacity="0.90196079" d="M119.385 583.918C120.359 586.125 110.602 588.482 108.681 589.34C107.471 587.354 114.042 585.747 115.64 585.148C116.874 584.696 118.123 584.286 119.385 583.918Z"/><path fill="#010001" d="M748.072 414.327C747.58 414.288 745.769 414.357 745.777 413.828C745.834 410.204 744.239 408.305 747.73 406.893C748.338 410.319 748.253 410.92 748.072 414.327Z"/><path fill="#010001" d="M209.947 481.463C210.61 481.512 211.441 481.437 212.042 481.763C212.625 484.065 213.012 488.402 209.624 487.963C209.59 485.684 209.443 483.681 209.947 481.463Z"/><path fill="#010001" d="M207.217 488.316C206.845 488.208 206.473 488.099 206.102 487.99C205.599 487.824 205.202 487.433 205.03 486.932C204.577 485.617 204.232 481.656 206.242 481.186L206.957 480.994C207.504 484.271 207.397 485.029 207.217 488.316Z"/><path fill="#010001" fill-opacity="0.88627452" d="M389.951 491.158C390.648 490.171 390.645 489.798 391.85 489.681C392.363 498.842 390.212 503.102 389.951 491.158Z"/><path fill="#FDFBFD" fill-opacity="0.57647061" d="M348.847 444.585C348.656 447.119 348.705 447.896 348.943 450.429C347.56 450.396 346.758 450.329 345.364 450.527C345.675 447.877 345.74 447.215 345.583 444.606C345.76 444.896 346.162 445.768 346.554 445.877C347.299 445.666 346.925 445.042 348.847 444.585Z"/><path fill="#FDFBFD" fill-opacity="0.98431373" d="M206.957 480.994L209.947 481.463C209.443 483.681 209.59 485.684 209.624 487.963L207.217 488.316C207.397 485.029 207.504 484.271 206.957 480.994Z"/><path fill="#010001" fill-opacity="0.98039216" d="M502.416 480.878C505.549 481.521 505.29 487.252 501.777 487.359C501.864 484.275 501.701 484.033 502.416 480.878Z"/><path fill="#010001" d="M348.847 444.585C349.256 444.567 349.681 444.521 350.089 444.521C350.416 444.521 350.773 444.645 350.97 444.925C351.538 445.734 351.339 448.222 351.076 449.187C350.951 449.646 350.645 450.092 350.229 450.335C349.907 450.523 349.481 450.439 349.139 450.429C349.074 450.427 349.009 450.429 348.943 450.429C348.705 447.896 348.656 447.119 348.847 444.585Z"/><path fill="#FDFBFD" fill-opacity="0.98431373" d="M747.73 406.893C748.662 407.157 749.597 407.412 750.535 407.657C750.143 409.515 750.492 412.283 750.678 414.209C749.915 414.221 748.802 414.201 748.072 414.327C748.253 410.92 748.338 410.319 747.73 406.893Z"/><path fill="#FDFBFD" fill-opacity="0.23137255" d="M421.375 489.002C423.073 488.963 425.77 488.129 426.999 489.357C429.28 491.636 422.652 491.463 422.12 491.483C421.867 490.448 421.77 489.986 421.375 489.002Z"/><path fill="#010001" fill-opacity="0.88627452" d="M108.681 589.34C112.13 589.463 117.496 590.867 119.861 593.409C117.383 593.405 110.744 590.791 108.681 589.34Z"/><path fill="#FDFBFD" d="M499.438 481.416C500.337 481.323 501.505 481.059 502.416 480.878C501.701 484.033 501.864 484.275 501.777 487.359L499.969 487.352C499.448 485.388 499.605 483.532 499.438 481.416Z"/><path fill="#010001" fill-opacity="0.98431373" d="M499.969 487.352C495.475 487.643 496.588 481.693 499.438 481.416C499.605 483.532 499.448 485.388 499.969 487.352Z"/><path fill="#010001" fill-opacity="0.96470588" d="M265.523 305.831C266.457 305.899 267.868 305.846 268.672 306.406C268.992 306.511 268.884 307.324 268.631 307.35C266.913 307.529 258.8 308.178 258.049 306.824L258.735 306.305L258.336 306.365C259.426 305.858 260.054 305.905 261.25 305.824C262.676 307.495 264.134 307.559 265.523 305.831Z"/><path fill="#010001" fill-opacity="0.96862745" d="M94.9704 302.438C94.5725 301.298 92.179 297.175 92.2151 297.477C91.7716 293.759 96.7756 299.94 97.0668 300.307C95.8916 301.206 95.9439 301.248 94.9704 302.438Z"/><path fill="#010001" fill-opacity="0.98823529" d="M286.229 488.619C287.974 487.409 290.777 485.635 292.821 487.478C292.57 488.368 292.783 488.268 292.214 488.708C288.984 489 290.028 488.752 286.737 489.92L286.229 488.619Z"/><path fill="#010001" fill-opacity="0.98039216" d="M345.364 450.527C343.309 450.146 341.944 444.832 345.583 444.606C345.74 447.215 345.675 447.877 345.364 450.527Z"/><path fill="#010001" fill-opacity="0.96862745" d="M377.998 495.517C378.444 494.941 379.178 494.669 379.891 494.814C380.605 494.959 381.174 495.496 381.36 496.2C381.546 496.904 381.317 497.653 380.768 498.132C380.026 498.779 378.913 498.758 378.197 498.082C377.48 497.405 377.394 496.296 377.998 495.517Z"/><path fill="#010001" d="M626.729 406.794C627.277 406.14 628.218 405.979 628.953 406.412C629.689 406.846 630.003 407.748 629.696 408.544C629.446 409.191 628.839 409.629 628.146 409.661C627.454 409.693 626.809 409.312 626.501 408.691C626.194 408.07 626.283 407.326 626.729 406.794Z"/><path fill="#010001" d="M302.038 481.105C302.884 480.715 303.887 481.063 304.309 481.892C304.732 482.722 304.424 483.738 303.612 484.193C303.057 484.504 302.377 484.486 301.84 484.147C301.302 483.808 300.993 483.201 301.034 482.567C301.076 481.932 301.461 481.372 302.038 481.105Z"/><path fill="#010001" fill-opacity="0.94117647" d="M97.0668 300.307C100.891 294.11 103.951 295.659 98.6463 300.842L97.0668 300.307Z"/><path fill="#010001" d="M261.892 291.108C262.405 290.358 263.425 290.158 264.184 290.659C264.943 291.16 265.16 292.176 264.673 292.943C264.35 293.452 263.778 293.746 263.177 293.714C262.575 293.681 262.038 293.327 261.772 292.787C261.506 292.247 261.551 291.605 261.892 291.108Z"/><path fill="#010001" fill-opacity="0.89411765" d="M339.951 299.804C340.622 298.417 341.877 296.083 343.764 296.893C344.309 297.739 341.288 300.465 340.658 301.14L339.951 299.804Z"/><path fill="#010001" d="M315.781 406.715C316.344 406.15 317.233 406.074 317.884 406.536C318.535 406.998 318.756 407.863 318.409 408.581C318.126 409.165 317.524 409.526 316.876 409.501C316.227 409.477 315.655 409.07 315.418 408.466C315.18 407.862 315.323 407.175 315.781 406.715Z"/><path fill="#010001" fill-opacity="0.98823529" d="M398.119 291.103C398.51 290.638 399.129 290.433 399.719 290.573C400.31 290.713 400.772 291.173 400.913 291.764C401.054 292.354 400.851 292.974 400.387 293.365C399.749 293.904 398.805 293.865 398.214 293.276C397.623 292.686 397.582 291.742 398.119 291.103Z"/><path fill="#010001" fill-opacity="0.94509804" d="M203.168 579.31C203.669 578.922 204.352 578.868 204.908 579.172C205.464 579.476 205.788 580.08 205.732 580.711C205.677 581.343 205.253 581.881 204.652 582.083C203.914 582.332 203.105 582.011 202.738 581.324C202.37 580.638 202.552 579.786 203.168 579.31Z"/><path fill="#010001" fill-opacity="0.81176472" d="M471.386 423.091C473.054 422.551 474.475 421.943 476.17 421.452L476.166 422.565C474.035 423.565 473.448 424.479 471.034 424.198C471.248 423.786 471.503 423.489 471.386 423.091Z"/><path fill="#010001" d="M261.148 298.039C254.944 297.438 261.128 295.998 264.488 296.141C263.291 296.78 262.308 297.32 261.148 298.039Z"/><path fill="#FDFBFD" fill-opacity="0.15294118" d="M161.261 416.459C160.459 416.36 159.285 416.277 158.83 415.465C158.718 415.263 158.698 415.023 158.774 414.805C159.271 413.349 161.6 414.045 162.569 414.344C161.457 415.196 161.299 415.076 161.261 416.459Z"/><path fill="#010001" d="M97.0668 300.307L98.6463 300.842L98.3568 302.338C96.758 303.126 96.5424 302.982 94.7956 303.15L94.9704 302.438C95.9439 301.248 95.8916 301.206 97.0668 300.307Z"/><path fill="#010001" d="M454.695 482.087C454.914 481.918 455.434 481.357 455.808 481.55C455.911 481.855 455.808 482.09 455.675 482.372L455.415 482.979C455.211 483.133 454.584 483.778 454.199 483.589C454.089 483.276 454.235 483.012 454.381 482.733L454.695 482.087Z"/><path fill="#B8B5B9" fill-opacity="0.062745102" d="M265.53 453.202C265.529 452.602 265.282 449.658 265.878 449.393C266.232 449.601 266.374 450.102 266.488 450.496L267.014 452.315L265.53 453.202Z"/><path fill="#010001" fill-opacity="0.95686275" d="M298.317 487.388C298.602 487.251 298.98 486.925 299.317 486.994C299.568 487.208 299.52 487.283 299.655 487.704C298.691 488.319 298.835 488.294 298.317 487.388Z"/><path fill="#FDFBFD" fill-opacity="0.10980392" d="M417.598 493.559C418.04 493.418 418.35 493.255 418.594 493.326C418.543 493.639 418.09 494.072 417.962 494.229C417.701 494.257 417.454 494.347 417.238 494.233C417.244 493.979 417.449 493.783 417.598 493.559Z"/><path fill="#110F11" fill-opacity="0.81176472" d="M470.036 451.024L470.538 449.881C471.985 450.289 472.898 450.467 474.375 450.721C473.057 450.98 471.837 451.155 470.514 451.345L470.036 451.024Z"/><path fill="#010001" fill-opacity="0.80392158" d="M378.9 423.433L380.172 422.601L381.63 423.266C380.755 423.668 380.082 424.051 379.252 424.52L378.9 423.433Z"/><path fill="#3E3B3C" d="M1090.11 203.194C1091.18 203.057 1090.75 203.066 1091.86 203.483L1092.35 205.059C1092.12 205.488 1091.96 205.979 1091.64 206.345C1090.76 207.332 905.793 265.713 889.402 271.672L893.054 282.236C884.278 280.56 875.479 279.002 866.661 277.561C866.756 276.391 881.49 258.732 883.46 256.092C884.796 260.441 886.061 263.501 887.805 267.667C896.47 265.776 907.7 261.935 916.244 259.157L957.459 245.764C1001.52 231.666 1046.24 217.802 1090.11 203.194Z"/><path fill="#3E3B3C" d="M863.269 546.227C871.879 548.31 881.841 549.984 890.58 551.502L881.721 561.152L998.014 662.545C1006.46 669.902 1018.88 680.616 1027.66 688.285C1028.23 688.781 1027.79 689.708 1027.57 690.683L1026.19 690.882C1022.77 688.835 1014.37 681.21 1010.98 678.289L982.665 653.892L879.341 563.838C876.378 566.883 874.397 568.762 872.057 572.369C869.179 564.047 865.674 554.605 863.269 546.227Z"/><path fill="#010001" fill-opacity="0.98039216" d="M62.6906 213.942C68.0382 217.218 64.4268 214.193 68.4011 214.271C73.5833 214.372 74.0628 221.585 70.1483 224.614L68.6158 225.784C67.3018 225.464 65.7869 224.405 64.9893 224.669C64.5208 225.278 65.2536 227.791 64.6965 228.387C61.2005 232.126 62.5798 215.825 62.6906 213.942ZM69.1168 223.632C71.4234 218.565 71.2839 216.584 65.7264 216.019C63.6047 220.609 64.2349 223.143 69.1168 223.632Z"/><path fill="#010001" d="M162.854 214.334C165.898 214.279 170.477 213.901 170.901 219.615C171.047 221.584 165.692 219.523 165.745 222.774C165.963 223.113 168.037 223.745 168.568 223.937C168.832 223.902 169.475 223.696 169.755 223.965C169.436 227.293 153.726 224.895 162.854 214.334Z"/><path fill="#FDFBFD" d="M163.665 216.124C165.769 216.267 168.252 216.039 167.756 218.821C164.689 218.602 162.709 219.537 163.665 216.124Z"/><path fill="#010001" fill-opacity="0.98039216" d="M79.8496 214.33C83.7434 214.405 85.365 214.006 87.0514 218.124C88.885 222.601 79.7733 219.39 79.227 221.129C79.4727 222.351 81.0151 223.49 82.3432 223.346C89.8585 221.897 84.5727 225.569 81.8965 225.058C75.5503 223.844 74.4405 218.372 79.8496 214.33ZM84.0663 218.75C84.5534 215.725 82.2172 216.247 79.878 216.151C78.8838 219.581 80.9259 218.561 84.0663 218.75Z"/><path fill="#FDFBFD" fill-opacity="0.98431373" d="M79.878 216.151C82.2172 216.247 84.5534 215.725 84.0663 218.75C80.9259 218.561 78.8838 219.581 79.878 216.151Z"/><path fill="#010001" fill-opacity="0.98039216" d="M120.525 214.401C122.031 214.295 129.121 213.431 127.853 219.81C127.674 220.713 121.276 219.994 120.496 221.041C120.401 222.217 121.723 223.016 122.667 223.371C122.995 223.365 126.006 223.219 126.014 223.221C128.42 223.688 125.216 224.981 124.387 224.987C116.842 225.04 115.535 219.143 120.525 214.401ZM124.279 218.717C126.377 216.217 123.396 216.398 121.326 215.977C119.671 219.098 120.766 218.158 124.279 218.717Z"/><path fill="#FDFBFD" fill-opacity="0.93725491" d="M121.326 215.977C123.396 216.398 126.377 216.217 124.279 218.717C120.766 218.158 119.671 219.098 121.326 215.977Z"/><path fill="#010001" d="M203.923 214.454C207.314 214.244 214.578 213.403 210.053 218.178C208.703 219.604 215.945 222.448 207.812 225.42C206.29 225.231 204.695 225.198 203.215 224.81C202.792 224.699 202.447 223.828 202.856 223.542C203.675 222.87 205.085 223.177 205.958 222.976C210.016 222.042 204.742 220.118 204.367 219.893C201.667 218.28 202.786 216.465 203.923 214.454Z"/><path fill="#010001" fill-opacity="0.96862745" d="M35.3001 210.865C36.8221 210.749 43.7556 210.148 44.3893 211.687C40.9354 213.793 36.8401 210.226 37.3716 215.107C37.6563 217.72 42.8717 215.309 42.9991 217.599C42.2314 218.917 39.4422 217.248 36.8286 219.152C36.9474 219.673 37.0592 220.196 37.1639 220.721C38.0473 225.311 40.6037 221.889 43.3706 223.374C47.656 225.673 35.7453 224.973 35.2085 224.968C35.1006 220.61 35.0406 215.183 35.3001 210.865Z"/><path fill="#010001" d="M191.669 211.546C192.412 211.376 193.049 211.215 193.053 212.186C193.064 212.538 193.075 212.89 193.087 213.242C193.226 215.688 196.636 214.04 197.928 215.205C198.084 215.344 198.069 215.759 197.968 215.91C197.332 216.863 194.187 216.082 193.322 216.521C193.275 216.644 193.229 216.767 193.182 216.889C192.757 224.031 192.963 222.951 197.709 223.744C198.35 225.917 194.163 225.178 192.812 225.109C189.475 224.937 191.143 216.953 190.337 216.742C188.104 216.157 186.515 214.739 190.268 214.396C190.594 214.355 191.388 212.173 191.669 211.546Z"/><path fill="#010001" d="M149.197 214.438C151.104 214.354 155.237 213.601 155.974 215.939C154.705 217.576 149.224 214.189 148.976 219.403C148.87 221.648 150.03 223.25 152.373 223.325C153.769 223.108 155.518 222.228 155.983 223.943C153.583 227.973 140.732 223.393 149.197 214.438Z"/><path fill="#010001" fill-opacity="0.97647059" d="M219.076 218.48C218.67 217.949 215.324 214.022 218.157 214.544C219.485 214.789 220.216 216.699 221.231 217.279C222.746 217.307 222.974 213.285 226.146 214.646C226.48 215.198 223.331 218.857 222.746 219.613C223.167 220.278 226.123 224.611 226.146 224.661C225.434 226.853 222.504 223.656 221.919 221.572C222.479 218.008 222.802 218.059 219.076 218.48Z"/><path fill="#010001" fill-opacity="0.96470588" d="M107.713 223.178C107.824 222.557 108.585 217.231 107.865 216.954C104.135 215.515 104.487 214.359 108.772 214.33C113.112 214.3 107.15 223.378 112.511 223.214C112.989 223.199 113.789 223.561 114.055 223.972C113.796 224.584 108.988 224.643 108.05 224.748L107.713 223.178Z"/><path fill="#010001" fill-opacity="0.94117647" d="M92.4945 214.196C93.579 214.892 93.8669 215.522 94.8 215.994L94.7727 216.011C95.4 215.901 98.108 213.552 99.7827 214.198C100.784 214.585 100.848 216.034 99.9992 216.108C98.3014 216.256 96.8079 216.344 95.0429 216.692C94.6794 218.094 94.2857 224.268 94.1886 224.342C91.5164 226.385 92.482 215.373 92.4945 214.196Z"/><path fill="#010001" fill-opacity="0.98823529" d="M135.974 214.852C145.739 212.149 141.193 225.112 141.235 225.088C138.929 224.97 140.179 219.03 139.047 216.033C138.027 215.629 137.003 215.235 135.974 214.852Z"/><path fill="#010001" fill-opacity="0.97647059" d="M135.567 216.495C134.298 219.297 135.373 221.86 134.866 223.804C134.766 224.181 134.473 224.477 134.096 224.581C132.042 225.141 130.582 211.534 135.496 215.425L135.567 216.495Z"/><path fill="#010001" fill-opacity="0.94901961" d="M55.2785 220.158L55.4134 220.274C56.2279 220.987 58.5377 223.663 58.6071 224.623C57.6101 226.472 54.3128 221.479 53.7155 221.168C53.1211 221.266 49.8465 226.529 48.679 224.623C48.8555 223.791 51.5831 220.964 52.3169 220.367C53.5488 220.384 54.061 220.325 55.2785 220.158Z"/><path fill="#010001" fill-opacity="0.96078432" d="M52.1113 218.464C51.1511 217.801 49.4422 215.718 49.2732 214.817C49.8136 214.081 51.5472 215.257 51.8267 215.661C55.1091 220.408 54.6417 213.718 57.7999 214.946C58.2843 215.622 55.9626 218.058 55.4382 218.562C54.2164 218.477 53.34 218.437 52.1113 218.464Z"/><path fill="#010001" fill-opacity="0.96470588" d="M221.325 221.083C215.644 227.266 214.679 226.27 219.959 219.437C220.44 219.927 220.894 220.536 221.325 221.083Z"/><path fill="#010001" fill-opacity="0.95294118" d="M178.766 222.189C179.241 221.813 179.883 221.723 180.444 221.955C181.004 222.186 181.395 222.702 181.467 223.304C181.539 223.907 181.279 224.5 180.789 224.857C180.052 225.392 179.022 225.24 178.471 224.514C177.921 223.788 178.052 222.755 178.766 222.189Z"/><path fill="#010001" fill-opacity="0.98431373" d="M107.941 209.785C108.355 209.337 108.997 209.18 109.571 209.388C110.145 209.595 110.539 210.126 110.571 210.736C110.603 211.346 110.267 211.915 109.718 212.181C109.061 212.499 108.271 212.305 107.837 211.719C107.402 211.133 107.446 210.321 107.941 209.785Z"/><path fill="#010001" d="M219.076 218.48C222.802 218.059 222.479 218.008 221.919 221.572L221.325 221.083C220.894 220.536 220.44 219.927 219.959 219.437L219.076 218.48Z"/><path fill="#010001" d="M52.1113 218.464C53.34 218.437 54.2164 218.477 55.4382 218.562L55.2785 220.158C54.061 220.325 53.5488 220.384 52.3169 220.367L52.1113 218.464Z"/><path fill="#110F11" fill-opacity="0.85490197" d="M108.05 224.748C105.082 224.913 102.13 223.219 107.713 223.178L108.05 224.748Z"/><path fill="#110F11" fill-opacity="0.8392157" d="M135.974 214.852C137.003 215.235 138.027 215.629 139.047 216.033C137.906 216.222 136.717 216.35 135.567 216.495L135.496 215.425L135.974 214.852Z"/></svg>