<?xml version="1.0" encoding="utf-8" ?><svg fill="#ffffff" xmlns="http://www.w3.org/2000/svg" xmlns:xlink="http://www.w3.org/1999/xlink" width="1024" height="1024" viewBox="0 0 1024 1024"><path fill="#ffffff" d="M140.562 464.378C145.134 465.032 166.75 476.406 167.676 480.653L166.801 481.117C161.581 480.692 154.683 476.047 149.949 473.4C143.392 509.332 154.498 565.468 194.062 577.945C196.188 575.393 197.637 573.177 199.524 570.49C201.227 568.063 203.857 562.721 207.207 563.846C207.862 567.222 190.177 594.3 188.299 594.742C184.717 591.923 189.904 585.434 191.828 582.245C183.818 579.535 176.139 578.934 167.802 578.887C144.126 578.754 105.234 595.961 89.1262 612.927C87.5545 614.66 87.281 614.344 87.2443 616.099C88.8002 618.061 91.9515 618.615 94.8472 620.789L94.8366 621.6C90.2821 623.747 68.9325 612.253 66.1774 608.123L66.7788 607.271C71.0821 606.994 78.7284 611.954 82.7332 614.117C86.5246 599.72 86.8451 584.06 85.275 569.313C82.8187 546.241 66.031 521.364 47.4386 507.424C45.0152 510.797 43.2663 515.278 40.6944 518.079C40.3508 518.453 39.6717 518.172 39.048 518.053L38.685 517.134C39.0247 516.221 39.4052 515.323 39.8252 514.444C41.8701 510.158 51.4288 494.864 55.6307 493.379L55.8876 494.228C54.5979 498.081 52.4421 500.932 50.244 504.367C78.7668 512.994 129.948 495.726 146.162 470.506C143.038 468.562 140.559 468.166 140.562 464.378ZM58.0757 510.388C78.5751 530.025 90.1052 554.474 91.8744 583.096C92.0572 586.054 90.8051 603.947 91.036 604.336L91.3039 604.347C110.67 590.723 132.251 578.94 156.114 575.204C162.96 574.133 171.432 574.502 178.417 574.755C174.677 571.745 169.681 567.745 166.579 563.975C153.92 548.596 146.814 527.892 144.602 508.286C143.843 501.56 143.772 496.287 144.003 489.607C144.099 486.818 144.474 482.462 144.312 479.936C125.667 499.558 84.9499 515.357 58.0757 510.388Z"/><path fill="#ffffff" d="M119.702 516.057C121.046 516.691 122.281 518.626 121.33 518.89C111.458 521.633 110.174 521.762 110.581 535.798C111.33 535.53 119.289 532.639 119.699 532.705C120.186 532.784 120.963 535.002 119.846 535.83C117.662 537.449 113.779 539.032 111.125 540.062L113.362 548.614C115.666 547.522 122.416 543.353 124.257 544.02C130.667 546.342 115.071 551.954 113.934 552.506C113.973 552.624 114.011 552.742 114.049 552.86C114.503 554.17 114.918 555.493 115.294 556.828C115.673 557.701 120.86 568.285 116.798 566.874C115.016 566.255 111.743 555.927 110.892 553.688C101.338 557.803 102.933 552.536 110.042 550.253C109.379 546.349 109.082 544.79 108.084 540.951C97.6407 544.782 99.5076 539.755 107.526 537.087C107.605 531.356 107.806 526.767 109.336 521.186L109.727 520.922C112.872 518.762 116.03 517.096 119.702 516.057Z"/><path fill="#ffffff" d="M131.958 562.047C134.868 562.022 136.078 563.708 134.959 564.51C132.562 566.228 119.384 571.619 116.645 572.786C108.023 570.979 120.732 566.948 122.732 565.937C125.696 564.439 128.85 563.204 131.958 562.047Z"/><path fill="#ffffff" d="M137.08 538.226C138.061 537.628 139.289 537.607 140.291 538.172C141.292 538.736 141.909 539.798 141.905 540.947C141.902 542.097 141.276 543.154 140.271 543.712C138.761 544.55 136.857 544.026 135.988 542.533C135.119 541.039 135.604 539.125 137.08 538.226Z"/><path fill="#ffffff" d="M270.593 97.8932C263.931 96.4962 257.298 94.9671 250.697 93.3068C248.016 92.6066 245.204 91.6045 242.508 90.8109C239.878 90.0369 234.306 89.948 232.661 88.2815C232.079 86.8564 232.07 87.5415 232.623 86.1596C237.038 83.342 257.095 88.3852 262.601 89.6075L290.32 95.7548L398.672 120.71C427.932 127.629 457.954 132.127 487.013 140.122C491.927 141.474 516.005 147.46 515.624 152.565L514.7 153.265C513.36 153.475 511.589 153.607 510.287 153.142C477.565 141.69 443.263 137.658 409.489 130.304C390.027 126.067 371.671 121.095 352.427 116.286C337.38 112.671 322.305 109.171 307.204 105.786C296.836 103.421 286.231 100.771 275.767 99.0403C265.941 123.552 259.464 154.016 252.453 179.584C250.052 188.341 248.464 197.549 245.809 206.468C242.951 216.069 239.697 224.584 236.131 233.906C246.002 236.021 257.496 236.248 267.381 239.127C269.51 239.747 270.309 239.901 271.366 241.858C270.396 241.858 266.716 241.148 266.701 242.091C267.029 242.663 270.732 243.502 271.505 243.728C274.318 244.516 279.514 245.179 279.315 248.742L278.349 249.372C275.175 249.588 257.05 244.527 253.117 243.511L203.163 230.636C198.825 229.555 189.95 230.827 188.825 225.824C193.105 217.56 221.852 229.397 229.956 230.952L230.693 231.089C234.291 225.461 235.613 217.239 237.605 210.776C245.866 183.975 250.903 156.508 259.236 129.715C262.628 118.808 266.517 108.536 270.593 97.8932Z"/><path fill="#ffffff" d="M423.973 405.605C439.4 404.406 449.353 418.269 447.118 432.752C446.744 435.171 446.22 437.179 445.64 439.544C446.913 440.406 448.546 440.834 449.426 442.295C449.579 442.55 449.525 442.959 449.405 443.213C448.015 446.169 443.608 443.403 441.818 442.511C439.908 443.659 439.066 444.119 437 445.066C436.418 445.24 435.837 445.414 435.255 445.588C410.043 453.478 395.333 411.496 423.973 405.605ZM435.56 440.594C434.038 439.565 432.59 438.442 431.077 437.401C428.678 435.802 427.496 433.028 431.254 432.901C434.522 432.791 441.594 441.661 441.823 431.999C442.117 419.614 436.037 409.065 422.572 410.062C419.162 411.398 416.096 413.368 414.788 416.812C413.267 420.815 414.216 429.264 416.251 433.057C421.45 442.747 426.611 443.618 435.56 440.594Z"/><path fill="#ffffff" d="M453.348 791.666C470.512 792.735 481.745 836.747 458.407 839.846C446.58 838.854 442.079 828.221 440.098 817.994C437.621 805.199 438.597 793.679 453.348 791.666ZM452.621 833.45C454.196 834.9 456.134 836.792 458.49 836.564C468.453 835.601 465.806 823.457 464.971 816.716C464.855 815.788 464.803 815.557 464.02 815.093C458.408 816.425 452.434 818.086 446.884 819.659C448.86 825.867 449.035 827.898 452.621 833.45ZM446.227 816.484C449.76 815.628 452.453 814.924 455.962 813.948C458.829 813.18 460.968 812.439 463.733 811.386C461.995 806.358 459.898 798.323 454.768 795.42C453.293 794.585 451.001 794.934 449.395 795.068C442.799 800.347 444.957 808.864 446.227 816.484Z"/><path fill="#ffffff" d="M944.298 625.154C950.915 624.404 958.083 626.059 958.85 633.253C959.989 643.94 940.356 651.763 931.985 652.442C929.09 652.676 929.684 653.225 929.609 656C929.566 657.583 930.548 659.336 931.827 660.19C937.454 665.009 946.324 659.729 951.754 657.059C955.633 655.192 959.15 651.808 963.283 650.941C964.32 650.724 966.154 652.285 964.403 653.371C963.903 654.132 962.658 657.026 962.783 656.848C959.144 661.897 951.205 665.535 945.508 668.076C926.261 676.661 912.468 662.614 922.099 643.796C926.655 634.822 934.671 628.09 944.298 625.154ZM934.739 646.385C937.808 645.177 958.369 634.566 948.443 631.461C941.148 634.052 939.252 637.271 934.717 643.395C934.346 643.897 932.53 646.033 932.473 646.444C932.827 647.115 933.913 646.503 934.739 646.385Z"/><path fill="#ffffff" d="M862.336 309.737C863.936 309.91 863.901 309.959 865.394 310.623C865.818 311.18 866.514 311.808 866.396 312.511C864.853 321.724 860.157 354.532 855.01 361.094C853.489 361.657 853.539 361.795 852.02 361.366C849.934 359.803 851.3 357.343 848.831 357.771C841.991 358.956 840.119 359.943 833.904 356.088C820.758 342.538 836.131 307.514 857.035 327.725C858.368 322.142 858.593 313.856 862.336 309.737ZM845.473 354.028L846.35 353.668C855.972 350.09 859.777 326.987 844.689 327.042L843.719 327.333C836.413 329.284 828.894 353.037 845.473 354.028Z"/><path fill="#ffffff" d="M645.244 236.848C647.48 237.055 647.107 236.659 648.332 237.902C648.473 240.355 645.924 255.812 645.434 259.91C644.345 269.025 644.415 278.362 642.959 287.289C642.596 289.515 642.49 289.889 640.667 291.102L639.773 290.884C638.127 288.426 638.282 273.625 638.222 270.019C635.321 272.921 633.083 275.034 629.964 277.688C624.684 281.445 610.159 287.116 609.429 277.881C608.568 266.995 629.779 247.209 639.886 244.374C642.858 243.54 640.276 240.067 645.244 236.848ZM619.753 274.138C621.88 275.234 622.486 275.858 624.77 275.147C629.858 273.565 635.361 267.575 638.15 263.294C638.94 262.082 640.055 250.356 639.98 248.59L639.134 249.142C632.343 253.542 625.24 258.892 620.386 265.414C617.817 268.864 617.149 270.678 619.753 274.138Z"/><path fill="#ffffff" d="M519.024 149.191C523.318 150.191 527.284 155.841 529.225 159.597C543.875 187.947 535.568 216.291 524.274 244.007C516.009 264.288 510.263 276.536 490.204 287.162C488.698 287.502 487.531 287.643 486.283 286.71C485.93 283.716 493.214 279.702 496.056 277.153C509.916 264.726 515.198 248.077 521.522 231.202C530.098 208.317 534.078 183.533 524.018 160.414C521.111 153.732 518.344 154.947 517.027 152.215C517.373 150.412 517.5 150.784 519.024 149.191Z"/><path fill="#ffffff" d="M744.986 239.092C746.195 238.98 747.412 238.998 748.617 239.144C755.827 240.016 759.262 247.851 757.711 254.186C755.591 262.847 745.545 271.59 738.302 276.188C742.839 276.021 749.28 275.742 750.794 281.207C752.041 287.661 745.995 292.284 742.804 296.58C740.314 299.932 728.106 306.309 727.522 300.432L728.547 299.215C734.508 298.064 750.357 286.924 745.203 281.541C739.089 279.275 731.623 283.855 728.54 281.18C728.451 277.438 741.878 269.339 745.324 265.165C749.199 260.715 753.489 253.465 749.606 247.706C748.697 246.329 747.263 245.385 745.639 245.093C743.506 244.708 741.299 245.475 739.509 246.6C735.942 248.843 733.339 252.684 731.68 256.5C727.028 267.198 723.826 307.096 716.869 312.197L716.026 311.989C714.422 308.175 721.041 270.984 722.558 265.569C723.842 260.907 725.742 256.438 728.207 252.279C732.148 245.736 737.406 240.956 744.986 239.092Z"/><path fill="#ffffff" d="M804.592 217.308C811.691 219.431 816.397 228.992 818.461 235.674C829.448 271.23 813.108 340.188 773.729 352.364C771.996 352.391 770.257 352.621 769.309 350.987C769.946 347.668 777.736 345.454 780.595 343.74C792.089 336.848 797.413 326.54 803.433 315.039C809.786 302.902 813.206 290.516 814.222 276.727C815.49 259.517 816.097 240.921 807.15 225.458C806.262 223.928 803.19 221.921 801.825 220.313C802.332 218.696 803.201 218.32 804.592 217.308Z"/><path fill="#ffffff" d="M608.088 170.139C610.571 169.934 612.69 169.498 614.644 171.344L614.325 172.092C611.892 173.444 610.45 173.435 607.903 174.078C596.634 177.338 585.884 190.38 580.436 200.182C564.887 228.156 553.148 265.608 568.172 296.054C569.7 299.15 572.824 301.705 573.427 305.069L572.455 306.027C571.669 306.249 570.379 306.606 569.703 305.854C543.425 276.581 557.743 227.781 574.401 197.173C580.86 185.304 595.376 172.569 608.088 170.139Z"/><path fill="#ffffff" d="M184.805 838.944C186.763 838.898 187.536 838.753 188.283 840.539C187.499 843.489 179.522 847.015 179.984 851.997C180.938 862.272 184.862 871.748 188.093 881.496C190.528 888.812 192.786 896.187 194.863 903.613C198.36 916.367 200.768 933.978 183.322 939.695C174.68 942.527 166.167 932.866 165.041 925.021C164.196 919.135 164.214 915.504 167.735 910.237L168.142 909.637C170.583 907.091 174.472 904.532 178.065 905.963L178.39 906.838C177.376 912.861 172.976 909.845 170.881 914.473C168.029 921.046 172.59 931.414 178.782 934.272C182.97 936.204 188.304 933.22 189.948 929.445C201.075 903.895 171.227 874.016 176.022 848.183C176.781 844.093 181.55 840.623 184.805 838.944Z"/><path fill="#ffffff" d="M285.717 471.75L286.227 471.77C287.293 471.804 287.781 471.762 288.765 472.228C290.266 473.23 291.466 478.137 291.901 479.756C293.911 487.594 296.389 495.165 298.933 502.845C299.936 505.873 303.845 513.051 297.458 512.075C295.374 511.757 295.044 509.549 294.367 509.405C290.946 511.68 293.368 514.367 285.583 516.258C281.074 516.271 278.364 515.65 275.536 511.73C267.291 500.3 270.599 483.419 287.71 486.884C286.85 482.098 284.529 476.118 285.717 471.75ZM286.885 512.046C292.132 509.273 293.722 506.564 292.298 500.566C290.662 493.674 290.21 491.742 283.241 490.517C276.118 492.483 276.189 498.036 278.22 504.687C279.544 509.024 282.294 511.751 286.885 512.046Z"/><path fill="#ffffff" d="M569.134 778.107C576.046 777.868 580.12 781.783 582.757 787.916C587.284 798.442 589.279 810.12 576.761 815.286C559.734 814.989 553.033 783.591 569.134 778.107ZM578.293 811.561C580.162 809.667 581.752 807.498 581.511 804.756C581.27 802.022 580.747 798.128 579.91 795.507C577.341 787.46 577.363 781.581 568.234 781.491C564.342 785.572 565.017 791.67 565.992 796.999C567.241 803.828 569.334 813.556 578.293 811.561Z"/><path fill="#ffffff" d="M156.962 779.122C159.467 778.995 161.929 778.828 164.165 780.226C173.771 786.232 180.417 810.755 165.808 814.912C159.673 814.806 154.886 812.093 152.57 806.222C148.645 796.271 144.901 784.543 156.962 779.122ZM167.344 811.584C171.194 804.384 169.248 799.13 166.913 791.503C164.899 784.921 163.094 781.962 156.409 782.536C151.919 786.834 154.3 796.16 156.078 801.495C158.233 807.962 160.383 812.001 167.344 811.584Z"/><path fill="#ffffff" d="M546.726 780.707C548.914 781.746 549.238 781.656 549.859 784.256C552.579 795.668 556.454 806.796 559.283 818.135C559.039 818.916 557.106 819.441 556.694 819.423C555.166 819.358 555.453 817.638 554.697 816.937C554.661 816.933 551.243 821.561 547.747 822.441C546.689 822.697 545.623 822.92 544.551 823.11C525.544 817.441 529.881 789.629 548.021 796.016C547.289 792.16 544.033 783.773 546.325 781.176L546.726 780.707ZM548.199 819.303C551.554 817.477 551.567 817.277 553.496 813.764C552.777 811.068 550.244 800.42 547.785 798.946C546.3 798.056 543.582 798.04 541.832 798.033C532.552 803.498 538.166 820.672 548.199 819.303Z"/><path fill="#ffffff" d="M310.505 464.44L311.146 464.415C312.767 464.337 314.32 464.347 315.353 465.808C320.281 472.968 326.106 479.342 330.787 486.702C331.816 488.321 342.959 499.006 336.481 500.282C334.845 500.604 333.116 498.063 332.282 497.384C330.642 496.05 328.053 489.906 325.85 490.331C321.164 491.872 315.948 493.269 311.136 494.684C310.841 498.36 310.806 504.586 309.721 507.957C309.466 508.747 305.799 508.527 305.363 507.584C304.395 505.492 305.418 501.808 305.467 499.5C306.096 490.159 307.42 480.853 307.516 471.498C307.566 467.402 307.633 467.009 310.505 464.44ZM312.184 490.085C314.683 489.356 317.183 488.678 319.625 487.764C321.031 487.21 322.163 486.794 323.525 486.12C321.178 482.49 316.16 474.827 313.167 471.819C312.446 478.788 312.568 483.371 312.184 490.085Z"/><path fill="#ffffff" d="M221.13 493.157C223.361 493.564 222.718 496.208 222.384 496.522C219.978 498.791 207.926 501.501 205.228 502.389L204.405 502.654L203.555 502.937C204.731 507.045 205.938 511.105 206.997 515.244C209.567 514.491 223.561 509.853 224.997 510.598C231.897 514.178 211.534 518.987 208.674 520.121C210.021 525.27 210.688 528.308 212.59 533.393C215.973 532.329 219.446 531.331 222.874 530.412C224.482 530.005 231.422 527.749 232.257 528.398C239.028 533.663 218.43 536.503 215.292 538.166C209.071 541.462 207.555 538.277 205.917 532.26L205.689 531.463C204.642 527.69 196.041 502.913 197.91 500.222C199.08 498.537 217.304 493.824 221.13 493.157Z"/><path fill="#ffffff" d="M872.438 328.878L873.335 328.984C878.077 329.509 880.037 338.98 882.607 343.376L884.451 341.91C887.968 339.153 890.729 334.161 894.502 333.101C896.073 332.461 898.236 334.184 897.788 335.768C896.744 339.459 888.268 346.11 885.613 348.52C887.247 354.606 889.726 360.638 891.227 366.748C891.585 368.204 890.018 369.294 888.949 369.962L888.213 370.443C882.816 365.87 884.087 358.028 879.494 354.485C876.779 352.391 868.272 369.193 863.427 364.508C861.279 362.43 864.588 359.833 866.169 358.226C869.486 354.852 872.686 351.989 875.399 347.89C874.756 344.397 873.996 341.27 873.026 337.845C871.624 332.889 868.982 332.422 872.438 328.878Z"/><path fill="#ffffff" d="M555.136 540.034C563.996 538.916 574.102 545.64 583.684 543.893C584.557 543.734 585.108 544.612 585.53 545.282C585.425 547.156 585.726 546.355 584.734 547.819C579.437 550.684 565.269 546.242 559.284 544.916C560.392 552.098 561.824 556.639 563.625 563.443C565.86 571.889 551.486 576.716 548.124 581.295L548.417 582.006L551.11 582.605C555.847 583.599 563.253 584.888 567.003 588.107C568.067 589.02 569.356 592.167 567.701 593.425C565.571 593.501 562.099 590.613 559.076 589.686C553.637 588.019 548.359 587.161 542.853 585.691C541.654 584.451 542.024 585.184 541.846 583.35C543.14 580.147 556.143 569.778 559.64 566.709C558.227 561.035 552.607 544.51 555.136 540.034Z"/><path fill="#ffffff" d="M469.654 776.615C488.065 778.379 502.372 805.366 504.289 821.695C506.088 837.028 503.116 845.866 494.209 857.959C493.049 859.061 493.097 859.047 491.675 859.763L490.906 859.454C491.219 857.453 493.226 854.971 494.397 852.85C497.59 847.072 498.735 840.41 498.83 833.637C499.035 819.052 492.987 799.203 483.918 787.746C482.227 785.609 475.012 780.011 472.357 779.009C471.688 778.757 470.448 778.078 469.761 777.737L469.654 776.615Z"/><path fill="#ffffff" d="M426.534 786.301L427.245 786.583C427.415 787.906 424.345 791.649 423.368 793.037C410.24 811.686 419.251 845.433 433.907 860.975C437.311 864.585 442.524 866.615 444.826 869.272L444.361 869.864L442.351 869.735C442.263 869.703 442.174 869.672 442.086 869.641C434.377 866.918 427.629 862.007 422.668 855.508C409.016 837.691 406.973 800.901 426.534 786.301Z"/><path fill="#ffffff" d="M774.177 244.171C780.963 247.342 786.007 270.519 785.21 278.311C783.482 295.197 771.847 313.351 757.387 321.942C755.924 322.512 755.932 322.652 754.413 322.477L753.972 321.774C754.754 319.688 760.163 316.084 762.53 313.609C764.563 311.461 766.394 309.132 768.001 306.649C775.938 294.4 782.242 271.718 778.478 256.967C777.399 252.738 773.33 247.206 772.934 245.302L774.177 244.171Z"/><path fill="#ffffff" d="M618.058 206.059C619.407 206.125 620.078 205.98 621.139 206.755C620.653 207.654 614.304 211.362 612.403 213.166C598.213 226.591 591.382 248.016 592.21 267.247C592.426 272.274 597.467 280.311 595.827 284.384C595.675 284.3 595.524 284.215 595.372 284.13C579.927 260.746 587.387 233.062 605.558 213.727C610.776 208.174 613.826 207.153 618.058 206.059Z"/><path fill="#ffffff" d="M299.485 845.596C303.396 845.351 311.015 845.476 308.492 855.317C308.071 856.96 305.702 853.503 305.027 852.245C301.402 845.486 288.973 850.161 294.066 857.703C295.422 859.649 297.548 860.032 299.996 860.205C309.386 860.872 320.04 866.207 313.604 877.069C311.219 881.094 306.317 882.272 301.633 882.888C296.081 882.953 294.229 881.933 292.216 876.818C291.864 875.985 290.806 872.841 292.478 872.52C295.657 871.909 297.449 876.909 300.654 878.3C302.929 880.112 309.441 878.276 310.014 875.255C311.545 867.172 296.614 866.826 292.308 864.331C290.501 863.448 289.073 861.793 288.592 859.738C286.633 851.371 292.299 847.196 299.485 845.596Z"/><path fill="#ffffff" d="M341.292 170.386C341.548 170.395 342.658 170.4 342.855 170.441C376.81 177.522 410.334 186.367 444.266 193.616C447.67 194.343 453.856 194.568 455.763 196.978L455.342 198.564C451.465 199.62 431.294 194.035 425.656 192.767L382.997 182.907C371.903 180.388 352.993 177.017 341.843 173.135C341.311 172.95 341.353 171.104 341.292 170.386Z"/><path fill="#ffffff" d="M478.583 403.473C484.106 403.778 487.83 406.153 486.344 411.713C485.549 414.687 489.096 413.369 490.454 419.5L491.095 422.428C489.902 426.575 489.877 427.54 486.083 430.155C483.304 430.549 478.401 430.363 477.074 427.204C473.656 419.073 468.978 408.832 478.583 403.473ZM485.251 428.983L485.953 428.399C487.323 427.298 488.067 425.469 487.893 423.754C487.219 417.129 487.007 415.39 480.751 415.48C480.291 415.732 477.343 417.087 477.442 417.495C478.6 422.282 479.399 427.62 484.5 428.801L485.251 428.983ZM480.156 414.304C482.403 413.326 485.51 412.676 483.861 408.798C482.874 406.474 480.379 405.963 478.041 405.778C476.413 408.222 475.573 414.165 477.19 415.847C477.613 415.965 479.356 414.65 480.156 414.304Z"/><path fill="#ffffff" d="M974.601 602.786C978.771 603.879 979.48 607.442 981.468 611.149C981.893 611.059 982.321 610.981 982.743 610.89L983.546 610.71C984.662 610.47 993.243 607.629 993.003 607.558C1000.15 609.653 986.876 616.151 984.43 618.31C985.718 622.718 987.767 626.971 987.093 631.409C980.984 634.197 982.453 629.192 979.066 623.217L978.213 621.729C976.046 622.544 973.382 623.506 971.475 624.874C969.222 626.67 965.121 623.926 966.505 621.217C967.906 618.475 972.217 616.668 974.952 615.665C973.856 610.154 971.394 607.045 974.601 602.786Z"/><path fill="#ffffff" d="M682.575 738.094C685.871 737.615 686.851 740.795 682.727 741.841L680.248 742.474L679.504 742.661L678.544 742.913C679.566 747.264 682.373 769.35 690.013 762.05C691.82 760.324 692.647 763.433 691.816 764.372C686.549 770.333 680.786 767.929 679.068 760.246L678.626 758.237C678.463 757.518 678.265 756.709 678.112 755.995L677.167 751.733C676.609 749.103 675.976 746.517 675.149 743.958C671.774 744.987 668.299 745.756 664.869 746.613C665.016 747.119 665.164 747.527 665.334 748.286C666.791 754.78 670.463 763.553 670.576 769.995C670.43 770.489 669.623 770.987 669.264 771.116C667.234 771.842 666.503 768.312 666.116 766.745L665.177 762.993C663.975 758.19 662.386 751.895 660.98 747.215C659.53 747.597 654.712 749.536 653.952 747.755C652.898 745.283 657.806 744.406 659.252 744.081C667.049 742.325 674.809 739.885 682.575 738.094Z"/><path fill="#ffffff" d="M695.56 803.065C701.036 802.765 706.163 803.852 707.969 810C710.422 818.351 703.404 828.341 699.19 835.327L702.998 834.633C704.517 834.354 713.763 831.607 714.537 832.348C718.227 835.884 710.887 836.935 708.995 837.392C705.664 838.179 702.365 839.099 699.107 840.15L698.634 840.276C697.582 840.551 693.937 841.955 693.081 841.379C692.876 841.242 692.778 841.018 692.716 840.789C691.806 837.413 705.205 822.353 703.729 813.191C703.453 811.479 702.331 809.617 700.849 808.69C699.244 807.685 697.059 807.549 695.253 808.003C692.841 808.609 691.353 810.24 690.13 812.315C689.622 813.176 689.21 814.154 688.394 814.779C688.169 814.952 687.855 815.066 687.578 814.951C687.3 814.836 687.101 814.445 686.977 814.198C686.413 813.067 686.544 811.9 687.041 810.754C688.754 806.803 691.614 804.582 695.56 803.065Z"/><path fill="#ffffff" d="M351.704 836.419C355.496 828.579 363.953 826.072 371.347 830.912C374.956 839.085 375.497 847.846 378.56 856.26L382.5 857.078C382.972 857.173 385.088 857.739 385.201 858.319C385.598 860.354 380.43 860.801 379.007 861.093C375.37 861.84 371.266 864.045 367.594 863.378C366.887 863.234 367.932 861.809 368.287 861.557C369.746 860.52 371.228 859.542 372.704 858.528C372.025 854.996 371.48 852.426 370.477 848.949C369.889 846.905 369.381 844.839 368.953 842.755C368.192 839.475 367.847 834.085 363.502 833.853C360.097 833.671 355.86 834.949 353.551 837.534C352.941 837.153 352.325 836.782 351.704 836.419Z"/><path fill="#ffffff" d="M684.488 250.192C688.765 253.025 685.983 261.849 684.661 266.143C690.232 267.522 696.372 268.899 701.734 270.817C702.433 271.55 701.098 272.91 700.701 272.984C696.277 273.811 687.277 271.528 682.751 270.571C681.915 273.663 680.844 276.775 680.013 279.893C679.412 281.308 677.341 285.483 675.718 282.868C674.572 281.023 677.121 271.8 677.631 269.773C675.251 269.257 665.585 268.204 665.718 265.196C665.903 261.023 676.228 264.456 679.339 265.027L679.485 264.373C680.686 259.16 680.739 253.639 684.488 250.192Z"/><path fill="#ffffff" d="M493.903 206.64C494.209 206.739 494.518 206.832 494.828 206.919C498.114 207.849 495.966 211.777 495.327 213.998C496.636 214.309 499.698 215.241 500.775 215.339C502.217 215.47 517.484 221.156 514.982 222.901C511.94 223.921 505.946 222.263 502.994 221.635C500.155 221.032 497.344 220.364 494.958 219.649C494.128 222.473 493.4 225.254 492.614 228.084C491.626 230.092 489.028 235.313 487.247 229.001C487.03 228.233 489.123 221.185 489.459 219.741L489.85 218.04C489.299 217.871 469.758 213.687 474.301 211.56C477.688 209.974 486.978 211.973 491.191 212.707C491.76 210.692 491.966 209.105 493.329 207.401L493.903 206.64Z"/><path fill="#ffffff" d="M838.018 589.567C848.144 593.248 844.097 622.431 841.003 630.444C836.927 640.999 832.602 648.673 822.332 653.847C820.177 654.366 821.044 654.585 819.505 653.809C819.942 652.537 823.777 649.756 825.343 648.19C827.833 645.665 829.975 642.819 831.711 639.727C839.926 625.107 842.654 605.872 838.018 589.567Z"/><path fill="#ffffff" d="M436.968 473.715C440.208 473.346 443.468 472.815 446.541 474.392C449.278 475.798 448.348 478.928 445.757 479.314C445.595 479.244 445.281 478.99 445.191 478.845C442.544 474.707 434.796 476.45 432.13 479.612C430.454 482.003 430.636 483.907 432.601 485.899C435.091 488.423 443.523 484.095 443.509 486.422C443.491 489.214 439.595 489.901 437.835 491.829C436.647 493.131 435.445 494.148 435.445 496.26C435.44 497.264 435.836 498.228 436.545 498.939C439.814 502.164 445.88 499.14 448.599 496.277C449.415 494.964 451.708 490.214 451.99 490.157C457.708 489.092 453.433 495.813 452.313 497.686C448.617 503.87 433.104 507.272 431.116 498.005C430.52 495.221 434.397 491.005 434.29 490.585C434.125 490.513 433.95 490.464 433.771 490.439C430.901 490.057 428.07 488.514 427.198 485.692C425.051 478.744 432.122 475.35 436.968 473.715Z"/><path fill="#ffffff" d="M256.164 866.046C261.836 867.778 251.703 869.597 250.933 869.757L252.358 878.005C252.917 881.15 253.661 885.371 255.037 888.23C257.825 894.025 262.009 889.643 263.707 889.612C266.09 890.886 258.645 897.189 255.002 894.027C252.147 891.549 251.325 888.949 250.587 885.498L250.105 883.245C249.237 879.056 248.507 874.925 247.567 870.75C243.553 871.846 239.576 872.66 235.561 873.745C236.447 876.623 237.258 879.519 238.22 882.373C239.855 887.438 242.359 895.199 238.135 899.629C237.345 900.457 232.69 902.998 232.55 900.762C232.501 899.987 236.362 899.164 236.689 898.145C238.345 892.97 234.795 886.442 234.07 881.243C233.75 879.099 233.089 876.771 232.687 874.577C232.149 874.706 225.057 876.45 225.212 876.473C217.659 875.358 227.542 873.428 229.253 873.019C238.2 870.882 247.215 868.29 256.164 866.046Z"/><path fill="#ffffff" d="M502.128 435.964C503.193 436.042 502.79 435.988 503.802 436.612L503.817 437.704C501.776 440.307 466.939 450.754 460.651 453.157C446.203 458.679 430.118 463.064 415.488 468.482C415.223 468.359 414.152 467.715 413.868 467.549L413.803 466.631C416.318 464.42 493.077 439.261 502.128 435.964Z"/><path fill="#ffffff" d="M616.59 555.658L616.26 556.607C613.941 557.599 611.379 558.815 609.297 560.288C593.698 571.322 586.621 596.871 596.66 613.723C598.144 616.214 600.286 617.919 601.862 620.345L601.556 620.688L600.002 619.996C576.143 604.782 588.245 561.462 616.59 555.658Z"/><path fill="#ffffff" d="M202.529 246.497C210.909 245.997 207.834 255.255 206.03 260.26C204.428 264.703 201.572 266.686 197.288 268.244C190.339 267.108 189.952 262.494 191.873 255.996C193.492 250.518 197.621 248.607 202.529 246.497Z"/><path fill="#ffffff" d="M345.959 840.401C334.524 842.013 339.29 839.519 344.175 835.298C348.329 831.707 349.839 827.685 351.035 836.863C351.602 837.657 351.562 837.637 352.01 838.559C351.971 842.421 353.446 846.416 354.341 850.271L354.883 852.509C355.615 855.854 356.342 858.458 357.402 861.685L357.548 862.138C359.056 862.506 362.715 862.996 363.322 864.664C364.054 866.674 352.895 867.214 351.549 868.695C350.734 869.594 347.713 869.08 346.534 868.193C346.653 867.186 350.998 864.334 352.013 863.545C350.136 855.951 348.015 847.946 345.959 840.401Z"/><path fill="#ffffff" d="M670.146 569.836C676.874 571.015 680.873 579.402 682.851 585.317C689.362 604.793 680.391 629.321 659.616 635.642C658.274 635.997 658.431 635.917 657.009 635.98L656.922 635.46C671.57 628.152 678.607 617.391 680.578 600.963C682.036 588.815 678.754 578.619 670.146 569.836Z"/><path fill="#ffffff" d="M325.698 837.327C329.304 840.67 331.613 862.333 335.187 867.324C336.121 868.937 340.89 868.116 341.319 869.234C342.482 872.261 328.038 874.701 325.672 875.322C325.145 875.295 323.182 875.112 323.442 874.442C325.056 870.265 330.492 873.05 328.598 865.499C327.038 859.277 325.185 852.914 323.473 846.687C319.815 846.255 318.739 846.12 315.192 845.023C321.164 841.591 320.804 841.457 325.698 837.327Z"/><path fill="#ffffff" d="M343.629 186.469C350.883 186.435 348.633 188.574 351.305 191.515C351.908 191.016 354.673 187.398 356.102 188.082C357.094 188.558 352.502 193.245 351.747 194.312C351.266 210.061 356.702 200.844 357.751 203.028C357.486 204.303 356.469 205.171 355.46 205.902L354.698 206.491C349.157 206.898 349.293 204.594 348.379 199.254L347.785 199.896C335.328 213.575 330.518 192.886 343.629 186.469ZM342.854 203.234L343.621 202.626C345.825 200.918 347.253 198.53 348.566 196.108C348.073 193.653 348.029 189.466 345.62 188.313C345.326 188.169 345.034 188.021 344.745 187.868L343.995 188.44C339.456 191.695 336.225 201.03 342.854 203.234Z"/><path fill="#ffffff" d="M739.767 588.088C748.229 586.918 746.959 591.928 748.579 598.603C750.537 597.203 756.969 591.524 759.255 591.966C765.517 593.175 751.129 600.719 749.278 601.999C750 606.144 750.206 609.953 751.806 613.91C753.073 617.043 756.15 618.147 751.286 618.634C750.944 618.496 750.601 618.364 750.255 618.237C746.038 616.695 745.727 609.836 744.936 605.929C743.571 606.864 734.966 613.623 734.508 613.641C725.262 614.001 742.134 603.944 744.335 602.019C744.239 601.398 743.38 596.7 743.405 596.509C743.971 592.188 740.194 589.754 739.767 588.088Z"/><path fill="#ffffff" d="M505.558 467.539C516.591 467.314 520.631 481.063 510.125 486.301C506.476 486.472 503.36 485.829 501.805 482.314C498.799 475.514 498.782 470.824 505.558 467.539ZM511.374 483.809C512.747 481.885 513.588 480.058 512.909 477.756C511.048 471.448 510.308 469.556 504.291 469.976C502.609 475.285 503.202 486.383 511.374 483.809Z"/><path fill="#ffffff" d="M271.221 164.065C283.794 163.335 297.672 168.998 309.996 171.206C313.093 171.761 315.117 171.048 314.831 174.502L314.666 176.389C307.608 177.701 293.894 172.912 286.74 171.112L284.74 170.61L281.505 169.838C277.978 168.96 273.534 168.174 271.647 164.805L271.221 164.065Z"/><path fill="#ffffff" d="M659.115 513.031C670.707 513.003 667.152 527.715 660.01 532.029C647.873 530.932 652.017 517.672 659.115 513.031ZM658.648 530.088C662.53 526.693 667.038 517.426 660.378 514.401C657.586 516.909 656.09 519.943 655.651 523.778C655.127 528.343 654.687 528.825 658.648 530.088Z"/><path fill="#ffffff" d="M221.039 829.19C223.4 831.308 219.377 831.921 218.3 832.208L216.547 832.678C217.627 836.834 218.752 843.22 220.473 846.767C222.321 850.575 224.63 848.826 226.026 847.997C229.247 847.011 226.25 851.603 223.498 852.062C215.643 853.37 215.264 839.45 214.216 833.108C211.044 833.859 207.943 834.741 204.795 835.544C205.405 837.271 205.776 837.844 206.2 839.799L206.46 840.767C207.96 846.147 210.861 853.8 204.222 856.914C203.495 857.255 202.679 857.669 202.365 856.699C202.661 855.836 204.27 855.308 204.91 854.195C206.644 851.179 204.931 847.734 204.109 844.739C203.366 842.032 202.804 839.299 202.237 836.58C198.645 837.328 196.777 837.557 193.141 837.724C199.673 833.662 213.183 830.599 221.039 829.19Z"/><path fill="#ffffff" d="M370.451 190.161C375.855 190.62 379.614 191.548 384.759 192.469L387.262 192.927C394.866 194.291 394.7 197.045 389.994 195.926L387.138 195.323C379.11 217.708 388.039 208.07 388.875 210.63C388.227 212.565 381.6 213.559 380.832 211.085C379.806 207.778 382.136 200.902 382.947 197.627C383.185 196.961 383.708 195.896 383.607 195.233C382.931 194.527 373.519 193.168 371.958 192.854C370.772 196.024 369.496 198.876 368.614 202.264C367.878 204.884 367.387 207.11 366.613 209.758C366.184 211.226 365.103 217.778 362.658 217.313C360.938 216.835 362.226 214.088 362.509 213.229C364.67 206.68 366.173 199.968 368.242 193.391C368.746 191.787 368.962 190.899 370.451 190.161Z"/><path fill="#ffffff" d="M409.816 217.94C411.523 218.519 412.749 218.978 413.714 220.634C422.733 236.1 414.122 255.33 400.93 264.964C398.691 265.701 395.622 265.338 398.289 263.619C406.097 258.586 410.238 250.039 411.956 241.245C412.644 237.621 412.962 233.937 412.903 230.249C412.845 227.729 412.668 223.638 410.567 221.893C408.985 220.581 409.382 220.039 409.816 217.94Z"/><path fill="#ffffff" d="M598.33 633.921C608.406 634.345 605.709 648.916 597.93 652.766C595.966 652.483 593.225 652.065 592.446 649.996C589.705 642.717 592.511 637.469 598.33 633.921ZM597.268 651.621L597.922 650.931C601.096 647.65 605.472 637.089 598.793 635.175C595.946 638.564 589.986 650.341 597.268 651.621Z"/><path fill="#ffffff" d="M247.613 259.874C259.561 260.468 251.668 276.198 247.411 277.607L246.616 277.908C244.582 277.608 241.279 276.945 240.413 275.033C237.041 267.581 243.083 262.719 247.613 259.874Z"/><defs><linearGradient id="gradient_0" gradientUnits="userSpaceOnUse" x1="585.36633" y1="646.90491" x2="579.0304" y2="632.35785"><stop offset="0" stop-color="#ffffff" stop-opacity="0.98039216"/><stop offset="1" stop-color="#ffffff"/></linearGradient></defs><path fill="url(#gradient_0)" d="M582.626 630.376C590.956 631.059 589.138 639.264 586.84 644.927C585.722 647.683 584.449 648.148 581.796 648.957C571.43 646.884 575.942 634.412 582.626 630.376ZM582.04 648.178C584.788 645.38 590.062 633.245 583.099 632.142L582.416 632.849C580.016 635.274 576.116 643.501 579.46 646.788C579.922 647.243 581.435 647.876 582.04 648.178Z"/><path fill="#ffffff" d="M801.38 607.088C805.667 608.229 802.979 608.224 804.206 610.238C804.327 610.279 808.653 608.271 811.194 609.203C816.356 611.097 816.566 614.558 815.127 619.758L813.39 626.238C812.637 629.116 810.116 637.77 808.688 630.084C808.766 630.508 811.635 619.133 811.803 618.361C812.469 614.428 813.51 611.556 807.24 611.479C801.104 611.356 800.584 627.376 798.497 628.976C792.379 633.664 800.788 609.035 801.38 607.088Z"/><path fill="#ffffff" d="M223.765 252.323C226.374 252.726 225.784 253.104 228.027 253.958C233.804 256.158 228.126 267.188 223.915 269.331L223.123 269.756C211.474 270.897 218.242 257.054 223.039 252.978L223.765 252.323Z"/><path fill="#ffffff" d="M419.349 154.485C424.969 155.56 430.35 157.16 436.006 157.877C437.291 158.04 439.19 157.956 439.781 159.272L439.608 159.663C437.539 161.261 434.846 157.636 434.185 163.028C433.743 165.741 431.906 169.026 432.074 171.75C432.257 174.721 436.516 173.398 437.192 173.665C437.481 175.413 430.185 177.318 429.22 173.835C428.384 170.817 430.587 165.798 431.535 163.11C431.736 162.505 432.38 160.592 431.897 160.266C430.603 159.393 422.715 157.894 421.529 157.653C419.194 163.348 417.479 168.742 416.111 174.759C415.663 176.732 415.511 179.559 413.216 179.659C411.437 178.767 413.206 175.84 413.566 174.511C415.35 167.907 417.254 160.983 419.349 154.485Z"/><path fill="#ffffff" d="M484.583 470.508C486.246 470.483 488.015 470.373 489.229 471.79C489.912 472.202 489.219 474.683 488.676 474.486C485.54 473.35 483.097 472.645 480.083 475.115C478.818 476.157 478.679 477.034 478.46 478.496C477.855 482.528 486.39 480.432 488.824 480.114C486.654 482.362 481.644 485.303 482.361 488.508C482.524 489.248 483.01 489.876 483.687 490.22C488.212 492.557 491.032 488.169 492.601 484.748C492.673 483.551 496.765 480.714 493.596 489.474C489.581 493.031 484.98 495.37 479.967 491.76C476.07 488.952 480.331 484.977 480.282 484.288C479.054 482.96 472.553 482.215 475.869 475.426C477.245 472.61 481.767 471.316 484.583 470.508Z"/><path fill="#ffffff" d="M647.275 581.01C647.954 581.145 650.11 581.362 650.506 581.762C650.691 582.407 650.428 583.086 650.274 583.707C650.876 583.808 653.253 582.776 654.492 582.566C658.105 581.952 661.316 585.423 660.994 588.998C660.831 591.212 657.696 602.941 656.425 603.819C650.657 607.803 656.961 591.512 657.351 590.272C658.553 581.877 647.646 584.219 647.584 592.007C647.575 593.151 645.416 600.561 644.523 601.14C643.454 601.833 640.889 600.76 642.101 598.801C643.514 594.157 646.441 585.378 647.275 581.01Z"/><path fill="#ffffff" d="M462.512 386.945C463.012 387.219 464.287 387.672 464.206 388.232C463.044 396.247 460.64 441.424 458.059 445.719C457.474 445.372 456.962 444.922 456.418 444.495C455.9 442.568 461.405 390.175 462.512 386.945Z"/><path fill="#ffffff" d="M145.268 449.486C148.526 450.086 154.628 452.306 158.497 454.459C162.521 456.698 174.331 461.751 177.439 465.483C177.747 465.852 177.007 466.987 176.767 467.38C169.501 466.68 152.979 456.06 145.502 452.996C144.185 452.457 144.534 451.365 144.986 450.233L145.268 449.486Z"/><path fill="#ffffff" d="M45.1336 478.302C45.5422 478.692 46.6468 479.674 46.4726 480.236C44.6523 486.113 27.4417 509.643 24.4059 512.97C21.2953 510.454 24.7731 507.163 26.798 504.181C31.3715 497.447 39.1517 483.117 45.1336 478.302Z"/><path fill="#ffffff" d="M466.219 458.826C467.181 459.454 466.835 459.159 467.454 460.232C467.735 463.543 461.987 508.418 460.704 511.478L459.456 510.861C457.989 507.709 464.529 464.043 466.219 458.826Z"/><path fill="#ffffff" d="M704.315 781.081C706.548 780.815 705.693 780.492 707.148 781.527L707.464 781.256C707.404 781.408 707.366 781.571 707.283 781.712C706.045 783.808 662.805 794.878 657.132 796.398L655.032 796.69L654.238 795.925L654.463 796.591L653.955 796.429L653.79 795.651C656.325 793.259 697.53 782.84 704.315 781.081Z"/><path fill="#ffffff" d="M785.242 557.886C791.617 558.056 790.556 559.76 791.573 565.919C793.776 564.449 796.285 562.513 798.794 561.667C799.391 561.466 801.196 561.987 800.819 562.44C798.807 564.857 794.75 566.962 792.137 568.671L792.18 568.94C792.446 570.503 794.811 580.159 794.773 580.474C789.255 579.252 790.171 577.117 788.908 571.579C787.584 572.558 781.914 577.052 780.492 577.084C779.052 577.115 779.069 575.301 780.678 574.198C783.136 572.515 785.958 570.458 788.406 568.617C787.591 563.719 787.835 562.501 785.242 557.886Z"/><path fill="#ffffff" d="M870.576 638.024C879.832 638.75 891.41 643.062 900.496 645.47C902.062 645.885 901.428 648.147 900.769 649.16L898.25 648.607L895.997 648.121C888.259 646.467 880.4 644.096 872.733 642.102C870.788 641.596 868.478 641.011 870.196 638.579L870.576 638.024Z"/><path fill="#ffffff" d="M873.942 625.87C881.826 626.917 890.554 630.537 898.422 632.386C902.586 633.365 906.08 633.669 904.317 637.818C899.151 636.717 894.153 635.438 888.758 633.89C884.763 632.744 876.468 631.285 873.131 628.525C872.656 628.132 873.713 626.31 873.942 625.87Z"/><path fill="#ffffff" d="M676.842 805.593C677.37 805.712 678.171 805.78 678.517 806.283C679.526 807.748 667.064 849.332 665.708 854.341C665.589 854.315 663.529 853.99 663.644 853.47C666.152 842.077 669.789 830.578 672.85 819.219C674.057 814.741 675.274 809.936 676.842 805.593Z"/><path fill="#ffffff" d="M189.011 826.159C189.671 826.299 189.805 826.291 190.201 826.819C190.431 828.639 187.794 829.057 186.492 829.38L182.719 830.346C171.183 833.226 159.691 836.555 148.132 839.538C145.724 836.971 149.294 836.791 151.511 836.192L152.491 835.935L154.491 835.417C164.812 832.727 178.988 828.111 189.011 826.159Z"/><path fill="#ffffff" d="M62.2731 622.085C70.3939 624.404 78.2574 630.051 86.0073 633.482C89.1757 634.884 92.2157 635.02 91.8385 638.427C83.956 638.414 69.2362 628.024 61.9154 624.257C61.4906 624.039 62.2087 622.257 62.2731 622.085Z"/><path fill="#ffffff" d="M214.682 579.298C214.887 579.513 215.975 580.553 215.84 581.012C214.788 584.591 210.068 589.283 207.742 592.204C203.58 597.434 199.692 603.21 194.904 607.665C192.642 606.516 193.37 605.735 195.035 603.772C196.495 602.043 197.889 600.26 199.215 598.426C201.496 595.319 203.818 591.73 206.038 588.779L208.222 585.926C210.454 582.96 211.746 581.436 214.682 579.298Z"/><path fill="#ffffff" d="M631.729 775.109C634.665 775.245 634.57 778.334 630.253 779.411L626.245 780.375L607.606 785.008C605.137 785.169 605.307 783.264 605.74 782.915C609.565 779.83 627.584 775.953 631.729 775.109Z"/><path fill="#ffffff" d="M448.911 201.054C452.74 201.37 450.653 205.831 449.915 208.743C448.795 213.16 444.733 235.597 436.251 228.621L435.576 228.094C437.094 228.024 440.399 228.674 440.997 227.276C443.909 220.462 446.219 212.075 447.094 204.714C447.26 203.314 444.887 206.023 443.821 204.203C444.352 202.021 446.809 201.88 448.911 201.054Z"/><path fill="#ffffff" d="M385.993 455.528C387.142 455.426 390.708 454.631 389.418 457.706C389.019 458.657 386.839 459.256 385.893 459.545C378.933 461.671 371.989 463.822 364.997 465.859C360.406 466.968 362.051 463.67 361.899 463.747C368.67 460.28 378.36 458.239 385.993 455.528Z"/><path fill="#ffffff" d="M684.983 559.253C678.686 553.771 684.261 540.7 690.255 540.878C699.545 541.155 695.285 554.486 689.948 559.201C689.367 558.922 688.813 558.647 688.222 558.392C690.244 555.878 697.523 541.425 689.24 542.945C687.192 543.321 684.55 552.507 684.535 554.506C684.522 556.269 685.866 557.389 687.139 558.455C686.408 558.713 685.708 558.979 684.983 559.253Z"/><path fill="#ffffff" d="M530.302 598.619C534.126 599.203 537.127 600.137 540.757 600.961L549.009 602.92C549.739 603.094 550.529 603.289 551.259 603.455L553.261 603.909C557.999 604.939 563.032 606.189 567.59 607.825C568.251 608.062 568.407 609.718 568.501 610.236C556.131 607.642 543.87 604.134 531.551 601.292C529.555 600.831 529.773 600.388 530.302 598.619Z"/><path fill="#ffffff" d="M634.19 786.117C646.349 788.449 610.413 795.817 610.645 795.757C607.665 796.125 606.516 793.317 612.539 791.699L613.489 791.45C620.283 789.633 627.333 787.559 634.19 786.117Z"/><path fill="#ffffff" d="M388.32 241.396C389.568 242.601 388.582 243.639 387.949 244.997C384.925 251.485 382.607 259.197 381.797 266.316C385.375 266.585 386.705 266.557 390.242 267.109C387.778 267.825 386.069 268.406 383.504 268.74C378.781 269.356 376.221 270.471 379.085 264.782C380.794 259.244 382.901 253.352 384.675 247.73C380.164 251.912 379.298 252.369 373.972 255.307C376.036 252.645 385.15 244.44 388.32 241.396Z"/><path fill="#ffffff" d="M390.327 466.579C393.418 466.241 392.326 469.051 392.369 469.028C388.785 470.984 370.27 476.141 367.169 476.986C364.254 477.287 365.204 474.433 365.115 474.485C368.703 472.386 387.452 467.332 390.327 466.579Z"/><path fill="#ffffff" d="M613.479 507.085C614.053 507.311 616.172 508.487 616.005 508.471C618.662 508.674 621.76 508.175 623.352 511.126C624.904 514.002 621.886 519.902 621.567 523.023C621.652 524.269 619.939 526.209 619.036 524.484C617.953 522.416 620.334 516.886 621.002 514.992C622.068 511.288 620.778 510.752 616.486 511.039C613.178 511.26 613.51 521.903 610.509 522.248C608.804 520.674 612.681 509.655 613.479 507.085Z"/><path fill="#ffffff" d="M386.131 814.179C388.175 810.743 393.435 802.547 391.796 799.135C388.35 791.961 382.705 800.539 382.765 800.502C380.318 800.479 382.209 796.935 383.384 795.865C388.92 790.828 396.418 794.708 395.131 802.002C394.54 805.353 390.167 811.562 387.854 814.655C387.537 815.844 388.087 816.517 386.958 816.609C386.514 816.109 386.292 814.816 386.131 814.179Z"/><path fill="#ffffff" d="M814.602 543.459C818.274 544.022 823.016 545.73 821.21 550.819C819.976 554.295 814.268 557.132 810.956 558.548C812.507 559.146 818.189 560.59 818.591 562.096C818.021 563.249 816.687 562.815 815.787 562.405C814.747 562.152 813.533 561.774 812.487 561.566C800.716 559.226 815.555 555.275 817.72 551.379C819.511 548.157 818.148 545.055 814.201 546.306C813.867 546.411 812.769 546.86 812.277 546.753C809.972 545.574 813.846 543.851 814.602 543.459Z"/><path fill="#ffffff" d="M405.787 169.686C410.009 162.017 399.113 162.593 401.716 154.933C403.246 150.43 415.505 150.75 411.936 158.034C410.129 158.993 411.213 155.291 409.306 154.219C407.872 153.414 405.792 152.959 404.855 154.692C404.473 155.383 404.403 156.203 404.66 156.949C406.077 161.001 414.816 163.832 407.051 170.579C406.629 170.281 406.208 169.984 405.787 169.686Z"/><path fill="#ffffff" d="M456.17 210.189C462.431 207.044 466.546 201.74 462.99 194.77C462.618 194.041 459.554 190.381 460.479 189.679C463.006 189.292 467.757 195.798 467.919 198.501C468.433 207.098 463.754 208.665 457.174 211.91C456.891 211.399 456.51 210.64 456.17 210.189Z"/><path fill="#ffffff" d="M767.382 631.15L767.844 631.255C771.54 632.062 770.902 633.366 769.575 636.89C767.13 643.386 765.699 650.334 763.224 656.743C763.2 656.758 761.676 657.906 761.65 657.298C761.429 652.104 763.708 646.137 764.871 640.993L765.401 638.739C765.99 636.185 766.639 633.664 767.382 631.15Z"/><path fill="#ffffff" d="M336.504 167.523C340.5 168.261 334.759 170.114 333.244 171.479C331.238 173.273 330.054 175.81 329.968 178.499C329.756 183.904 334.777 188.013 334.024 189.069L333.746 189.49L333.246 189.223C323.277 184.056 323.524 170.871 336.504 167.523Z"/><path fill="#ffffff" d="M621.979 595.706C620.888 595.37 616.03 594.359 615.035 593.532C614.904 593.42 614.999 593.182 615.075 593.087C615.577 592.461 618.664 592.699 618.813 592.272C620.749 586.737 621.258 579.155 624.457 574.326C624.681 573.988 627.353 574.648 626.478 576.729C625.969 577.938 624.976 581.79 624.62 583.263L624.128 585.262L623.62 587.258C623.205 588.957 621.603 592.607 622.441 593.95L621.979 595.706Z"/><path fill="#ffffff" d="M632.424 578.16C640.916 577.75 638.874 579.763 636.808 586.978C635.63 591.092 634.377 595.625 632.815 599.57C630.894 598.844 630.267 598.931 630.853 596.747C632.147 591.923 633.023 586.998 634.661 582.251C635.033 581.182 634.974 579.996 633.6 579.887C631.951 579.756 631.49 579.643 632.424 578.16Z"/><path fill="#ffffff" d="M598.552 538.619C600.344 539.067 602.439 539.536 604.257 539.93C608.348 540.8 612.428 541.724 616.495 542.702L617.264 542.9C620.287 543.655 627.622 543.979 626.602 547.56C623.09 547.225 619.134 545.87 615.632 545.094C610.585 543.976 605.538 542.688 600.486 541.588C598.364 541.126 596.99 540.947 598.552 538.619Z"/><path fill="#ffffff" d="M402.148 197.264C406.865 198.228 409.384 203.05 409.205 207.751C409.04 212.048 405.595 215.456 402.419 218.102C401.064 216.724 399.763 215.473 398.626 213.898L398.024 213.09C397.802 212.703 397.053 211.417 397.043 211.03C396.947 206.9 402.524 215.401 402.744 215.698C410.184 206.965 405.568 204.887 402.148 197.264Z"/><defs><linearGradient id="gradient_1" gradientUnits="userSpaceOnUse" x1="393.27756" y1="227.46588" x2="384.42593" y2="229.12189"><stop offset="0" stop-color="#ffffff"/><stop offset="1" stop-color="#ffffff"/></linearGradient></defs><path fill="url(#gradient_1)" d="M386.625 228.899C387.933 226.988 387.741 225.464 386.549 223.448C385.95 222.434 382.624 223.294 382.117 222.703C381.622 222.126 384.364 220.617 385.009 220.639C388.476 220.757 390.045 221.415 390.552 224.814C390.741 225.066 390.931 225.317 391.121 225.568C390.02 227.834 390.486 231.936 391.291 234.203C392.135 236.581 394.205 231.558 395.655 233.445C395.856 236.014 391.025 237.601 389.3 235.68C388.008 234.242 388.563 232.219 387.909 230.243C387.571 229.899 386.942 229.288 386.625 228.899Z"/><path fill="#ffffff" d="M258.176 500.749C260.41 500.735 262.27 502.459 262.424 504.687C262.579 506.915 260.976 508.88 258.762 509.174C257.2 509.382 255.653 508.705 254.745 507.418C253.838 506.13 253.721 504.445 254.441 503.044C255.162 501.644 256.601 500.759 258.176 500.749Z"/><path fill="#ffffff" fill-opacity="0.98823529" d="M785.076 595.154C786.525 595.71 785.678 595.382 786.78 596.238C787.747 596.989 790.991 595.804 792.313 596.713C796.189 599.379 791.141 604.022 791.271 607.17C791.305 607.984 793.476 608.077 792.817 608.832C792.111 609.306 789.848 609.334 789.543 608.232C788.942 606.054 790.266 603.574 790.998 601.663C791.723 599.994 793.048 597.934 790.517 597.461C784.737 596.03 785.363 605.08 782.998 606.723C780.145 608.707 784.993 595.388 785.076 595.154Z"/><path fill="#ffffff" d="M317.911 821.656C319.296 821.039 320.908 821.239 322.1 822.174C323.293 823.11 323.871 824.628 323.602 826.119C323.333 827.611 322.261 828.831 320.817 829.291C318.748 829.95 316.525 828.877 315.752 826.848C314.98 824.819 315.928 822.54 317.911 821.656Z"/><path fill="#ffffff" d="M239.141 506.765C241.214 506.052 243.474 507.148 244.198 509.217C244.922 511.287 243.839 513.552 241.773 514.288C239.692 515.029 237.405 513.935 236.675 511.85C235.945 509.764 237.051 507.483 239.141 506.765Z"/><path fill="#ffffff" d="M174.455 525.38C176.495 524.643 178.748 525.68 179.513 527.709C180.279 529.738 179.271 532.006 177.253 532.798C175.923 533.321 174.414 533.087 173.305 532.186C172.195 531.285 171.657 529.857 171.895 528.447C172.133 527.038 173.111 525.866 174.455 525.38Z"/><path fill="#ffffff" d="M423.312 206.749C423.769 204.884 424.725 199.161 425.663 198.675C429.838 196.509 425.941 206.225 425.439 207.191C425.243 207.794 425.109 208.331 424.952 208.943C422.464 221.176 419.014 217.627 423.01 208.684L423.312 206.749Z"/><path fill="#ffffff" d="M517.786 488.026C518.557 488.161 519.272 488.315 519.684 489.03C519.668 491.637 510.549 493.644 507.658 494.815C506.826 494.934 506.213 494.834 505.974 493.973C505.183 491.123 516.161 488.493 517.786 488.026Z"/><path fill="#ffffff" fill-opacity="0.97254902" d="M229.299 486.169C231.913 486.891 236.307 492.537 236.851 494.318C237.976 497.998 231.053 489.863 231.075 489.886C230.886 489.78 230.761 489.666 230.566 489.681C229.754 490.504 229.479 498.11 227.83 497.853C227.6 497.534 228.793 487.691 229.299 486.169Z"/><path fill="#ffffff" d="M403.938 825.552L404.267 825.64C409.059 826.978 389.83 831.465 389.749 831.488C386.758 829.74 389.639 829.045 391.755 828.591C395.872 827.708 399.845 826.456 403.938 825.552Z"/><path fill="#ffffff" d="M387.854 814.655C389.587 814.837 399.214 811.972 402.508 811.49C398.459 814.21 396.222 815.346 391.206 816.307C388.47 816.83 383.925 819.241 386.131 814.179C386.292 814.816 386.514 816.109 386.958 816.609C388.087 816.517 387.537 815.844 387.854 814.655Z"/><path fill="#ffffff" d="M631.487 513.57C635.142 513.805 646.204 516.054 648.889 518.37C645.205 518.742 633.841 516.672 631.487 513.57Z"/><path fill="#ffffff" d="M630.246 519.607C631.613 519.759 632.973 519.972 634.321 520.245C636.179 520.617 637.683 520.975 639.51 521.396L641.51 521.861C644.098 522.462 645.878 522.295 647.236 524.608C644.57 524.348 643.956 524.067 641.495 523.578C638.98 523.104 636.483 522.541 634.007 521.893C632.229 521.435 630.428 521.524 630.246 519.607Z"/><path fill="#ffffff" d="M662.797 541.102C666.356 540.967 677.549 543.898 680.11 545.92C676.82 546.09 665.009 543.26 662.797 541.102Z"/><path fill="#ffffff" fill-opacity="0.98823529" d="M660.999 547.098C666.134 546.699 674.07 549.102 678.482 551.397C674.869 551.552 664.309 548.892 660.999 547.098Z"/><path fill="#ffffff" d="M759.618 660.296C760.96 659.907 762.376 660.619 762.862 661.929C763.349 663.239 762.743 664.703 761.473 665.285C760.563 665.701 759.497 665.574 758.711 664.956C757.925 664.337 757.551 663.331 757.742 662.349C757.933 661.367 758.658 660.575 759.618 660.296Z"/><path fill="#ffffff" d="M386.625 228.899C386.942 229.288 387.571 229.899 387.909 230.243C386.707 230.713 383.07 231.502 382.919 232.306C383.827 233.811 386.764 233.172 384.506 234.544C382.277 236.083 379.522 234.043 380.63 231.496C381.243 230.088 385.213 229.405 386.625 228.899Z"/><path fill="#ffffff" fill-opacity="0.98431373" d="M449.292 150.191C453.847 151.109 453.293 152.361 452.112 156.504C450.585 161.859 452.249 159.778 453.411 161.044C453.582 161.815 451.707 162.256 451.217 162.445L450.805 161.921C449.394 160.037 450.403 158.246 450.901 155.997C452.361 149.409 450.776 152.696 447.604 151.801L447.627 151.493C448.064 150.955 448.732 150.576 449.292 150.191Z"/><path fill="#ffffff" fill-opacity="0.98823529" d="M445.339 148.633C445.887 148.883 446.96 149.351 446.929 149.996C446.802 152.569 444.308 157.157 443.491 159.715C440.865 161.416 445.105 149.373 445.339 148.633Z"/><path fill="#ffffff" fill-opacity="0.97254902" d="M407.051 170.579C404.266 170.435 401.651 170.389 399.021 169.221C397.336 168.473 398.371 164.116 399.491 163.861C401.5 164.497 398.401 168.043 404.464 169.402L405.787 169.686C406.208 169.984 406.629 170.281 407.051 170.579Z"/><path fill="#ffffff" fill-opacity="0.98431373" d="M423.01 208.684C421.213 208.42 418.263 208.158 416.739 207.02C416.374 206.748 416.399 205.91 416.799 205.737C418.371 205.056 421.816 206.331 423.312 206.749L423.01 208.684Z"/><path fill="#ffffff" d="M425.439 207.191C433.933 208.706 433.944 210.602 424.952 208.943C425.109 208.331 425.243 207.794 425.439 207.191Z"/><path fill="#ffffff" d="M390.552 224.814C392.693 220.885 397.357 220.843 391.121 225.568C390.931 225.317 390.741 225.066 390.552 224.814Z"/><path fill="#ffffff" fill-opacity="0.97647059" d="M271.505 243.728C270.732 243.502 267.029 242.663 266.701 242.091C266.716 241.148 270.396 241.858 271.366 241.858L271.505 243.728Z"/><path fill="#ffffff" fill-opacity="0.96862745" d="M688.222 558.392C688.813 558.647 689.367 558.922 689.948 559.201C687.634 559.614 687.369 559.547 684.983 559.253C685.708 558.979 686.408 558.713 687.139 558.455C687.633 558.341 687.656 558.372 688.222 558.392Z"/><path fill="#ffffff" fill-opacity="0.95686275" d="M351.704 836.419C352.325 836.782 352.941 837.153 353.551 837.534C353.038 837.895 352.536 838.217 352.01 838.559C351.562 837.637 351.602 837.657 351.035 836.863L351.704 836.419Z"/><path fill="#ffffff" fill-opacity="0.88235295" d="M624.061 594.947L624.781 595.079C625.237 595.148 625.75 595.141 625.776 595.659C625.19 596.273 623.393 595.843 622.717 595.758L624.061 594.947Z"/><path fill="#ffffff" fill-opacity="0.98039216" d="M456.17 210.189C456.51 210.64 456.891 211.399 457.174 211.91C454.72 211.516 453.919 211.624 456.17 210.189Z"/><path fill="#ffffff" fill-opacity="0.98431373" d="M622.441 593.95C622.999 594.274 623.515 594.603 624.061 594.947L622.717 595.758L621.979 595.706L622.441 593.95Z"/></svg>